<?xml version="1.0" encoding="UTF-8"?>
<svg width="20px" height="28px" viewBox="0 0 20 28" version="1.1" xmlns="http://www.w3.org/2000/svg" xmlns:xlink="http://www.w3.org/1999/xlink">
    <!-- Generator: Sketch 49.3 (51167) - http://www.bohemiancoding.com/sketch -->
    <title>AtGate</title>
    <desc>Created with Sketch.</desc>
    <defs></defs>
    <g id="Page-1" stroke="none" stroke-width="1" fill="none" fill-rule="evenodd">
        <g id="PAX-Connection" transform="translate(-208.000000, -386.000000)" fill="#B9AD9C">
            <g id="Group-49" transform="translate(187.000000, 178.000000)">
                <g id="Group-53" transform="translate(18.000000, 99.000000)">
                    <g id="Group-36" transform="translate(3.000000, 109.000000)">
                        <g id="AtGate" transform="translate(0.000000, 0.095445)">
                            <ellipse id="XMLID_1416_" fill-rule="nonzero" cx="11.5260055" cy="7.27707224" rx="1.84679624" ry="1.79984881"></ellipse>
                            <path d="M2.24803674,4.1644305 L2.24803674,26.3861171 C2.24803674,26.9384019 1.80032149,27.3861171 1.24803674,27.3861171 L1,27.3861171 C0.44771525,27.3861171 6.76353751e-17,26.9384019 0,26.3861171 L0,2.09544469 C-3.75667949e-17,1.78868853 0.138121845,1.51419245 0.355566614,1.33075538 C0.522354124,1.01081673 0.857105366,0.792375395 1.24287632,0.792375395 L17.865436,0.792375395 C18.2512069,0.792375395 18.5859582,1.01081673 18.7527457,1.33075538 C18.9701904,1.51419245 19.1083123,1.78868853 19.1083123,2.09544469 L19.1083123,26.3861171 C19.1083123,26.9384019 18.660597,27.3861171 18.1083123,27.3861171 L17.8602755,27.3861171 C17.3079908,27.3861171 16.8602755,26.9384019 16.8602755,26.3861171 L16.8602755,4.1644305 L2.24803674,4.1644305 Z" id="Combined-Shape"></path>
                            <path d="M16.0313728,11.6954606 C16.0255824,10.5679588 15.0796066,9.65063057 13.9226462,9.65063057 L11.52693,9.65063057 C11.526119,9.65066218 10.7269144,9.65066218 9.12931613,9.65063057 C7.9724044,9.65063057 7.02637994,10.5679114 7.02058954,11.6954606 L7.01543076,18.0755961 C7.10837805,18.6427297 7.40253674,18.9262966 7.89790683,18.9262966 C8.3832784,18.9262966 8.77906911,18.548629 8.78933612,18.0755961 C8.79511449,17.5715365 8.80101518,12.0458607 8.80276689,11.7041863 C8.80325348,11.6091529 8.88256733,11.5324718 8.98003092,11.5327089 C9.0774945,11.532946 9.15632176,11.6100539 9.15632176,11.7050399 C9.15635304,13.662371 9.15652506,19.1444563 9.15664396,22.7896425 C9.15664398,22.7901979 9.80981768,22.7861555 9.80981768,22.7896425 C9.80981768,22.9578485 9.83846836,27.2134094 9.80981768,27.2134094 C9.80981768,27.2134094 10.0971234,27.3450972 10.2260856,27.3450972 C10.8166575,27.3450972 11.2954114,26.8785137 11.2954114,26.3029547 L11.2954114,18.1980867 C11.2954114,18.0738415 11.3987627,17.9731174 11.5262488,17.9731174 C11.6537349,17.9731174 11.7570862,18.0738415 11.7570862,18.1980867 L11.7570862,26.3029547 C11.7570862,26.8785137 12.2358401,27.3450972 12.826412,27.3450972 C13.4169839,27.3450972 13.8957379,26.8785137 13.8957379,26.3029547 C13.8742307,12.4321591 13.8761771,14.3595252 13.8763231,11.7051347 C13.8763231,11.6049798 13.959481,11.5236987 14.062297,11.5234142 C14.1650644,11.5231297 14.2487575,11.6039365 14.2493414,11.7041863 C14.2493414,11.7041547 14.2603059,13.8308665 14.2822348,18.0843217 C14.2847164,18.5624762 14.6831347,18.9483952 15.1731775,18.9483952 C15.6698866,18.9459767 16.0667964,18.5552206 16.0643635,18.0755961 L16.0313728,11.6954606 Z" id="XMLID_1417_" fill-rule="nonzero"></path>
                            <path d="M9.19344843,23.0406635 L8.27710583,23.0406635 L8.27710583,22.0714558 L8.27710583,21.9774657 C8.27710583,21.7098168 8.05449181,21.4928618 7.77986152,21.4928618 L5.2274153,21.4928618 C4.95278501,21.4928618 4.73017098,21.7098168 4.73017098,21.9774657 L4.73017098,22.0714558 L4.73017098,23.0406635 L3.81382839,23.0406635 C3.56985315,23.0406635 3.37205511,23.2334333 3.37205511,23.4712065 L3.37205511,26.9145543 C3.37205511,27.1523274 3.56985315,27.3450972 3.81382839,27.3450972 L9.19344843,27.3450972 C9.43742367,27.3450972 9.63522171,27.1523274 9.63522171,26.9145543 L9.63522171,23.4712065 C9.63522171,23.2334333 9.43742367,23.0406635 9.19344843,23.0406635 Z M7.2826172,23.0406635 L5.72461096,23.0406635 L5.72461096,22.4620696 L7.2826172,22.4620696 L7.2826172,23.0406635 Z" id="XMLID_1434_" fill-rule="nonzero"></path>
                        </g>
                    </g>
                </g>
            </g>
        </g>
    </g>
</svg>