<?xml version="1.0" encoding="UTF-8"?>
<svg width="25px" height="26px" viewBox="0 0 25 26" version="1.1" xmlns="http://www.w3.org/2000/svg" xmlns:xlink="http://www.w3.org/1999/xlink">
    <!-- Generator: Sketch 49.3 (51167) - http://www.bohemiancoding.com/sketch -->
    <title>Boarded Icon</title>
    <desc>Created with Sketch.</desc>
    <defs></defs>
    <g id="Page-1" stroke="none" stroke-width="1" fill="none" fill-rule="evenodd">
        <g id="PAX-Connection" transform="translate(-206.000000, -425.000000)" fill="#B9AD9C">
            <g id="Group-49" transform="translate(187.000000, 178.000000)">
                <g id="Group-53" transform="translate(18.000000, 99.000000)">
                    <g id="Group-35" transform="translate(0.000000, 148.000000)">
                        <g id="Boarded-Icon">
                            <g id="Group-62" transform="translate(13.500000, 19.000000) rotate(-24.000000) translate(-13.500000, -19.000000) translate(1.000000, 16.000000)">
                                <path d="M3,0 L22,0 C23.6568542,-3.04359188e-16 25,1.34314575 25,3 C25,4.65685425 23.6568542,6 22,6 L3,6 C1.34314575,6 2.02906125e-16,4.65685425 0,3 C-2.02906125e-16,1.34314575 1.34314575,3.04359188e-16 3,0 Z M3.07692308,0.923076923 C1.92987013,0.923076923 1,1.85294706 1,3 C1,4.14705294 1.92987013,5.07692308 3.07692308,5.07692308 L21.9230769,5.07692308 C23.0701299,5.07692308 24,4.14705294 24,3 C24,1.85294706 23.0701299,0.923076923 21.9230769,0.923076923 L3.07692308,0.923076923 Z" id="Combined-Shape"></path>
                                <path d="M8.20458984,0.911132813 L5.18139648,4.55453726 L7.93261719,4.55453726 C9.2890625,3.26284555 10.0638835,2.40399639 10.2570801,1.97798978 C10.4502767,1.55198317 10.4502767,1.19636418 10.2570801,0.911132813 L8.20458984,0.911132813 Z" id="Path-12"></path>
                                <path d="M10.8579746,0.887290348 C11.2519746,1.01721778 11.4489746,1.18464543 11.4489746,1.38957332 C11.4489746,1.5945012 11.2667643,2.57346755 10.9023438,4.32647236 L13.3347168,4.32647236 L13.8703613,1.6480619 C13.8615723,1.05115685 13.7701009,0.752704327 13.5959473,0.752704327 C13.4217936,0.752704327 12.5091361,0.797566334 10.8579746,0.887290348 Z" id="Path-14"></path>
                            </g>
                            <g id="Group-61" transform="translate(11.500000, 9.000000) rotate(4.000000) translate(-11.500000, -9.000000) translate(7.000000, 1.000000)">
                                <path d="M1.79176645,15.7086423 C0.786127543,15.2317032 0.0873750298,14.2117679 0.075904018,13.0255709 L0.0292917674,8.20548046 C0.0132700566,6.54870368 1.34336485,5.19263256 3.00014163,5.17661085 C3.0098113,5.17651734 3.01948137,5.17647059 3.0291515,5.17647059 L3.52887096,5.17647059 C5.17440728,5.17647059 6.51281843,6.50200133 6.52873069,8.14746071 L6.53689968,8.99220156 L4.74925118,7.15946691 C3.16169701,6.46660539 2.36791992,6.3001685 2.36791992,6.66015625 C2.36791992,7.20013787 1.77837334,9.80920012 3.03735352,11.6185662 C4.14481956,13.210181 5.75846706,13.1591418 6.57285623,13.1238052 C6.56916388,13.2125447 6.56160928,13.3003036 6.5503549,13.3869162 L1.79176645,15.7086423 Z" id="Combined-Shape"></path>
                                <ellipse id="Oval-6" cx="3.25" cy="2.11764706" rx="2.25" ry="2.11764706"></ellipse>
                                <path d="M2.22045898,6.84926471 L3.16430664,10.5737592 C3.3050064,10.9670417 3.56493478,11.237875 3.9440918,11.3862592 C4.32324881,11.5346434 5.38696474,11.9999576 7.1352396,12.7822019 C7.80025412,12.8781391 8.27696711,12.7370375 8.56537857,12.3588972 C8.85379002,11.9807569 8.76920757,11.634841 8.3116312,11.3211495 L5.16113281,9.75344669 L4.43334961,6.29434743 L2.51879883,5.76286765 L2.22045898,6.84926471 Z" id="Path-19"></path>
                            </g>
                        </g>
                    </g>
                </g>
            </g>
        </g>
    </g>
</svg>