<?xml version="1.0" encoding="UTF-8"?>
<svg width="23px" height="23px" viewBox="0 0 23 23" version="1.1" xmlns="http://www.w3.org/2000/svg" xmlns:xlink="http://www.w3.org/1999/xlink">
    <!-- Generator: Sketch 49.3 (51167) - http://www.bohemiancoding.com/sketch -->
    <title>Checked-In</title>
    <desc>Created with Sketch.</desc>
    <defs></defs>
    <g id="Page-1" stroke="none" stroke-width="1" fill="none" fill-rule="evenodd">
        <g id="PAX-Connection" transform="translate(-208.000000, -305.000000)" fill="#B9AD9C" fill-rule="nonzero">
            <g id="Group-49" transform="translate(187.000000, 178.000000)">
                <g id="Group-53" transform="translate(18.000000, 99.000000)">
                    <g id="Group-37" transform="translate(3.000000, 25.000000)">
                        <g id="Group-39">
                            <g id="Group-38">
                                <g id="Checked-In" transform="translate(0.000000, 3.381779)">
                                    <ellipse id="XMLID_518_" cx="17.9842939" cy="2.19088937" rx="2.24803674" ry="2.19088937"></ellipse>
                                    <path d="M21.950847,10.347138 L19.1300492,9.13219759 L18.5651277,5.89734342 L19.7730939,8.49437538 L19.997321,5.97458567 C20.0603044,5.26688216 19.5174989,4.64387745 18.7850008,4.58303006 L16.4196826,4.38657852 C15.6915385,4.32611351 15.0502749,4.84391387 14.9807606,5.5451646 L12.8219074,7.34272006 C12.7517994,7.40108194 12.6914876,7.46967269 12.6432482,7.54595898 L10.5890871,10.7933363 C10.3324035,11.1990972 10.4648518,11.7290862 10.884857,11.9770644 C10.9330965,12.0055523 10.9831666,12.0286389 11.0341273,12.0473281 L9.88107982,13.1612704 L8.84276814,12.1581248 C8.51107837,11.8376842 7.97326992,11.8376842 7.64158015,12.1581248 L7.24532368,12.5409424 C6.91363391,12.8613831 6.91363391,13.380952 7.24532368,13.7013927 L8.28363537,14.7045383 L7.76126356,15.2091941 L5.79482413,13.3094456 C5.46313436,12.9890049 4.92532592,12.9890049 4.59363615,13.3094456 L0.248767328,17.5069601 C-0.0829224426,17.8274007 -0.0829224426,18.3469696 0.248767328,18.6674103 L1.55454842,19.9289542 C1.48547937,20.0949581 1.44708568,20.275923 1.44708568,20.4654915 C1.44708568,21.2613354 2.11729296,21.9087651 2.94102551,21.9087651 C3.76475806,21.9087651 4.43496534,21.2612876 4.43496534,20.4654915 C4.43496534,20.2793167 4.39790752,20.1014587 4.33116386,19.9379403 L11.8551881,12.6459556 C12.0538358,12.4540449 12.0540337,12.1430205 11.8558808,11.9508231 C11.9555262,11.884431 12.042951,11.7976291 12.11014,11.691421 L14.0914223,8.55914224 L14.761877,8.00090441 C14.761877,8.00090441 14.4562118,12.1779612 14.4595762,12.1985623 L15.0992565,16.1346672 L13.3918261,20.5082233 C13.1830357,21.0430877 13.4625278,21.6402335 14.0162182,21.8419906 C14.5701065,22.0437478 15.1880667,21.7734477 15.3968076,21.2387745 L17.2041309,16.609449 C17.2695882,16.4418199 17.288884,16.2606161 17.2600887,16.0836185 L16.6483626,12.3194923 L17.2066542,12.3658568 L18.9264538,16.0423685 L20.1174002,21.1030748 C20.2485621,21.6604044 20.8225873,22.0096675 21.3997295,21.8829061 C21.9767232,21.7561447 22.3380988,21.2015395 22.2069369,20.6441143 L20.9920439,15.4816929 C20.9761125,15.4140581 20.953205,15.3481441 20.9236181,15.2849068 L19.4493699,12.1332697 L19.4552081,12.0677858 L17.6166157,11.2758137 C16.8625954,10.9510234 16.5672707,10.2181779 16.5933943,9.82264588 L16.8249933,6.30305647 L17.4487917,9.87517635 C17.498565,10.160055 17.6925619,10.4018672 17.9656716,10.5194992 L21.2237419,11.9227654 C21.6819428,12.1201729 22.2061453,11.9123931 22.4027645,11.4861745 C22.6035892,11.0509699 22.4011812,10.541104 21.950847,10.347138 Z M2.94102551,20.924691 C2.67889956,20.924691 2.46570576,20.7186798 2.46570576,20.4654437 C2.46570576,20.2122555 2.67889956,20.0062442 2.94102551,20.0062442 C3.20315147,20.0062442 3.41634526,20.2122555 3.41634526,20.4654437 C3.41639474,20.7186798 3.20315147,20.924691 2.94102551,20.924691 Z" id="XMLID_1413_"></path>
                                </g>
                            </g>
                        </g>
                    </g>
                </g>
            </g>
        </g>
    </g>
</svg>