<?xml version="1.0" encoding="UTF-8"?>
<svg width="27px" height="22px" viewBox="0 0 27 22" version="1.1" xmlns="http://www.w3.org/2000/svg" xmlns:xlink="http://www.w3.org/1999/xlink">
    <!-- Generator: Sketch 49.3 (51167) - http://www.bohemiancoding.com/sketch -->
    <title>InboundFlight</title>
    <desc>Created with Sketch.</desc>
    <defs></defs>
    <g id="Page-1" stroke="none" stroke-width="1" fill="none" fill-rule="evenodd">
        <g id="PAX-Connection" transform="translate(-202.000000, -612.000000)" fill="#B9AD9C">
            <g id="Group-51" transform="translate(186.000000, 598.000000)">
                <g id="Group-48" transform="translate(16.860276, 4.381779)">
                    <g id="Group-46">
                        <g id="Group-35">
                            <path d="M0,30.7403688 L25.5264572,30.7403688 L25.5264572,29.8705857 L0,29.8705857 L0,30.7403688 Z M3.04271773,21.6996638 L20.5807763,27.9195987 C20.806704,27.9995662 21.0416239,28.0390022 21.2709236,28.0390022 L21.2731717,28.0390022 C22.0982011,28.0390022 22.8704018,27.5416703 23.1693907,26.7441866 C23.251444,26.5229067 23.2919087,26.2950542 23.2919087,26.0715835 C23.2919087,25.2664317 22.7816043,24.5127657 21.9621949,24.2213774 L16.5680308,22.3076356 L13.521941,11.1581996 L9.85314503,9.85900217 L10.8512733,20.278872 L6.24841812,18.645564 L5.89435233,15.8894252 L2.1479991,14.5617462 L2.23792057,15.2650217 L3.04271773,21.6996638 Z" id="InboundFlight"></path>
                        </g>
                    </g>
                </g>
            </g>
        </g>
    </g>
</svg>