<?xml version="1.0" encoding="UTF-8"?>
<svg width="24px" height="20px" viewBox="0 0 24 20" version="1.1" xmlns="http://www.w3.org/2000/svg" xmlns:xlink="http://www.w3.org/1999/xlink">
    <!-- Generator: Sketch 49.3 (51167) - http://www.bohemiancoding.com/sketch -->
    <title>NotArrived</title>
    <desc>Created with Sketch.</desc>
    <defs></defs>
    <g id="Page-1" stroke="none" stroke-width="1" fill="none" fill-rule="evenodd">
        <g id="PAX-Connection" transform="translate(-206.000000, -533.000000)">
            <g id="Group-49" transform="translate(187.000000, 178.000000)">
                <g id="Group-53" transform="translate(18.000000, 99.000000)">
                    <g id="Group-58" transform="translate(1.000000, 253.000000)">
                        <g id="NotArrived" transform="translate(0.000000, 3.286334)">
                            <g id="001-tourist" transform="translate(0.000000, 0.939572)" fill="#B9AD9C" fill-rule="nonzero">
                                <ellipse id="XMLID_518_" cx="15.6089203" cy="1.78966186" rx="1.83634357" ry="1.78966186"></ellipse>
                                <path d="M18.8274332,8.75677567 L16.4080103,7.70230512 L15.9234722,4.89471193 L16.9595554,7.14872675 L17.1518769,4.961752 C17.2058983,4.34752228 16.7403292,3.80680431 16.1120593,3.75399367 L14.0833052,3.58348954 C13.4587696,3.53101077 12.9087522,3.98041983 12.8491292,4.58904905 L10.997462,6.14918258 C10.9373297,6.199836 10.8855998,6.25936725 10.8442244,6.32557761 L9.08235247,9.14403992 C8.86219275,9.4962077 8.97579483,9.95619548 9.33603691,10.1714206 C9.37741234,10.1961458 9.42035791,10.2161832 9.46406734,10.2324039 L8.47508847,11.1992162 L7.58451947,10.3285665 C7.30002626,10.0504498 6.83874326,10.0504498 6.55425005,10.3285665 L6.21437741,10.6608214 C5.9298842,10.9389381 5.9298842,11.3898822 6.21437741,11.6679989 L7.10494641,12.5386485 L6.65690355,12.9766492 L4.97027127,11.3278203 C4.68577806,11.0497036 4.22449506,11.0497036 3.94000185,11.3278203 L0.21336991,14.9709252 C-0.0711233033,15.2490419 -0.0711233033,15.6999859 0.21336991,15.9781027 L1.33334976,17.0730213 C1.27410863,17.2170993 1.24117803,17.3741623 1.24117803,17.5386925 C1.24117803,18.2294209 1.81602067,18.7913378 2.52254327,18.7913378 C3.22906587,18.7913378 3.80390851,18.2293795 3.80390851,17.5386925 C3.80390851,17.3771077 3.77212369,17.2227413 3.71487707,17.0808205 L10.1682984,10.7519644 C10.3386803,10.5854014 10.33885,10.3154572 10.1688925,10.1486453 C10.2543593,10.0910223 10.3293443,10.0156852 10.3869728,9.92350515 L12.086336,7.20493918 L12.6613908,6.72043365 C12.6613908,6.72043365 12.3992191,10.3457829 12.4021048,10.363663 L12.9507642,13.7798854 L11.4862862,17.5757803 C11.3072048,18.0399996 11.5469277,18.558274 12.0218328,18.733383 C12.4969076,18.908492 13.0269374,18.6738933 13.2059764,18.2098399 L14.7561334,14.1919578 C14.8122766,14.0464693 14.8288268,13.8891989 14.8041289,13.7355792 L14.279446,10.4686205 L14.7582976,10.5088612 L16.2333847,13.6997775 L17.2548699,18.0920635 C17.3673686,18.5757808 17.859715,18.8789131 18.3547349,18.7688944 C18.8496275,18.6588756 19.1595825,18.177523 19.0470837,17.6937227 L18.0050594,13.2131562 C17.9913949,13.1544547 17.9717469,13.0972466 17.94637,13.0423617 L16.6818944,10.3069942 L16.6869019,10.2501595 L15.1099251,9.56279143 C14.4631953,9.28089956 14.2098928,8.64484863 14.2322992,8.30155869 L14.4309437,5.24683822 L14.9659811,8.34715091 C15.008672,8.59440264 15.1750649,8.80427622 15.4093135,8.90637127 L18.2037888,10.1242935 C18.5967917,10.2956273 19.0464048,10.1152912 19.2150468,9.74536775 C19.3872959,9.36764509 19.2136888,8.92512257 18.8274332,8.75677567 Z M2.52254327,17.9372408 C2.29771555,17.9372408 2.11485737,17.7584396 2.11485737,17.538651 C2.11485737,17.318904 2.29771555,17.1401028 2.52254327,17.1401028 C2.74737099,17.1401028 2.93022917,17.318904 2.93022917,17.538651 C2.93027161,17.7584396 2.74737099,17.9372408 2.52254327,17.9372408 Z" id="XMLID_1413_"></path>
                            </g>
                            <polygon id="Path-9" fill="#940000" transform="translate(14.968747, 10.005581) scale(-1, -1) translate(-14.968747, -10.005581) " points="6.31447131 1.73255487 22.534314 19.3801259 23.6230222 18.1925145 7.51921292 0.631035951"></polygon>
                        </g>
                    </g>
                </g>
            </g>
        </g>
    </g>
</svg>