<?xml version="1.0" encoding="UTF-8"?>
<svg width="23px" height="23px" viewBox="0 0 23 23" version="1.1" xmlns="http://www.w3.org/2000/svg" xmlns:xlink="http://www.w3.org/1999/xlink">
    <!-- Generator: Sketch 49.3 (51167) - http://www.bohemiancoding.com/sketch -->
    <title>Passport</title>
    <desc>Created with Sketch.</desc>
    <defs></defs>
    <g id="Page-1" stroke="none" stroke-width="1" fill="none" fill-rule="evenodd">
        <g id="PAX-Connection" transform="translate(-208.000000, -350.000000)" fill="#B9AD9C" fill-rule="nonzero">
            <g id="Group-49" transform="translate(187.000000, 178.000000)">
                <g id="Group-53" transform="translate(18.000000, 99.000000)">
                    <g id="Group-40" transform="translate(3.000000, 70.000000)">
                        <g id="Passport" transform="translate(0.000000, 3.381779)">
                            <path d="M2.54913742,3.76880394 C2.53964895,3.76335042 2.53040378,3.75747011 2.52096397,3.75196918 C2.53064707,4.67574678 3.30164582,5.42173987 4.25180628,5.42173987 C5.20172345,5.42173987 5.97257622,4.67607873 5.98259994,3.75263309 C5.55566759,4.00230912 4.9502061,4.25611085 4.25180628,4.25611085 C3.69213272,4.25611085 3.10336119,4.08762102 2.54913742,3.76880394 Z" id="XMLID_243_"></path>
                            <path d="M2.1317422,2.32646843 C2.1317422,2.32646843 3.30831208,3.30767389 4.25180628,3.30767389 C5.19530049,3.30767389 6.37187037,2.32646843 6.37187037,2.32646843 C6.4593589,2.26913542 6.499989,2.16409603 6.47312934,2.06474726 L6.23197631,1.17260003 C6.20102931,1.05817111 6.12156948,0.961952184 6.01340096,0.908080965 L4.44610089,0.127422505 C4.38508275,0.0970251007 4.31842019,0.0818026876 4.25180628,0.0818026876 C4.18514372,0.0818026876 4.11848116,0.0970251007 4.05746302,0.127422505 L2.49021161,0.908128386 C2.38209174,0.961999606 2.30258326,1.05817111 2.27163626,1.17264745 L2.03048323,2.06474726 C2.00362357,2.16409603 2.04425367,2.26913542 2.1317422,2.32646843 Z" id="XMLID_1411_"></path>
                            <path d="M8.34605536,6.55037984 C8.3656162,6.64474932 8.46001428,6.70582866 8.5568453,6.68676508 L8.68379612,6.66177376 C8.72325841,6.4675813 8.79571137,6.27647125 8.90426916,6.09636307 C9.20463995,5.59786461 9.73487494,5.27046417 10.3186833,5.21033327 L9.97106477,3.53340188 C9.95150393,3.43903241 9.85710586,3.37795307 9.76027484,3.39701665 L7.94880488,3.75367637 C7.85197386,3.77273995 7.78930133,3.86469091 7.80886216,3.95910781 L8.34605536,6.55037984 Z" id="XMLID_1415_"></path>
                            <ellipse id="XMLID_1416_" cx="17.8979245" cy="1.79989624" rx="1.84679624" ry="1.79984881"></ellipse>
                            <path d="M22.4032918,6.21828464 C22.3975015,5.09078279 21.4515256,4.17345456 20.2945653,4.17345456 L17.8988491,4.17345456 C17.8985571,4.17345456 17.8982165,4.17350199 17.8979245,4.17350199 C17.8976326,4.17350199 17.897292,4.17345456 17.897,4.17345456 L15.5012352,4.17345456 C14.3443234,4.17345456 13.398299,5.09073537 13.3925086,6.21828464 C13.3902216,6.66125212 13.3921193,6.29581937 13.3851124,7.65364913 L10.9630718,6.26750852 C10.9630231,6.2674611 10.9629258,6.26741368 10.9628285,6.26741368 C10.5681083,6.04159084 10.0563637,6.1444014 9.78791304,6.51064034 C9.47810243,6.93245767 9.61575819,7.51057742 10.060597,7.76523274 C14.1677893,10.1157915 13.9366113,10.0348424 14.2675885,10.0348424 C14.7529601,10.0348424 15.1487508,9.65717478 15.1590178,9.18414185 C15.1591151,9.17963678 15.1595044,9.17517912 15.159553,9.17062663 C15.1620833,8.68000019 15.1729342,6.56868468 15.1746859,6.22701026 C15.1751725,6.13197688 15.2544864,6.05529575 15.3519499,6.05553286 C15.4494135,6.05576997 15.5282408,6.1328779 15.5282408,6.22786386 C15.5282894,9.27277329 15.5286787,20.3247195 15.5286787,20.8257787 C15.5286787,21.4013377 16.0074327,21.8679212 16.5980046,21.8679212 C17.1885765,21.8679212 17.6673305,21.4013377 17.6673305,20.8257787 L17.6673305,12.7209107 C17.6673305,12.5966654 17.7706818,12.4959414 17.8981678,12.4959414 C18.0256539,12.4959414 18.1290052,12.5966654 18.1290052,12.7209107 L18.1290052,20.8257787 C18.1290052,21.4013377 18.6077592,21.8679212 19.1983311,21.8679212 C19.788903,21.8679212 20.2676569,21.4013377 20.2676569,20.8257787 C20.2461498,6.95498305 20.2480961,8.88234921 20.2482421,6.2279587 C20.2482421,6.12780376 20.3314,6.04652271 20.434216,6.04623818 C20.5369834,6.04595365 20.6206766,6.12676048 20.6212605,6.22701026 C20.6212605,6.22696284 20.6212605,6.22701026 20.6212605,6.22701026 L20.6541538,12.6071457 C20.6566354,13.0853002 21.0550537,13.4712192 21.5450965,13.4712192 C21.5466049,13.4712192 21.5482107,13.4712192 21.5496705,13.4712192 C22.0418056,13.4688006 22.4387155,13.0780446 22.4362825,12.5984201 L22.4032918,6.21828464 Z" id="XMLID_1417_"></path>
                            <path d="M14.1557706,12.146395 C14.1557706,11.7535524 13.828978,11.4350673 13.4258885,11.4350673 L8.48950151,11.4350673 L8.46380966,7.87638955 C8.45831122,6.81945141 7.57150452,5.95950362 6.4869971,5.95950362 L6.16842791,5.95950362 C6.02186759,6.22127222 4.87682862,8.26600746 4.72272619,8.54124386 L4.52361436,7.14651989 L4.87517422,6.33536919 C4.91132771,6.25200158 4.84836322,6.15962382 4.75557088,6.15962382 L3.74794437,6.15962382 C3.65505471,6.15962382 3.5922362,6.25209642 3.62834103,6.33536919 L3.97990089,7.14651989 L3.78078906,8.54124386 C3.62673529,8.2661023 2.48169632,6.22131964 2.33508734,5.95950362 L1.9935512,5.95950362 C0.909043774,5.95950362 0.0222370734,6.81940399 0.0167386285,7.87477721 L0.00214098737,12.1439765 C0.00150842292,12.3330474 0.0780973802,12.5145782 0.215071913,12.6484975 C0.351997787,12.7824168 0.538020395,12.8576753 0.732023046,12.8576753 L13.4258885,12.8576753 C13.828978,12.8577227 14.1557706,12.539285 14.1557706,12.146395 Z M1.66179547,11.4350673 L1.68739,7.88464096 C1.68787659,7.7955353 1.76222724,7.7236912 1.85355982,7.72392831 C1.94494105,7.72416542 2.01885377,7.79643632 2.01885377,7.88549455 L2.01885377,11.4350673 L1.66179547,11.4350673 Z M6.44354479,11.4350673 L6.44354479,7.89137486 C6.44354479,7.79828577 6.52023106,7.72241081 6.61574829,7.72098816 C6.71126553,7.7195655 6.79033608,7.79311679 6.79320695,7.88615845 L6.79320695,7.8862533 L6.81880148,11.4350673 L6.44354479,11.4350673 Z" id="XMLID_1424_"></path>
                            <path d="M13.3173307,17.5634875 L12.4009881,17.5634875 L12.4009881,16.5942798 L12.4009881,16.5002897 C12.4009881,16.2326408 12.1783741,16.0156858 11.9037438,16.0156858 L9.35129759,16.0156858 C9.0766673,16.0156858 8.85405327,16.2326408 8.85405327,16.5002897 L8.85405327,16.5942798 L8.85405327,17.5634875 L7.93771068,17.5634875 C7.69373543,17.5634875 7.4959374,17.7562573 7.4959374,17.9940305 L7.4959374,21.4373783 C7.4959374,21.6751514 7.69373543,21.8679212 7.93771068,21.8679212 L13.3173307,21.8679212 C13.561306,21.8679212 13.759104,21.6751514 13.759104,21.4373783 L13.759104,17.9940305 C13.759104,17.7562573 13.561306,17.5634875 13.3173307,17.5634875 Z M11.4064995,17.5634875 L9.84849325,17.5634875 L9.84849325,16.9848936 L11.4064995,16.9848936 L11.4064995,17.5634875 Z" id="XMLID_1434_"></path>
                        </g>
                    </g>
                </g>
            </g>
        </g>
    </g>
</svg>