<?xml version="1.0" encoding="UTF-8"?>
<svg width="13px" height="21px" viewBox="0 0 13 21" version="1.1" xmlns="http://www.w3.org/2000/svg" xmlns:xlink="http://www.w3.org/1999/xlink">
    <!-- Generator: Sketch 49.3 (51167) - http://www.bohemiancoding.com/sketch -->
    <title>airport-control-tower-svgrepo-com@2x</title>
    <desc>Created with Sketch.</desc>
    <defs></defs>
    <g id="Symbols" stroke="none" stroke-width="1" fill="none" fill-rule="evenodd">
        <g id="Main-Nav-Bar" transform="translate(-367.000000, -73.000000)" fill="#B9B8B7" fill-rule="nonzero">
            <g id="Group-21" transform="translate(0.000000, -113.000000)">
                <g id="Group-24" transform="translate(312.000000, 147.000000)">
                    <g id="Aeriel" transform="translate(0.000000, 34.000000)">
                        <g id="airport-control-tower-svgrepo-com" transform="translate(55.890411, 5.528455)">
                            <path d="M10.9761339,5.03690777 C10.6042866,4.57357333 10.0427928,4.31005733 9.39457846,4.31005733 L9.18347081,4.31005733 L9.18347081,4.06355643 C9.18347081,3.42745322 8.75862762,3.01341896 8.12004888,3.01341896 L6.57966382,3.01341896 L6.57966382,1.71721689 L7.49855147,1.71721689 C7.97814249,1.71721689 8.36663312,1.33634028 8.36663312,0.858608444 C8.36663312,0.380440327 7.97814249,0 7.49855147,0 L3.921109,0 C3.44107999,0 3.05215137,0.380440327 3.05215137,0.858608444 C3.05215137,1.33634028 3.44107999,1.71721689 3.921109,1.71721689 L4.85663998,1.71721689 L4.85663998,3.01341896 L3.58999409,3.01341896 C2.95141536,3.01341896 2.21867035,3.42745322 2.21867035,4.06355643 L2.21867035,4.31005733 L2.02551999,4.31005733 C1.36942194,4.31005733 0.807928157,4.56833792 0.44308859,5.02294665 C0.051532081,5.51114932 -0.0842425476,6.08617266 0.0506561156,6.67995624 L0.553460224,8.86050757 C0.75931208,9.76710734 1.5524987,10.371798 2.5283241,10.371798 L2.8870319,10.371798 L2.8870319,17.3095986 L2.60540905,17.3095986 C1.56125835,17.3095986 0.705878194,18.2812048 0.705878194,19.3208714 L0.705878194,19.902439 L2.88659392,19.902439 L8.53350452,19.902439 L10.696263,19.902439 L10.696263,19.3208714 C10.696263,18.2807685 9.76686373,17.3095986 8.72315102,17.3095986 L8.55014786,17.3095986 L8.55014786,10.371798 L8.89133637,10.371798 C9.86716176,10.371798 10.6612243,9.76928876 10.8657623,8.86661555 L11.3694423,6.69435364 C11.504779,6.09969749 11.3690043,5.52554672 10.9761339,5.03690777 Z M2.24670124,8.48530266 L1.74389713,6.2999522 C1.73250958,6.2484706 1.72331194,6.20964125 1.79995891,6.11409489 C1.82623787,6.08137353 1.91427239,6.062177 2.02464402,6.062177 L4.856202,6.062177 L4.856202,8.65501744 L2.52788611,8.65501744 C2.45518099,8.65501744 2.28173985,8.63800233 2.24670124,8.48530266 Z M9.67620132,6.31522217 L9.17208326,8.48748408 C9.13792061,8.63800233 8.96447947,8.65501744 8.89133637,8.65501744 L6.5801018,8.65501744 L6.5801018,6.062177 L9.39501644,6.062177 C9.44582243,6.062177 9.57020951,6.06653984 9.62013953,6.12761971 C9.69153071,6.21793066 9.68846483,6.26112286 9.67620132,6.31522217 Z" id="Shape"></path>
                        </g>
                    </g>
                </g>
            </g>
        </g>
    </g>
</svg>