<?xml version="1.0" encoding="UTF-8"?>
<svg width="21px" height="12px" viewBox="0 0 21 12" version="1.1" xmlns="http://www.w3.org/2000/svg" xmlns:xlink="http://www.w3.org/1999/xlink">
    <!-- Generator: Sketch 49.3 (51167) - http://www.bohemiancoding.com/sketch -->
    <title>Critical Flight@2x</title>
    <desc>Created with Sketch.</desc>
    <defs></defs>
    <g id="Symbols" stroke="none" stroke-width="1" fill="none" fill-rule="evenodd">
        <g id="Main-Nav-Bar" transform="translate(-692.000000, -44.000000)" fill="#C9B896">
            <g id="Group-21" transform="translate(0.000000, -113.000000)">
                <g id="Group-19" transform="translate(587.000000, 152.000000)">
                    <g id="Group-15" transform="translate(92.000000, 0.000000)">
                        <g id="Critical-Flight" transform="translate(12.000000, 1.000000)">
                            <path d="M8.26747612,12.0268024 L5.83291139,12.9371865 L6.22884658,13.2673505 L9.49822319,16 L20.8406019,11.7535375 C21.3711841,11.5528936 21.7016153,11.0393052 21.7016153,10.4897806 C21.7016153,10.3363031 21.6761416,10.1805795 21.6230105,10.0293479 C21.4286821,9.48356667 20.9286683,9.14366999 20.3937191,9.14366999 C20.2445156,9.14366999 20.0938564,9.16987347 19.9475642,9.22527514 L16.4532906,10.5324549 L10.1823759,6 L7.80603694,6.88942128 L12.7508599,11.9189938 L9.74277139,13.0457438 L8.26747612,12.0268024 Z" id="Fill-1"></path>
                            <text id="!" font-family="EK03Serif-B01, EK03Serif" font-size="16" font-style="condensed" font-weight="300" letter-spacing="0.637543976">
                                <tspan x="0" y="16">!</tspan>
                            </text>
                        </g>
                    </g>
                </g>
            </g>
        </g>
    </g>
</svg>