<?xml version="1.0" encoding="utf-8"?>
<!-- Generator: Adobe Illustrator 22.1.0, SVG Export Plug-In . SVG Version: 6.00 Build 0)  -->
<svg version="1.1" id="Layer_1" xmlns="http://www.w3.org/2000/svg" xmlns:xlink="http://www.w3.org/1999/xlink" x="0px" y="0px"
	 viewBox="0 0 67 64" style="enable-background:new 0 0 67 64;" xml:space="preserve">
<style type="text/css">
	.st0{filter:url(#filter-1);}
	.st1{fill:url(#path-3_3_);}
	.st2{fill:none;stroke:#E4E4E2;}
	.st3{fill:#DD0000;}
	.st4{fill:#FDFEFF;enable-background:new    ;}
	.st5{opacity:0.5285;}
	.st6{fill:#FFFFFF;}
	.st7{opacity:0.1954;}
</style>
<filter  filterUnits="objectBoundingBox" height="238.9%" id="filter-1" width="228.2%" x="-64.1%" y="-58.3%">
	<feOffset  dx="0" dy="2" in="SourceAlpha" result="shadowOffsetOuter1"></feOffset>
	<feGaussianBlur  in="shadowOffsetOuter1" result="shadowBlurOuter1" stdDeviation="5"></feGaussianBlur>
	
		<feColorMatrix  in="shadowBlurOuter1" result="shadowMatrixOuter1" type="matrix" values="0 0 0 0 0   0 0 0 0 0   0 0 0 0 0  0 0 0 0.108808877 0">
		</feColorMatrix>
	<feMerge>
		<feMergeNode  in="shadowMatrixOuter1"></feMergeNode>
		<feMergeNode  in="SourceGraphic"></feMergeNode>
	</feMerge>
</filter>
<title>EK Button@2x</title>
<desc>Created with Sketch.</desc>
<g id="Main-Nav-Bar" transform="translate(-428.000000, -48.000000)">
	<g id="Group-21" transform="translate(0.000000, -113.000000)">
		<g id="Group-9" transform="translate(0.227848, 0.000000)">
			<g id="EK-Button" transform="translate(0.000000, 16.000000)" class="st0">
				<g id="Rectangle-5_1_">
					<g>
						
							<image style="overflow:visible;" width="68" height="65" xlink:href="6BF983B576E90C0C.png"  transform="matrix(1 0 0 1 427.4955 142.508)">
						</image>
					</g>
					<g>
						
							<linearGradient id="path-3_3_" gradientUnits="userSpaceOnUse" x1="-473.9147" y1="703.9167" x2="-473.9147" y2="703.0754" gradientTransform="matrix(38.8861 0 0 -36 18890.125 25496)">
							<stop  offset="0" style="stop-color:#E2DFD9"/>
							<stop  offset="1" style="stop-color:#CEC6B8"/>
						</linearGradient>
						<path id="path-3_2_" class="st1" d="M460,155h2.9c9.9,0,18,8.1,18,18l0,0c0,9.9-8.1,18-18,18H460c-9.9,0-18-8.1-18-18l0,0
							C442,163.1,450.1,155,460,155z"/>
					</g>
					<path class="st2" d="M460,155.5h2.9c9.7,0,17.5,7.8,17.5,17.5l0,0c0,9.7-7.8,17.5-17.5,17.5H460c-9.7,0-17.5-7.8-17.5-17.5l0,0
						C442.5,163.3,450.3,155.5,460,155.5z"/>
				</g>
				
					<image style="overflow:visible;enable-background:new    ;" width="360" height="285" id="TailEmirates_1_" xlink:href="6BF983B576E90C0B.png"  transform="matrix(-7.556576e-02 2.638814e-03 2.638814e-03 7.556576e-02 475.641 162.7569)">
				</image>
				<polygon class="st3" points="448.4,163.6 450.4,163.8 454.5,163.6 455.6,164.1 473.2,181.6 476,182.2 473.4,182.8 469,183.4 
					467.6,183.6 461.4,184.4 458.4,184.8 				"/>
				<polygon class="st4" points="448.4,163.7 450.6,163.9 463,183.1 461.3,184.4 458.4,184.9 				"/>
				<g id="Combined-Shape_3_" class="st5">
					<g>
						
							<image style="overflow:visible;" width="45" height="34" xlink:href="6BF983B576E90C14.png"  transform="matrix(1 0 0 1 439.9076 153.0082)">
						</image>
					</g>
					<g>
						<path id="path-5_2_" class="st6" d="M476.3,177.9c0.2-1,0.4-2.1,0.4-3.2c0-7.9-6.4-14.3-14.3-14.3h-2.3
							c-5.9,0-11,3.6-13.2,8.7c1.5-6.4,7.1-11.1,13.9-11.1h2.3c7.9,0,14.3,6.4,14.3,14.3C477.4,174.3,477,176.2,476.3,177.9z"/>
					</g>
				</g>
				
					<g id="Combined-Shape_2_" transform="translate(18.446533, 24.553408) scale(-1, -1) translate(-18.446533, -24.553408) " class="st7">
					<g>
						
							<image style="overflow:visible;" width="43" height="33" xlink:href="6BF983B576E90C17.png"  transform="matrix(-1 0 0 -1 -402.0594 -115.9933)">
						</image>
					</g>
					<g>
						<path id="path-7_2_" class="st6" d="M-410.1-121c0.2-1,0.3-2,0.3-3c0-7.5-6.1-13.6-13.6-13.6h-2.2c-5.6,0-10.4,3.4-12.5,8.3
							c1.4-6,6.8-10.5,13.2-10.5h2.2c7.5,0,13.6,6.1,13.6,13.6C-409.1-124.4-409.4-122.6-410.1-121z"/>
					</g>
				</g>
			</g>
		</g>
	</g>
</g>
</svg>
