<?xml version="1.0" encoding="UTF-8"?>
<svg width="17px" height="17px" viewBox="0 0 17 17" version="1.1" xmlns="http://www.w3.org/2000/svg" xmlns:xlink="http://www.w3.org/1999/xlink">
    <!-- Generator: Sketch 49.3 (51167) - http://www.bohemiancoding.com/sketch -->
    <title>Predicted Button@2x</title>
    <desc>Created with Sketch.</desc>
    <defs>
        <linearGradient x1="50%" y1="0%" x2="50%" y2="100%" id="linearGradient-1">
            <stop stop-color="#313131" offset="0%"></stop>
            <stop stop-color="#757575" offset="100%"></stop>
        </linearGradient>
        <linearGradient x1="50%" y1="0%" x2="50%" y2="100%" id="linearGradient-2">
            <stop stop-color="#BF2525" offset="0%"></stop>
            <stop stop-color="#AF2323" offset="100%"></stop>
        </linearGradient>
        <linearGradient x1="50%" y1="0%" x2="50%" y2="100%" id="linearGradient-3">
            <stop stop-color="#ACA298" offset="0%"></stop>
            <stop stop-color="#EDEAE6" offset="100%"></stop>
        </linearGradient>
        <ellipse id="path-4" cx="7.29113924" cy="7.5" rx="7.29113924" ry="7.5"></ellipse>
    </defs>
    <g id="Symbols" stroke="none" stroke-width="1" fill="none" fill-rule="evenodd">
        <g id="Main-Nav-Bar" transform="translate(-820.000000, -59.000000)">
            <g id="Group-21" transform="translate(0.000000, -113.000000)">
                <g id="Group-27" transform="translate(821.000000, 144.000000)">
                    <g id="Predicted-Button" transform="translate(0.362025, 29.000000)">
                        <ellipse id="Oval" stroke="url(#linearGradient-1)" fill="#962E2E" cx="7.29113924" cy="7.5" rx="7.29113924" ry="7.5"></ellipse>
                        <mask id="mask-5" fill="white">
                            <use xlink:href="#path-4"></use>
                        </mask>
                        <use id="Oval" stroke="url(#linearGradient-3)" fill="url(#linearGradient-2)" opacity="0" xlink:href="#path-4"></use>
                        <path d="M87.9501346,-3 L91.2339841,20.880144 L91.2339841,24 L89.7455266,24 L86.0326538,-3 L87.9501346,-3 Z M90.9263676,-3 L91.2339841,-3 L91.2339841,-0.763013602 L90.9263676,-3 Z M83.0564208,-3 L86.7692936,24 L84.4069298,24 L80.6940569,-3 L83.0564208,-3 Z M77.7178239,-3 L81.4306967,24 L79.513216,24 L75.8003431,-3 L77.7178239,-3 Z M72.8241101,-3 L76.536983,24 L74.6195022,24 L70.9066294,-3 L72.8241101,-3 Z M67.9303963,-3 L71.6432692,24 L69.7257884,24 L66.0129156,-3 L67.9303963,-3 Z M63.0366825,-3 L66.7495554,24 L64.8320746,24 L61.1192018,-3 L63.0366825,-3 Z M58.1429687,-3 L61.8558416,24 L59.9383608,24 L56.225488,-3 L58.1429687,-3 Z M53.2492549,-3 L56.9621278,24 L55.044647,24 L51.3317742,-3 L53.2492549,-3 Z M48.3555411,-3 L52.068414,24 L50.1509332,24 L46.4380604,-3 L48.3555411,-3 Z M43.4618273,-3 L47.1747002,24 L45.2572194,24 L41.5443466,-3 L43.4618273,-3 Z M38.5681135,-3 L42.2809864,24 L40.3635056,24 L36.6506328,-3 L38.5681135,-3 Z M33.6743998,-3 L37.3872726,24 L35.4697918,24 L31.756919,-3 L33.6743998,-3 Z M28.780686,-3 L32.4935588,24 L30.131195,24 L26.4183221,-3 L28.780686,-3 Z M23.4420891,-3 L27.1549619,24 L25.2374812,24 L21.5246083,-3 L23.4420891,-3 Z M18.5483753,-3 L22.2612481,24 L20.3437674,24 L16.6308945,-3 L18.5483753,-3 Z M13.6546615,-3 L17.3675343,24 L16.3398197,24 L12.6269469,-3 L13.6546615,-3 Z M9.65071385,-3 L13.3635867,24 L11.0012228,24 L7.28835001,-3 L9.65071385,-3 Z M4.31211698,-3 L8.02498982,24 L6.10750905,24 L2.39463622,-3 L4.31211698,-3 Z M-0.581596816,-3 L3.13127602,24 L1.65867833,24 L-2.05419451,-3 L-0.581596816,-3 Z M-5.03042754,-3 L-1.3175547,24 L-3.67991854,24 L-7.39279138,-3 L-5.03042754,-3 Z M-10.3690244,-3 L-6.65615157,24 L-8.57363233,24 L-12.2865052,-3 L-10.3690244,-3 Z M-15.2627382,-3 L-11.5498654,24 L-12.57758,24 L-16.2904528,-3 L-15.2627382,-3 Z M-19.2666859,-3 L-15.553813,24 L-17.9161769,24 L-21.6290497,-3 L-19.2666859,-3 Z M-24.6052827,-3 L-20.8924099,24 L-22.8098906,24 L-26.5227635,-3 L-24.6052827,-3 Z M-29.4989965,-3 L-25.7861237,24 L-31.1088608,24 L-31.1088608,-3 L-29.4989965,-3 Z" id="Combined-Shape" fill="#FF0B0B" opacity="0.80321558" mask="url(#mask-5)"></path>
                        <path d="M7.52888111,12.9946604 C10.3715371,12.8667169 12.6379747,10.4556178 12.6379747,7.5 C12.6379747,4.46243388 10.2441149,2 7.29113924,2 C4.4178298,2 2.07387523,4.33136159 1.94949473,7.25544782 C1.9460456,7.17074066 1.9443038,7.08557957 1.9443038,7 C1.9443038,3.6862915 4.55578718,1 7.77721519,1 C10.9986432,1 13.6101266,3.6862915 13.6101266,7 C13.6101266,10.3137085 10.9986432,13 7.77721519,13 C7.69401885,13 7.61122933,12.9982083 7.52888111,12.9946604 Z" id="Combined-Shape" fill="#FFFFFF" opacity="0.520323822" mask="url(#mask-5)"></path>
                    </g>
                </g>
            </g>
        </g>
    </g>
</svg>