<?xml version="1.0" encoding="UTF-8"?>
<svg width="129px" height="82px" viewBox="0 0 129 82" version="1.1" xmlns="http://www.w3.org/2000/svg" xmlns:xlink="http://www.w3.org/1999/xlink">
    <!-- Generator: Sketch 49.3 (51167) - http://www.bohemiancoding.com/sketch -->
    <title>sports-svgrepo-com</title>
    <desc>Created with Sketch.</desc>
    <defs></defs>
    <g id="Page-1" stroke="none" stroke-width="1" fill="none" fill-rule="evenodd">
        <g id="Order-Monitor" transform="translate(-306.000000, -762.000000)" fill="#8A8A8A" fill-rule="nonzero">
            <g id="sports-svgrepo-com" transform="translate(306.000000, 762.000000)">
                <path d="M128.673469,52.7215898 C123.659854,44.627069 116.658832,37.8623931 108.426768,33.1588374 C99.9344355,28.306337 90.2546484,25.7417991 80.4345234,25.7417991 C79.7963262,25.7417991 79.1583809,25.7539786 78.5216953,25.7752927 C76.4770957,20.6419034 73.3697578,15.8954658 69.4637285,11.9706344 C61.7791582,4.25139324 51.5690098,0 40.7143652,0 C29.8609805,0 19.6500762,4.2511395 11.9619785,11.9706344 C4.24818164,19.7190555 0,30.0287158 0,40.9998731 C0,51.9712842 4.24818164,62.2806908 11.9622305,70.0293656 C19.6498242,77.7486068 29.8607285,81.9992388 40.7143652,81.9992388 C47.0036191,81.9992388 53.2487813,80.5189267 58.8451641,77.7148595 C65.6594883,80.5300913 73.0064414,82 80.4345234,82 C90.2546484,82 99.9341836,79.4349547 108.426768,74.5824543 C116.65858,69.8788985 123.659854,63.1142227 128.673469,55.0197019 C129.108844,54.3168455 129.108844,53.4249537 128.673469,52.7215898 Z M73.9847754,26.1186012 C69.4261875,26.6423181 64.9487285,27.7115733 60.661998,29.3111425 C62.2130215,24.6611257 64.6809023,20.3744627 67.9416797,16.6777425 C70.4196387,19.4947504 72.4687734,22.6971875 73.9847754,26.1186012 Z M42.870832,4.40896502 C51.0701426,4.88853132 58.7579883,8.0965507 64.8912832,13.5991299 C60.328916,18.7061303 57.1296152,24.8382353 55.5584355,31.5087741 C54.5040117,32.0258937 53.4642012,32.5749845 52.4422793,33.1588374 C49.5611953,34.8050946 46.8355664,36.7086429 44.2885723,38.8278692 L42.870832,38.8278692 L42.870832,4.40896502 Z M38.5578984,4.40871129 L38.5578984,38.8278692 L26.912373,38.8278692 C26.4281191,29.4166979 22.801002,20.5964842 16.538959,13.5955775 C22.6740176,8.09502827 30.3608555,4.88827758 38.5578984,4.40871129 Z M13.4845313,16.6734289 C18.9378047,22.8468934 22.1159414,30.5778065 22.591377,38.8278692 L4.3779375,38.8278692 C4.85312109,30.5775528 8.03176172,22.8466397 13.4845313,16.6734289 Z M4.3779375,43.1713696 L22.591377,43.1713696 C22.1161934,51.421686 18.9378047,59.1525991 13.4845313,65.3263174 C8.03150977,59.1528529 4.85312109,51.4214323 4.3779375,43.1713696 Z M38.5578984,77.5905275 C30.3608555,77.1109612 22.6737656,73.9044643 16.538959,68.403915 C22.801002,61.4035158 26.4281191,52.5827947 26.912373,43.1713696 L38.5578984,43.1713696 L38.5578984,44.3012684 C36.189791,46.9005684 34.0554961,49.7190988 32.1958301,52.7218435 C31.7602031,53.4252074 31.7602031,54.3170992 32.1958301,55.0204631 C34.0554961,58.0229541 36.189791,60.8414844 38.5578984,63.4405307 L38.5578984,77.5905275 Z M36.587877,53.8710264 C38.7196523,50.6198715 41.2074375,47.6201716 43.9827012,44.9219134 L43.9827012,62.8203932 C41.2074375,60.1216275 38.7194004,57.1219277 36.587877,53.8710264 Z M42.870832,77.5905275 L42.870832,67.6947151 C45.8136445,70.3105082 49.0194961,72.6271432 52.4422793,74.5832155 C52.8491836,74.8156402 53.261127,75.0381691 53.6735742,75.2601906 C50.2243359,76.5793785 46.5715195,77.3690135 42.870832,77.5905275 Z M112.573664,66.5873991 C110.586762,68.1397729 108.490512,69.5525905 106.29852,70.8055525 C98.453707,75.2881018 89.510127,77.6572608 80.4345234,77.6572608 C71.3589199,77.6572608 62.4153398,75.2881018 54.5705273,70.8055525 C52.3785352,69.5528442 50.2822852,68.1400267 48.2956348,66.5873991 L48.2956348,41.1551613 C50.2820332,39.6025337 52.3782832,38.1894624 54.5705273,36.9370078 C62.4153398,32.454966 71.3589199,30.0852996 80.4345234,30.0852996 C89.509875,30.0852996 98.453707,32.4544585 106.29852,36.9370078 C108.491016,38.1897162 110.587014,39.6027874 112.573664,41.155415 L112.573664,66.5873991 Z M116.886346,62.8198857 L116.886346,44.9216597 C119.661609,47.6201716 122.149143,50.6196177 124.28117,53.870519 C122.149395,57.1219277 119.661861,60.1216275 116.886346,62.8198857 Z" id="Shape"></path>
                <path d="M107.830511,51.2883108 L103.642352,51.2883108 L103.642352,48.2118184 C103.642352,46.9902662 102.671037,46 101.472863,46 C100.274689,46 99.3033746,46.9902662 99.3033746,48.2118184 L99.3033746,51.2883108 L93.1556033,51.2883108 L93.1556033,48.2118184 C93.1556033,46.9902662 92.1842889,46 90.9861148,46 C89.7879406,46 88.8166262,46.9902662 88.8166262,48.2118184 L88.8166262,51.2883108 L82.6693618,51.2883108 L82.6693618,48.2118184 C82.6693618,46.9902662 81.6980474,46 80.4998733,46 C79.3016991,46 78.3303847,46.9902662 78.3303847,48.2118184 L78.3303847,51.2883108 L72.1831203,51.2883108 L72.1831203,48.2118184 C72.1831203,46.9902662 71.2118059,46 70.0136318,46 C68.8154577,46 67.8441432,46.9902662 67.8441432,48.2118184 L67.8441432,51.2883108 L61.6963719,51.2883108 L61.6963719,48.2118184 C61.6963719,46.9902662 60.7250575,46 59.5268833,46 C58.3287092,46 57.3573948,46.9902662 57.3573948,48.2118184 L57.3573948,51.2883108 L53.1694885,51.2883108 C51.9713144,51.2883108 51,52.278577 51,53.5001292 C51,54.7216815 51.9713144,55.7119476 53.1694885,55.7119476 L57.3576483,55.7119476 L57.3576483,58.7881816 C57.3576483,60.0097338 58.3289627,61 59.5271368,61 C60.7253109,61 61.6966254,60.0097338 61.6966254,58.7881816 L61.6966254,55.7119476 L67.8443967,55.7119476 L67.8443967,58.7881816 C67.8443967,60.0097338 68.8157111,61 70.0138852,61 C71.2120594,61 72.1833738,60.0097338 72.1833738,58.7881816 L72.1833738,55.7119476 L78.3306382,55.7119476 L78.3306382,58.7881816 C78.3306382,60.0097338 79.3019526,61 80.5001267,61 C81.6983009,61 82.6696153,60.0097338 82.6696153,58.7881816 L82.6696153,55.7119476 L88.8168797,55.7119476 L88.8168797,58.7881816 C88.8168797,60.0097338 89.7881941,61 90.9863682,61 C92.1845423,61 93.1558568,60.0097338 93.1558568,58.7881816 L93.1558568,55.7119476 L99.3033746,55.7119476 L99.3033746,58.7881816 C99.3033746,60.0097338 100.274689,61 101.472863,61 C102.671037,61 103.642352,60.0097338 103.642352,58.7881816 L103.642352,55.7119476 L107.830511,55.7119476 C109.028686,55.7119476 110,54.7216815 110,53.5001292 C109.999747,52.278577 109.028939,51.2883108 107.830511,51.2883108 Z" id="Shape"></path>
            </g>
        </g>
    </g>
</svg>