<?xml version="1.0" encoding="UTF-8"?>
<svg width="20px" height="18px" viewBox="0 0 20 18" version="1.1" xmlns="http://www.w3.org/2000/svg" xmlns:xlink="http://www.w3.org/1999/xlink">
    <!-- Generator: Sketch 49.3 (51167) - http://www.bohemiancoding.com/sketch -->
    <title>TAXi</title>
    <desc>Created with Sketch.</desc>
    <defs></defs>
    <g id="Page-1" stroke="none" stroke-width="1" fill="none" fill-rule="evenodd">
        <g id="Order-Monitor" transform="translate(-532.000000, -319.000000)" fill="#8A8A8A" fill-rule="nonzero">
            <g id="Hotel" transform="translate(507.000000, 304.000000)">
                <g id="Group-5" transform="translate(25.000000, 13.000000)">
                    <path d="M19.1444053,8.2876652 C19.054185,8.2876652 18.9615859,8.30052863 18.869163,8.3260793 L17.8979736,8.59356828 L16.8713656,6.09303965 C16.5637885,5.34361233 15.6543612,4.7338326 14.844141,4.7338326 L14.1610573,4.7338326 L14.1610573,2.66079295 C14.1610573,2.29638767 13.8646696,2 13.5002643,2 L6.49709251,2 C6.13268722,2 5.83629956,2.29638767 5.83629956,2.66079295 L5.83629956,4.7338326 L5.13911894,4.7338326 C4.32898678,4.7338326 3.41947137,5.34352423 3.11189427,6.09295154 L2.08669604,8.59004405 L1.12819383,8.32599119 C1.03577093,8.30052863 0.9430837,8.28757709 0.852951542,8.28757709 C0.35876652,8.2876652 0,8.66528634 0,9.18546256 L0,9.7169163 C0,10.3242291 0.494096916,10.8182379 1.10132159,10.8182379 L1.17198238,10.8182379 L1.02537445,11.1752423 C0.739559471,11.8715419 0.506960352,13.0503965 0.506960352,13.8029956 L0.506960352,18.79163 C0.506960352,19.3989427 1.00096916,19.8929515 1.60828194,19.8929515 L2.9322467,19.8929515 C3.53955947,19.8929515 4.03356828,19.3989427 4.03356828,18.79163 L4.03356828,17.5655507 L15.9497797,17.5655507 L15.9497797,18.79163 C15.9497797,19.3989427 16.4438767,19.8929515 17.0511013,19.8929515 L18.3748018,19.8929515 C18.9821145,19.8929515 19.4761233,19.3989427 19.4761233,18.79163 L19.4761233,13.8029956 C19.4761233,13.0503965 19.2435242,11.8715419 18.9577093,11.1752423 L18.8111013,10.8182379 L18.8959471,10.8182379 C19.5032599,10.8182379 19.9972687,10.3242291 19.9972687,9.7169163 L19.9972687,9.18546256 C19.9972687,8.66528634 19.6385903,8.2876652 19.1444053,8.2876652 Z M12.6530396,2.88123348 C12.6530396,2.86669604 12.6649339,2.85480176 12.6794714,2.85480176 L13.1885463,2.85480176 C13.2030837,2.85480176 13.214978,2.86669604 13.214978,2.88123348 L13.214978,4.71356828 C13.214978,4.72237885 13.2099559,4.72898678 13.203348,4.7338326 L12.6646696,4.7338326 C12.6580617,4.72898678 12.6530396,4.72237885 12.6530396,4.71356828 L12.6530396,2.88123348 Z M9.00193833,2.85480176 L9.61365639,2.85480176 C9.62819383,2.85480176 9.64449339,2.86581498 9.64986784,2.87938326 L10.3759471,4.7045815 L11.0414978,3.88123348 C11.0506608,3.86995595 11.0515419,3.8507489 11.0435242,3.83867841 L10.4047577,2.87682819 C10.396652,2.8646696 10.4020264,2.85480176 10.4165639,2.85480176 L10.9822907,2.85480176 C10.9968282,2.85480176 11.014978,2.86493392 11.0225551,2.87726872 L11.3518062,3.41136564 C11.3593833,3.42378855 11.3718943,3.42378855 11.3794714,3.41136564 L11.7089868,2.87726872 C11.7165639,2.86484581 11.7347137,2.85480176 11.7492511,2.85480176 L12.3152423,2.85480176 C12.3297797,2.85480176 12.3350661,2.8646696 12.3270485,2.87682819 L11.6877533,3.83867841 C11.6796476,3.850837 11.6806167,3.86995595 11.6896916,3.88123348 L12.3674009,4.71947137 C12.3719824,4.72502203 12.3730396,4.73022026 12.3713656,4.7339207 L11.7706608,4.7339207 C11.7627313,4.72977974 11.7555947,4.72422907 11.7514537,4.71762115 L11.3795595,4.12246696 C11.3718062,4.11013216 11.3592952,4.11013216 11.3515419,4.12246696 L10.9804405,4.71762115 C10.9762996,4.72422907 10.969163,4.72977974 10.9612335,4.7339207 L9.82933921,4.7339207 C9.8215859,4.72933921 9.81488987,4.72299559 9.8123348,4.71497797 L9.68757709,4.33295154 C9.6830837,4.31911894 9.66748899,4.30784141 9.65295154,4.30784141 L8.95955947,4.30784141 C8.94502203,4.30784141 8.929163,4.31903084 8.92440529,4.33277533 L8.78995595,4.71515419 C8.78713656,4.7230837 8.78044053,4.72942731 8.77259912,4.7339207 L8.22819383,4.7339207 C8.22387665,4.72942731 8.22202643,4.72325991 8.22511013,4.71559471 L8.96555066,2.87947137 C8.97110132,2.86581498 8.98740088,2.85480176 9.00193833,2.85480176 Z M7.21162996,4.71356828 L7.21162996,3.25806167 C7.21162996,3.24352423 7.19973568,3.23162996 7.18519824,3.23162996 L6.57330396,3.23162996 C6.55876652,3.23162996 6.54687225,3.21973568 6.54687225,3.20519824 L6.54687225,2.88114537 C6.54687225,2.86660793 6.55876652,2.85471366 6.57330396,2.85471366 L8.41559471,2.85471366 C8.43013216,2.85471366 8.44202643,2.86660793 8.44202643,2.88114537 L8.44202643,3.20519824 C8.44202643,3.21973568 8.43013216,3.23162996 8.41559471,3.23162996 L7.80017621,3.23162996 C7.78563877,3.23162996 7.77374449,3.24352423 7.77374449,3.25806167 L7.77374449,4.71356828 C7.77374449,4.72237885 7.76872247,4.72898678 7.76211454,4.7338326 L7.22325991,4.7338326 C7.21665198,4.72907489 7.21162996,4.72237885 7.21162996,4.71356828 Z M2.86484581,10.2044053 L4.42475771,6.40449339 C4.60881057,5.95621145 5.15585903,5.58942731 5.64044053,5.58942731 L14.3428194,5.58942731 C14.8274009,5.58942731 15.3744493,5.95621145 15.5585022,6.40449339 L17.1184141,10.2044053 C17.302467,10.6526872 17.0565639,11.0194714 16.5719824,11.0194714 L3.41127753,11.0194714 C2.92669604,11.0194714 2.68079295,10.6526872 2.86484581,10.2044053 Z M6.38872247,15.0979736 C6.38872247,15.3402643 6.19048458,15.5385022 5.94819383,15.5385022 L2.9707489,15.5385022 C2.72845815,15.5385022 2.53022026,15.3402643 2.53022026,15.0979736 L2.53022026,13.6854626 C2.53022026,13.4431718 2.72845815,13.2449339 2.9707489,13.2449339 L5.94819383,13.2449339 C6.19048458,13.2449339 6.38872247,13.4431718 6.38872247,13.6854626 L6.38872247,15.0979736 Z M17.4244934,15.0979736 C17.4244934,15.3402643 17.2262555,15.5385022 16.9839648,15.5385022 L14.0065198,15.5385022 C13.7642291,15.5385022 13.5659912,15.3402643 13.5659912,15.0979736 L13.5659912,13.6854626 C13.5659912,13.4431718 13.7642291,13.2449339 14.0065198,13.2449339 L16.9839648,13.2449339 C17.2262555,13.2449339 17.4244934,13.4431718 17.4244934,13.6854626 L17.4244934,15.0979736 Z" id="TAXi"></path>
                </g>
            </g>
        </g>
    </g>
</svg>