<?xml version="1.0" standalone="no"?><!-- Generator: Gravit.io --><svg xmlns="http://www.w3.org/2000/svg" xmlns:xlink="http://www.w3.org/1999/xlink" style="isolation:isolate" viewBox="0 0 1000 700" width="1000" height="700"><defs><clipPath id="_clipPath_jWm2zcajTtLiDSalE8o33DBYcWayoY8d"><rect width="1000" height="700"/></clipPath></defs><g clip-path="url(#_clipPath_jWm2zcajTtLiDSalE8o33DBYcWayoY8d)"><path d=" M 809.472 540.443 L 809.472 700 C 906.235 614.363 967.281 489.255 967.281 350.002 C 967.281 210.749 906.235 85.641 809.472 0 L 809.472 159.562 C 843.653 214.954 863.382 280.193 863.382 350.002 C 863.382 419.812 843.653 485.051 809.472 540.443 Z  M 190.528 540.443 L 190.528 700 C 93.765 614.363 32.719 489.255 32.719 350.002 C 32.719 210.749 93.765 85.641 190.528 0 L 190.528 159.562 C 156.347 214.954 136.618 280.193 136.618 350.002 C 136.618 419.812 156.347 485.051 190.528 540.443 Z  M 551.237 298.763 L 551.237 203.834 L 448.763 203.834 L 448.763 298.763 L 353.832 298.763 L 353.832 401.237 L 448.763 401.237 L 448.763 496.171 L 551.237 496.171 L 551.237 401.237 L 646.168 401.237 L 646.168 298.763 L 551.237 298.763 Z  M 176.524 350.002 C 176.524 171.471 321.468 26.524 500 26.524 C 678.532 26.524 823.476 171.471 823.476 350.002 C 823.476 528.534 678.532 673.476 500 673.476 C 321.468 673.476 176.524 528.534 176.524 350.002 Z  M 303.25 350.002 C 303.25 241.412 391.412 153.253 500 153.253 C 608.588 153.253 696.75 241.412 696.75 350.002 C 696.75 458.593 608.588 546.752 500 546.752 C 391.412 546.752 303.25 458.593 303.25 350.002 Z " fill-rule="evenodd" fill="rgb(140,137,132)"/></g></svg>