<?xml version="1.0" encoding="UTF-8" standalone="no"?>
<!DOCTYPE svg PUBLIC "-//W3C//DTD SVG 1.1//EN" "http://www.w3.org/Graphics/SVG/1.1/DTD/svg11.dtd">
<svg version="1.1" xmlns="http://www.w3.org/2000/svg" xmlns:xlink="http://www.w3.org/1999/xlink" preserveAspectRatio="xMidYMid meet" viewBox="0 0 640 317.95" width="640" height="317.95"><defs><path d="M180.98 85.11C216.42 134.49 240.84 169.68 239.77 169.95C236.15 170.6 101.39 146.7 99.65 145C98.7 144.07 84.89 124.9 68.91 102.58C52.94 80.12 38.85 61.47 37.64 60.95C34.28 59.64 1.54 54.25 0.06 54.78C-0.62 55.04 4.62 83.67 11.6 118.21C12.45 122.4 16.7 143.37 24.36 181.11C36.51 186.78 43.27 189.93 44.62 190.56C111.19 221.82 190.78 252.55 234.67 264.1C241.65 265.94 312.65 278.81 392.37 292.73C402.04 294.41 450.35 302.82 537.32 317.95C551.02 317.86 558.62 317.82 560.14 317.81C580.41 317.68 584.43 317.29 596.38 314.27C613.56 309.67 627.52 303.23 634.5 296.41C639.2 291.81 640 290.23 640 285.37C640 267.51 603.22 238.76 566.85 228.11C561.75 226.67 528.2 220.36 492.36 214.2C456.53 208.15 426.19 202.38 424.85 201.72C423.51 200.93 369.55 157.72 305.12 105.85C297.29 99.56 258.15 68.09 187.69 11.44C169.01 8.21 158.63 6.42 156.55 6.06C139.37 3.16 124.2 0.54 123 0.28C121.65 0.01 120.58 -0.12 120.58 0.14C120.58 0.41 147.83 38.62 180.98 85.11Z" id="ePflTTkFS"></path></defs><g><g><g><use xlink:href="#ePflTTkFS" opacity="1" fill="#8d8a85" fill-opacity="1"></use><g><use xlink:href="#ePflTTkFS" opacity="1" fill-opacity="0" stroke="#000000" stroke-width="1" stroke-opacity="0"></use></g></g></g></g></svg>