<?xml version="1.0" encoding="UTF-8" standalone="no"?>
<!DOCTYPE svg PUBLIC "-//W3C//DTD SVG 1.1//EN" "http://www.w3.org/Graphics/SVG/1.1/DTD/svg11.dtd">
<svg version="1.1" xmlns="http://www.w3.org/2000/svg" xmlns:xlink="http://www.w3.org/1999/xlink" preserveAspectRatio="xMidYMid meet" viewBox="0 0 670 317.9" width="670" height="317.9"><defs><path d="M170.38 132.18C225.76 157.23 264.51 175.49 263.71 176.26C260.9 178.64 132.25 225.32 129.88 224.71C128.61 224.38 107.05 214.69 82.06 203.34C57 191.88 35.47 182.78 34.16 182.93C30.6 183.47 -0.45 195.18 -1.47 196.38C-1.92 196.94 16.93 219.12 40.24 245.54C43.08 248.74 57.24 264.78 82.74 293.64C96.1 292.47 103.53 291.82 105.01 291.69C178.29 285.47 262.58 272.29 306.37 260.35C313.33 258.45 381.26 234.1 457.26 206.29C466.47 202.92 512.52 186.04 595.4 155.65C607.22 148.74 613.78 144.89 615.09 144.13C632.58 133.88 635.87 131.53 644.71 122.94C657.29 110.37 666.16 97.81 668.79 88.41C670.56 82.08 670.46 80.31 668.03 76.11C659.1 60.64 612.88 54.12 576.06 63.09C570.92 64.39 538.71 75.71 504.59 88.28C470.53 100.97 441.37 111.13 439.88 111.23C438.32 111.22 369.99 100.78 288.26 88.07C278.33 86.54 228.7 78.86 139.35 65.03C121.56 71.57 111.67 75.21 109.7 75.93C93.37 82.02 78.93 87.33 77.75 87.71C76.45 88.15 75.46 88.57 75.59 88.8C75.72 89.03 118.42 108.5 170.38 132.18Z" id="h3KXOGQQF"></path></defs><g><g><g><use xlink:href="#h3KXOGQQF" opacity="1" fill="#8d8a85" fill-opacity="1"></use><g><use xlink:href="#h3KXOGQQF" opacity="1" fill-opacity="0" stroke="#000000" stroke-width="1" stroke-opacity="0"></use></g></g></g></g></svg>