<?xml version="1.0" standalone="no"?>
<!DOCTYPE svg PUBLIC "-//W3C//DTD SVG 1.1//EN" "http://www.w3.org/Graphics/SVG/1.1/DTD/svg11.dtd">
<svg xmlns="http://www.w3.org/2000/svg">
<metadata>Generated by Fontastic.me</metadata>
<defs>
<font id="iconography" horiz-adv-x="512">
<font-face font-family="iconography" units-per-em="512" ascent="480" descent="-32"/>
<missing-glyph horiz-adv-x="512" />

<glyph glyph-name="3dots" unicode="&#97;" d="M455 307c15 0 27-5 38-16 11-10 16-23 17-38 0-14-5-27-16-38-11-10-24-16-39-16-15 0-28 5-39 16-11 10-17 23-17 38 0 15 6 28 17 38 11 11 24 16 39 16z m-200 0c15 0 27-5 38-16 11-10 17-23 18-38 0-14-5-27-16-38-11-10-25-16-40-16-15 0-28 5-39 16-11 10-17 23-17 38 0 15 6 28 17 38 11 11 24 16 39 16z m-200 0c15 0 28-5 39-16 10-10 16-23 17-38 0-14-5-27-16-38-11-10-25-16-40-16-15 0-28 5-39 16-11 10-16 23-16 38 0 15 6 28 17 38 11 11 23 16 38 16z"/>
<glyph glyph-name="a-380-outbound" unicode="&#98;" d="M451 52c1-9 1-18-2-26-3-8-5-13-5-13l-11-11-7 18c-6 12-13 30-24 54-10 23-20 47-29 71-11 28-20 51-29 70-8 20-17 35-25 46l-28-11-56-59c-4-4-10-10-18-16-8-6-18-13-30-21l11-100c1-5 1-9 0-13-1-5-2-8-4-12-2-3-3-7-5-10l-9-17-50 114-20-11-16-16-2 3 14 18 9 21-108 48 16 14c8 5 20 6 37 5l99-9c12 19 22 35 32 46l60 59 11 25c-4 4-10 8-17 12-8 4-15 8-22 10-4 2-8 3-13 6-5 2-12 5-19 8l-32 15c-15 7-36 17-62 29-26 12-58 25-97 40l11 12c8 9 21 11 37 7l99-12 14 21c7 6 14 10 21 13l14-14c-6-12-13-21-22-27l77-10 13 17c7 7 15 12 22 14l16-16c-5-9-10-16-16-21l68-5c14-1 26 3 35 13l10 9c7 8 16 16 25 25 10 9 18 16 25 21 28 19 46 24 53 16 8-8 2-26-18-54-9-13-27-33-54-61-14-13-18-23-14-31l5-64c7 7 14 13 21 16l16-16-1-3c-1-2-3-6-5-9-3-4-5-8-8-10-6-5-12-10-18-13l-1 0 8-77c11 10 20 17 27 20l16-12-1-3c-2-2-3-5-5-9-2-4-4-7-7-9-7-7-13-11-21-14l-4-2 0-2z"/>
<glyph glyph-name="add-contact" unicode="&#99;" d="M164 271c0-29-24-53-54-53-29 0-53 24-53 53 0 30 24 54 53 54 30 0 54-24 54-54z m84-85c34 0 62 28 62 62 0 34-28 62-62 62-34 0-62-28-62-62 0-34 28-62 62-62z m244-42c0 33-23 59-51 59l-96 0c-21 0-38-14-46-34l-94 0c-8 20-26 34-47 34l-95 0c-29 0-52-26-52-59l0-46 122 0 0-52 231 0 0 52 128 0z m-46 127c0-29-24-53-53-53-29 0-53 24-53 53 0 30 24 54 53 54 29 0 53-24 53-54z m-319 148c0 3-2 5-5 5l-37 0 0 37c0 3-2 5-5 5l-22 0c-2 0-4-2-4-5l0-37-38 0c-2 0-4-2-4-5l0-22c0-2 2-4 4-4l38 0 0-38c0-2 2-4 4-4l22 0c3 0 5 2 5 4l0 38 37 0c3 0 5 2 5 4z"/>
<glyph glyph-name="add-customer" unicode="&#100;" d="M395 193l-177 0c-52 0-95-42-95-94l0-75 367 0 0 75c0 52-43 94-95 94z m-86 24c47 0 85 39 85 86 0 47-38 85-85 85-47 0-85-38-85-85 0-47 38-86 85-86z m-143 152c3 0 6 2 6 5l0 29c0 4-3 6-6 6l-49 0 0 49c0 3-3 6-6 6l-29 0c-3 0-5-2-5-6l0-49-49 0c-4 0-6-2-6-6l0-29c0-3 2-5 6-5l49 0 0-50c0-3 2-5 5-5l29 0c3 0 6 2 6 5l0 50z"/>
<glyph glyph-name="adult-female-customer" unicode="&#101;" d="M198 270l61 0c0 0 0 0 0 0 0 0 0 0 0 0l62 0c47 2 81 19 95 29 14 10-12 20-33 36-9 7-15 14-18 21 1 7 2 15 2 22 0 60-48 109-108 109-60 0-108-49-108-109 0-9 1-18 4-26-4-6-8-11-15-17-21-16-52-29-38-40 15-10 72-23 96-25z m170-30l-224 0c-66 0-120-54-120-120l0-95 464 0 0 95c0 66-54 120-120 120z"/>
<glyph glyph-name="adult-male-customer" unicode="&#102;" d="M484 29l0 94c0 65-53 117-118 117l-220 0c-65 0-118-52-118-117l0-94z m-225 241c59 0 106 48 106 106 0 59-47 107-106 107-59 0-106-48-106-107 0-58 47-106 106-106z"/>
<glyph glyph-name="adventure" unicode="&#103;" d="M407 317c0 0 0 0-1 0l3 27-12 1-3-25c-15 4-30 8-44 10-31 19-38 72-83 74-8 0-16-1-24-2 3 10-2 22-12 26l-26 10c-11 5-23-1-28-12l-40-98c-4-11 1-23 12-28l26-10c5-2 11-2 16 0-3-7-5-14-6-22-1-8 4-18 2-27-2-12-16-30-24-45-19-33-32-58-50-90-11-21-42-72 4-68 16 1 25 24 33 39 29 50 52 97 80 140 13-22 37-34 52-56l-2-126c28-43 52 1 52 1 0 0 0 43 1 92 2 50-12 64-12 64-16 23-45 38-56 57 14 24 20 54 35 76 4-13 12-24 25-27 20-6 42-8 65-10l-31-268 13-2 31 269c4 0 12 0 15 8 4 13-2 20-11 22z m-59 135c0-24-20-44-44-44-24 0-44 20-44 44 0 24 20 44 44 44 24 0 44-20 44-44z"/>
<glyph glyph-name="advertising" unicode="&#104;" d="M70 154l384 0c17 0 31 14 31 32l0 236c0 17-14 32-31 32l-384 0c-17 0-32-15-32-32l0-236c0-18 15-32 32-32z m-1 241c0 13 12 24 28 24l330 0c15 0 28-11 28-24l0-182c0-13-13-24-28-24l-330 0c-16 0-28 11-28 24z m429-263l-213 0 0-29-49 0 0 29-213 0c0 0-17-62 65-62l345 0c82 0 65 62 65 62z m-91-39c0-1-1-3-3-3l-35 0c-1 0-3 2-3 3l0 19c0 1 2 3 3 3l35 0c2 0 3-2 3-3z m52 0c0-1-1-3-3-3l-35 0c-1 0-3 2-3 3l0 19c0 1 2 3 3 3l35 0c2 0 3-2 3-3z m-93 225c-1-1-2-3-2-5-1-2-1-4-1-5 0-2 0-3 1-4 1-1 2-1 3-1 1 0 2 1 3 2 2 2 2 5 2 8 0 2 0 3-1 4-1 1-2 2-3 2-1 0-2-1-2-1l0 0z m-28 9c1 0 2 1 3 1 1 1 2 2 2 4 1 2 1 4 1 6 0 2 0 3-1 4-1 1-2 1-3 1-2 0-3-1-4-3-1-3-1-5-1-8 0-2 0-3 1-4 1 0 1-1 2-1z m-89-54l20 0-25-39 61 39 86 0c6 0 11 5 11 12l0 87c0 6-5 11-11 11l-142 0c-6 0-11-5-11-11l0-87c0-7 5-12 11-12z m130 40c0-3-1-5-2-8-1-2-2-4-4-5-2-1-5-2-7-2-3 0-5 1-7 3-2 2-3 4-3 8 0 2 1 5 2 7 1 3 3 4 5 6 1 1 3 1 6 1 3 0 5-1 7-2 2-2 3-5 3-8z m-49 28c1 2 3 4 5 5 1 1 3 2 6 2 2 0 4-1 6-2 2-2 4-2 7-2 1 0 3 0 5 1 2 0 3 1 4 1 1 1 2 2 4 4l4 0-31-54-5 0 28 47c-4-2-7-3-9-3-1 0-3 1-4 1 1-1 1-2 1-3 0-5-1-8-4-11-2-3-5-5-9-5-3 0-5 1-7 3-2 2-3 5-3 8 0 3 1 5 2 8z m-16-13c-2 1-3 2-5 2-1 0-2-1-3-1-1-1-2-2-3-3l-7 1 2 23 23 0 0-7-17 0-1-10c2 1 3 2 5 2 1 0 3 1 4 1 4 0 7-2 9-5 2-2 3-5 3-9 0-5-2-8-4-11-3-3-7-4-11-4-3 0-6 0-8 2-2 1-4 3-6 5l7 4c2-3 4-4 6-4 2 0 4 0 6 2 1 1 2 3 2 6 0 2-1 4-2 5l0 1z m-54 22l28 0 0-7-16-35-9 0 17 35-20 0z m-133-113l52 0 38-24-15 24 12 0c4 0 7 3 7 7l0 54c0 4-3 7-7 7l-87 0c-4 0-8-3-8-7l0-54c0-4 4-7 8-7z"/>
<glyph glyph-name="advertising-outdoor" unicode="&#105;" d="M391 276l-67 0 0 34-29 0 0-239 29 0 0 44 67 0 0-44 29 0 0 239-29 0z m0-25l0-21-67 0 0 21z m0-46l0-20-67 0 0 20z m-67-65l0 20 67 0 0-20z m-302 302l0-265 178 0 0-72-65 0 0-35 149 0 0 141-228 0 0 197 38 0 0-32 60 0 0 32 73 0 0-32 60 0 0 32 73 0 0-32 60 0 0 32 36 0 0-201-20 0 0-34 54 0 0 269z"/>
<glyph glyph-name="air-conditioning" unicode="&#106;" d="M270 71c0 5 3 6 6 3l30-30c4-4 10-4 14-2l10 6c4 2 5 7 2 10l-56 56c-3 3-6 10-6 15l0 94c0 5 4 7 8 4l81-47c4-2 9-8 10-13l20-75c2-5 6-7 10-4l10 5c4 3 7 9 6 13l-11 41c-2 5 1 7 5 4l43-24c4-3 10-3 14-1 4 3 7 8 7 13 0 4-3 10-7 12l-43 25c-4 2-4 5 1 6l41 12c5 1 8 6 8 11l0 11c0 5-3 8-8 7l-76-21c-4-1-12 0-16 3l-81 47c-4 2-4 6 0 8l81 47c4 3 12 4 16 3l76-21c5-1 8 2 8 7l0 11c0 5-3 10-8 11l-41 11c-5 2-5 5-1 7l43 25c4 2 7 8 7 12 0 5-3 10-7 13-4 2-10 2-14-1l-43-24c-4-3-7-1-5 4l11 41c1 4-2 10-6 12l-10 6c-4 3-8 1-10-4l-20-75c-1-5-6-11-10-13l-81-47c-5-3-8-1-8 4l0 94c0 5 3 12 6 15l56 56c3 3 2 8-2 10l-10 6c-4 2-10 2-14-2l-30-30c-3-3-6-2-6 3l0 49c0 5-3 11-7 13-4 2-10 2-14 0-4-2-7-8-7-13l0-49c0-5-3-6-6-3l-30 30c-4 4-10 4-14 2l-10-6c-4-2-5-7-2-10l56-56c3-3 6-10 6-15l0-94c0-5-4-7-8-4l-81 47c-4 2-9 8-10 13l-20 75c-2 5-6 7-10 4l-10-5c-4-3-7-9-6-13l11-41c2-5-1-7-5-4l-43 24c-4 3-10 3-14 1-4-3-7-8-7-13 0-4 3-10 7-12l43-25c4-2 4-5-1-7l-41-10c-5-2-8-7-8-12l0-11c0-5 3-8 8-7l76 21c4 1 12 0 16-3l81-47c4-2 4-6 0-8l-81-47c-4-3-12-4-16-3l-76 21c-5 1-8-2-8-7l0-11c0-5 3-10 8-11l41-11c5-2 5-5 1-7l-43-25c-4-2-7-8-7-12 0-5 3-10 7-13 4-2 10-2 14 1l43 24c4 3 7 1 5-4l-11-41c-1-4 2-10 6-12l10-6c4-3 8-1 10 4l20 75c1 5 6 11 10 13l81 47c4 3 8 1 8-4l0-94c0-5-3-12-6-15l-56-56c-3-3-2-8 2-10l10-6c4-2 10-2 14 2l30 30c3 3 6 2 6-3l0-49c0-5 3-11 7-13 4-2 10-2 14 0 4 2 7 8 7 13l0 49z"/>
<glyph glyph-name="airbus-a-330-200" unicode="&#107;" d="M280 424l0-96 38-24 0 25 20 0 0-37 129-78c0 0 8-8 10-11 2-4 6-15 6-15 0 0 0-5-7-1l-148 55-45 0 0-79c0 0-3-24-7-52l-4-29 44-29c0 0 15-10 14-27l-64 21-4-20-5 0-5 21-62-23c0 0-3 18 11 28l46 30-3 26c0 0-6 33-6 53l0 82-49 0-148-58c0 0-10-2-6 4 4 7 8 13 8 13 0 0 6 8 13 12 17 10 125 77 125 77l0 37 20 0 0-25 37 23 0 97c0 0 8 58 21 58 13 0 21-58 21-58z"/>
<glyph glyph-name="airbus-a-340-340" unicode="&#108;" d="M280 415l0-94 38-24 0 25 16 0 0-35 58-35 0 23 17 0 0-34 53-32c0 0 9-7 10-11 2-3 7-14 7-14 0 0 0-5-7-1l-145 54-44 0 0-50c0 0-3-23-7-51l-4-28 43-28c0 0 14-10 14-27l-63 21-5-19-4 0-5 19-61-22c0 0-2 18 12 27l45 30-4 25c0 0-6 32-6 52l0 52-47 0-145-56c0 0-11-2-7 4 4 6 9 12 9 12 0 0 5 9 12 13 7 4 50 29 50 29l0 35 16 0 0-23 59 36 0 34 14 0 0-24 39 22 0 95c0 0 8 57 21 57 13 0 21-57 21-57z"/>
<glyph glyph-name="airbus-a-340-500" unicode="&#109;" d="M280 420l0-93 38-24 0 24 16 0 0-34 57-35 0 23 18 0 0-34 53-32c0 0 8-7 10-11 2-3 6-14 6-14 0 0 0-5-7-1l-145 54-43 0 0-78c0 0-3-23-7-51l-4-27 43-29c0 0 14-9 14-27l-63 21-5-19-4 0-5 19-61-21c0 0-2 17 12 27l45 29-4 25c0 0-6 32-6 52l0 80-47 0-145-57c0 0-10-1-6 5 4 6 8 12 8 12 0 0 6 9 12 13 7 3 50 29 50 29l0 35 16 0 0-24 59 36 0 34 14 0 0-24 39 23 0 94c0 0 8 57 21 57 13 0 21-57 21-57z"/>
<glyph glyph-name="airbus-a-380" unicode="&#110;" d="M489 207l-63 47 1 3c0 0 4 11 4 20 0 10-4 19-4 19l-17 0c-4-12-3-24-3-27l-50 38 1 1c0 0 3 7 3 17 0 11-5 20-5 20l-17 0c-4-9-4-19-4-21l-40 33c0 0-10 5-10 27 0 22 2 39-4 65-5 27-13 41-20 41-8 0-18-17-22-39-4-21-2-66-2-66 0 0 1-14-11-26l-41-35c0 0 0 11-4 21l-17 0c0 0-5-9-5-20 0-10 4-17 4-17l-50-40c0 0 2 13-3 28l-16 0c0 0-5-9-5-19 0-9 4-20 4-20l-64-50c0 0-16-11-16-26l1-12c0 0 91 38 129 52 38 14 69 29 88 29l6-20 0-67c0 0 2-20 7-45l-61-51c0 0-14-12-19-24l-1-17 87 34 7-16 2-18 2-1 1 18 6 18 92-36-4 14c0 0-4 17-14 25l-63 52c0 0 7 33 7 48l0 66 8 20c0 0 33-5 96-33 63-29 114-47 114-47l0 12c0-1-3 14-15 25z"/>
<glyph glyph-name="airplane" unicode="&#111;" d="M490 203c11-8 17-18 17-29l0-12-118 49c-22 9-41 17-57 24-16 7-30 11-41 12l-8-22 0-68c0-11-3-28-7-49l64-52c7-6 12-14 15-25l4-16-95 38-7-19-1-19-2 2-2 19-6 17-92-36 2 17c2 8 9 16 20 25l63 53-9 45 2 69-7 22c-6 0-12-1-20-4-8-3-20-7-35-13l-34-13c-14-5-31-12-53-21-22-9-49-20-81-33l-1 13c-1 9 5 18 17 26l65 52 71 52 66 53c8 9 12 18 12 27l0 12c0 8 0 17 0 28 0 11 0 20 2 27 6 27 13 41 22 41 9 0 16-15 22-44 2-11 3-34 3-68 0-14 3-23 10-27l64-50z"/>
<glyph glyph-name="airplane-seat" unicode="&#112;" d="M85 473c0-31-2-46-2-70 0-25 66-296 66-296l107 0 0-62-80 0c-23 0-30-31-1-31 28 0 170 1 199 1 28 0 25 31-2 31l-80 0 0 63 114 0c0 0 16 12 21 42 5 31-2 40-2 40 0 0-79 7-149 3-71-4-75-6-75-6l-14 49 160 0c21 0 36 39-2 39l-172 0c0 0-32 90-34 130-1 40-1 73-1 73 0 0-3 21-31 19-20-2-22-25-22-25z"/>
<glyph glyph-name="airport-control" unicode="&#113;" d="M359 11l0 41-38 0-18 225 91 0 0 36-266 0 0-34 129 0-43-18-18-187 41-18-71 0 0-43z m-272 447l45 43 255 0 40-43z m-3-20l91 0 14-107-57 0z m344 0l-91 0-21-107 64 0z m-230-1l14-106 86 0 16 105z"/>
<glyph glyph-name="airport-security" unicode="&#114;" d="M408 353c0-18-15-33-33-33-19 0-34 15-34 33 0 19 15 34 34 34 18 0 33-15 33-34z m-351-36l-4-4c-6-6-36-38-38-67-2-25 4-62 5-64 1-9 9-15 17-15 1 0 2 1 3 1 10 1 16 11 15 20 0 1-6 35-5 56 1 6 6 16 13 25l14-62c0 0-26-123-32-157-6-35 33-30 39-13 7 17 26 139 26 139 0 0 22-106 23-134 2-29 44-27 43 8-1 29-20 127-27 159l-92 108z m90 77l11 21-81-9-2-25 80 0z m-39-61c18 0 33 15 33 34 0 2 0 5-1 8l-65 0c-1-3-1-6-1-8 0-19 15-34 34-34z m306-24l-77 0c-19 0-38-36-38-62 0-25 2-61 2-77 0-15 25-19 25 4 0 23-1 60-1 73 0 14 8 24 8 24l0-229c0-25 38-21 38 2 0 11-1 76 1 139 3 0 7 0 7 0 0-2 0-129 0-141 0-23 38-25 38 0l0 229c0 0 10-10 10-24 0-13-2-50-2-73 0-23 25-19 25-4 0 16 2 52 2 77 0 26-19 62-38 62z m-171 181l0-204-86 32-83 0 77-89 15 48 77-29 0-225 20 0 0 217c9-2 18 3 21 11 3 10-1 20-11 23l-10 4 0 152 222 0 0-407 19 0 0 467-261 0z m104-46l-24 0 0 24 24 0z m33 0l-24 0 0 24 24 0z m32 0l-24 0 0 24 24 0z"/>
<glyph glyph-name="airport-spa" unicode="&#115;" d="M105 305l7 3c4 1 6 5 5 9-1 4-6 7-10 5l-6-2c-4-1-7-5-5-10 1-4 5-6 9-5z m-24 1c-1 4-6 6-10 5l-6-3c-5-1-7-5-5-9 1-4 5-7 9-5l7 2c4 1 6 6 5 10z m-46-7l-6-2c-4-1-6-6-5-10 1-4 6-6 10-5l6 2c4 1 6 6 5 10-1 4-6 6-10 5z m107 18l6 2c4 2 7 6 5 10-1 4-5 6-10 5l-6-2c-4-1-6-6-5-10 1-4 6-6 10-5l0 0z m-22-65c-2 4-7 5-11 2l-5-4c-4-2-5-7-3-10 3-4 8-5 11-3l6 4c4 3 5 8 2 11z m-42-19l-5-3c-4-2-5-7-2-11 2-3 7-4 11-2l4 3c4 3 5 7 3 11-3 4-8 4-11 2z m74 40c-3 4-7 5-11 2l-6-4c-3-2-4-7-2-10 2-4 7-5 11-2l6 3c3 3 4 8 2 11z m23 7l6 3c4 3 5 8 2 11-2 4-7 5-10 2l-6-4c-4-2-5-7-2-10 2-4 7-5 10-2z m78-80l5 5c3 4 3 8 0 11-4 3-9 3-11 0l-5-5c-3-4-3-9 0-11 4-3 9-3 11 0z m-57-41l-5-5c-3-3-2-8 1-11 3-3 8-2 11 1l4 5c3 3 3 8 0 11-3 3-8 2-11-1z m36 29c-3 3-8 3-11-1l-4-5c-3-3-3-8 0-11 3-3 8-2 11 1l5 5c3 3 2 8-1 11z m-62-57l-4-5c-3-3-3-8 0-11 3-3 8-3 11 0l5 6c3 3 2 8-1 11-3 2-8 2-11-1z m102 15c-4 1-9 0-11-4l-2-7c-2-4 0-8 4-10 4-2 8 0 10 4l3 7c1 4-1 8-4 10z m-30-70c-4 2-9 0-10-4l-3-6c-2-4 0-9 4-10 4-2 9 0 10 4l3 6c2 4 0 8-4 10z m44 105c-4 1-8 0-10-4l-2-7c-2-4 0-8 4-10 4-2 8 0 10 4l3 7c1 4-1 8-5 10z m-29-70c-4 2-9 0-11-4l-2-7c-2-4 0-8 4-10 4-2 8 0 10 4l3 7c1 4 0 8-4 10z m-35 132c3 2 4 7 1 11-3 3-8 3-11 0l-5-4c-4-3-4-8-1-11 2-3 7-4 11-1z m-28-14c-3 3-8 4-11 1l-5-5c-4-2-4-7-1-11 3-3 7-3 11-1l5 5c3 3 4 8 1 11z m-29-25c-3 4-8 4-11 1l-5-4c-4-3-4-8-1-11 3-3 8-4 11-1l5 4c3 3 4 8 1 11z m-40-23l-5-5c-3-3-4-8-1-11 3-3 8-4 11-1l5 5c3 3 4 7 1 11-3 3-8 3-11 1z m258 194c-43 0-80-16-111-43l-43 47c-13 13-28 14-38 5-10-10-10-25 2-39l118-126c12-13 27-13 37-3 10 9 11 23-2 37l-51 54c24 22 59 36 91 36 34 0 67-16 90-40l26 20c-33 33-72 52-119 52z"/>
<glyph glyph-name="aquarium" unicode="&#116;" d="M497 311c-68-9-116-38-128-42-8-2-15 0-23 2 2 2 7 2 9 2-6 6-8 10-9 13-1 2-3 3-6 2-8-4-17-8-24-9-7-2-57 12-84 15 4 3 11 4 15 5-14 5-24 17-21 34 2 8 9 19 3 22-7 4-26-8-46-36-6-7-12-16-21-19-4-1-4-1-8-1-64-6-148-30-148-42 0-4 14-9 28-16 7 2 19 4 27 2-9-3-16-3-19-5 23-10 50-13 72-16 13-24 40-58 51-64 7-4 9-2 10 5 0 10-6 17-7 28 0 2 3 11 3 16 0 5-1 9-3 13l2 0c24 0 63 5 79 8 2 0 27-23 28-24 3-2 5-2 7 0 2 2 3 7 5 11 3 5 4 6 8 11 1 1 3 4 1 5-3 3-7 5-9 6 9 1 19 4 29 5 2 0 17-15 21-20 2-3 9-1 9 4-1 3-2 5-1 8 2 5 9 6 11 7-5 1-10 3-15 5 6 0 19 3 27 0 15-6 19-14 39-27 4-3 10-6 16-6 2 0 8 1 3 6-8 10-21 26-22 28 0 3 5 7 6 7 10 8 45 26 57 32 2 1 5 7 5 7 0 0 5-8 6-7 5 7 14 13 24 17 3 2 4 9-7 8z m-458-61c-3 0-5 3-5 6 0 3 2 5 5 5 3 0 6-2 6-5 0-3-3-6-6-6z"/>
<glyph glyph-name="arrow" unicode="&#117;" d="M468 294l-187 0 0 140c0 6-4 8-9 4l-237-183c-5-4-5-10 0-14l237-183c5-4 9-2 9 4l0 141 187 0c7 0 13 5 13 12l0 66c0 7-6 13-13 13z"/>
<glyph glyph-name="arrow-left" unicode="&#118;" d="M298 351c12-14 16-24 11-29l-61-65 61-65c6-5 3-15-11-29-12-13-22-17-29-11l-61 65-40 40 40 40 61 65c7 6 17 2 29-11z m98-242c38 41 58 89 58 146 0 57-20 106-58 145-39 41-86 61-141 61-56 0-103-20-141-61-39-39-58-88-58-145 0-57 19-105 58-146 38-40 85-60 141-60 54 0 101 20 141 60z m-387 146c0 71 24 132 72 182 48 50 106 75 174 75 68 0 126-25 174-75 48-49 72-109 72-180 0-71-24-132-72-182-48-50-106-75-174-75-68 0-126 25-174 74-48 50-72 110-72 181z"/>
<glyph glyph-name="arrow-right" unicode="&#119;" d="M302 295l40-40-40-40-61-65c-8-6-17-2-29 11-15 14-19 24-11 29l61 65-61 65c-8 5-4 14 11 29 12 13 21 17 29 11z m94-186c38 41 58 89 58 146 0 57-20 106-58 145-39 41-86 61-141 61-56 0-103-20-141-61-39-39-58-88-58-145 0-57 19-105 58-146 38-40 85-60 141-60 54 0 101 20 141 60z m-387 146c0 71 24 132 72 182 48 50 106 75 174 75 68 0 126-25 174-75 48-49 72-109 72-180 0-71-24-132-72-182-48-50-106-75-174-75-68 0-126 25-174 74-48 50-72 110-72 181z"/>
<glyph glyph-name="attention" unicode="&#120;" d="M253 497c0 0 0 0 0 0 3 0 7-1 112-40 116-43 116-43 116-58 0-151-37-262-111-328-56-51-113-55-116-56l-1 0 0 0 0 0-1 0c-9 1-222 19-222 384 0 15 0 15 161 75m-125-86c3-308 172-335 187-337 19 2 189 29 192 337-34 14-160 61-191 72-8-4-23-9-51-19-41-16-113-43-137-53z m167-244c6 6 14 9 23 9 8 0 16-3 22-9 6-7 10-14 10-23 0-9-4-16-10-22-6-6-14-10-22-10-9 0-17 4-23 10-6 6-9 13-9 22 0 9 3 16 9 23z m-6 237c0 4-1 8-1 10 0 9 3 16 8 22 6 5 13 8 22 8 8 0 15-3 21-8 5-6 8-13 8-22 0-2 0-6-1-10-1-5-1-11-2-18l-22-179-9 0-22 179c0 7-1 13-2 18z"/>
<glyph glyph-name="award" unicode="&#121;" d="M335 164c0 1 2 3 4 6 2 3 3 6 5 7 0 1-2 3-4 4-2 2-4 3-5 3l-50 0-16 50c0 1-1 3-4 4-2 2-4 3-5 3-5 0-8-2-9-7l-17-50-49 0c-5 0-8-2-9-7 0-4 1-8 3-13l40-32-16-49c-1-4 0-9 3-13 5-3 9-3 13 0l39 32 39-32c1-1 3-2 5-2 3 0 5 1 5 2 5 4 6 9 4 13l-16 49z m42 36c13-10 15-20 7-32l-11-21 11-22c7-13 4-23-7-31l-20-11 0-26c0-6-2-11-6-16-5-4-10-7-15-7l-23 0-11-21c-4-7-9-11-17-11-3 0-7 1-11 4l-20 13-20-13c-13-6-22-3-28 9l-11 21-22 0c-6 0-11 3-16 7-4 5-6 10-6 16l0 26-20 11c-10 7-13 17-7 31l11 21-11 21c-7 13-5 23 7 31l20 12 0 25c0 7 2 12 7 17 4 4 9 7 15 7l22 0 11 20c7 13 17 16 28 9l20-12 20 12c5 3 10 4 16 2 5-2 9-6 12-11l11-20 23 0c6 0 12-3 15-7 4-5 6-10 6-17l0-25z m66 259c3-6 2-12-2-19l-96-160c-2 1-5 1-9 1l-10 0-6 9c-7 16-19 24-35 24-6 0-13-2-22-5l-9-6-9 6c-5 3-11 5-17 5l94 183c4 11 12 15 25 10l83-33c7-2 11-7 13-15z m-269-178c-3 0-6-1-8-3l-95 162c-4 8-5 15-2 19 2 9 7 14 13 15l84 33c4 2 9 3 14 1 5-2 8-5 10-9l53-107-44-89c-3-3-6-7-9-13l-5-9z"/>
<glyph glyph-name="baggagerestriction" unicode="&#122;" d="M432 405l-27 26c-3 4-9 4-12 0l-26-26-24 0 0 46c0 16-12 29-28 29l-117 0c-16 0-29-13-29-29l0-46-24 0-26 26c-3 4-9 4-12 0l-26-26-1 0 0 0c-30-3-54-29-54-60l0-197c0-33 27-60 60-60l4 0 17-17c3-3 9-3 12 0l17 17 240 0 17-17c3-3 9-3 12 0l17 17 4 0c33 0 60 27 60 60l0 197c0 31-24 57-54 60z m-133-154l65 65 0-130z m-99 198l112 0 0-43-112 0z m135-75l-79-80-79 80z m-122-123l-65-65 0 130z m-155-103l0 197c0 16 12 29 28 29l4 0 26-26 0-194-35-34c-13 2-23 14-23 28z m109-29l89 89 89-89z m287 29c0-14-10-26-23-28l-35 34 0 194 26 26 4 0c16 0 28-13 28-29l0-197z"/>
<glyph glyph-name="balcony" unicode="&#65;" d="M368 254c3-4 7-7 12-7 5 0 9 3 12 7l95 0 0 11-93 0c-1 7-5 27-20 56-28 53-80 70-80 70l-76 0c0 0-52-17-79-70-16-29-19-49-20-56l-94 0 0-11 94 0c2-5 7-9 13-9 6 0 11 4 12 9l62 0 0-166-181 0 0-27 181 0 0-5c-1-2-1-3-1-4 0-13 11-24 24-24 13 0 23 11 23 24 0 1 0 3 0 5l0 5 9 0 0-7 0 0c0-1 0-2 0-3 0-13 10-23 23-23 13 0 23 10 23 23 0 1 0 2 0 4l0 6 180 0 0 26-180 0 0 166z m-116-166l0 143 9 0 0-143z m92 226c14-19 19-39 21-49l-58 0 0 84c0 0 19-9 37-35z m-197-49c2 10 7 30 21 49 19 26 38 35 38 35l0-84-59 0z m110 138c23 0 40 18 40 41 0 22-17 40-40 40-22 0-40-18-40-40 0-23 18-41 40-41z"/>
<glyph glyph-name="bar" unicode="&#66;" d="M363 67l-21 0-71 43 0 180 203 184-436 0 203-184 0-177-71-46-21 0c-10 0-18-7-18-15 0-8 8-14 18-14l214 0c10 0 18 6 18 14 0 8-8 15-18 15z m-152 263c-18 18-11 52 14 76 25 24 59 29 76 10 18-18 11-52-14-76-25-24-59-28-76-10z"/>
<glyph glyph-name="bassinet" unicode="&#67;" d="M438 421l-364 0c-33 0-60-26-60-60l0-210c0-34 27-60 60-60l364 0c33 0 60 26 60 60l0 210c0 34-27 60-60 60z m30-262c0-20-16-36-36-36l-352 0c-20 0-36 16-36 36l0 194c0 20 16 36 36 36l352 0c20 0 36-16 36-36l0-194z m-166 129l-31 72c-4 9-15 13-24 9-7-3-11-9-11-16 0-3 0-5 1-8l17-38-35 0 0 2c0 2-2 4-4 4l-21 0c-1 0-2 0-3-1l-1-1-13 19c-3 5-8 8-13 9-6 1-11 0-16-3l-43-31c-6-4-9-11-9-17 0-4 2-8 4-12 7-9 20-11 29-5l25 19 5-8-2-2c-1-1-1-2-1-4l0-40c0-2 0-3 1-4l2-2-5-8-25 19c-9 6-22 4-29-5-2-4-4-8-4-12 0-6 3-13 9-17l43-31c5-3 10-4 16-3 5 1 10 4 13 9l13 19 1-1c1-1 2-1 3-1l21 0c2 0 4 2 4 4l0 2 35 0-17-38c-1-3-1-5-1-8 0-7 4-13 11-16 9-4 20 0 24 9l31 72c1 2 1 3 1 4 1 3 2 7 2 10l0 36c0 3-1 7-2 10 0 1 0 2-1 4z m-92-80l-14 0-31 30 0 36 31 30 14 0z m155 99c-28 0-50-23-50-51 0-28 22-51 50-51 28 0 51 23 51 51 0 28-23 51-51 51z"/>
<glyph glyph-name="bath" unicode="&#68;" d="M489 329l-21 0c0 13 1 53-1 69-3 24-24 38-50 35-28-3-43-26-39-65l22 0c1 13-1 22 1 29 7 19 37 19 43 0 3-9 1-24 1-37 0-11 0-18 0-31l-422 0c-5 0-9-9-9-20 0-10 4-19 9-19l466 0c5 0 9 9 9 19 0 11-4 20-9 20z m-438-159c5-26 5-50 29-50l20 0c-4 0-13-11-16-17-12 0-19-1-20-9-4-26 90-17 51 7 4 11 9 19 17 19l215 0c8 0 13-8 17-19-39-24 55-33 51-7-1 8-9 9-20 9-4 6-12 17-16 17l8 0c27 0 34 28 46 49 14 27 29 56 43 81l-440 0c5-25 11-57 15-80z"/>
<glyph glyph-name="bathrobes" unicode="&#69;" d="M309 474c-1-2-2-4-2-6 0 3 1 7 2 10-8 25-76 28-96 5-1-23 9-50 20-53 10-2 27 23 14 25-8 1-19 17-10 23 8 6 41 7 44-4-4-41-54-115-54-157l29 0c26 0 33 0 58 0 3 9 9 38 15 55 2-13 12-66 13-111l38 0c0 83-7 193-71 213z m-114-157c3 0 8 0 13 0-2 48 12 71 15 100-10 15-27 23-24 52-78-10-66-143-66-212l33 0c1 1 6 101 24 117-3-17 2-39 5-57z m31-26l0-112-16 0 0 112-14 0-13-267c0-6 5-11 12-11l117 0c7 0 12 5 12 11l-13 267z"/>
<glyph glyph-name="beach" unicode="&#70;" d="M260 119l76 131c0 1-3 7-8 11-6 3-14 3-14 3l-83-145 29 0z m160 277l6 11c4 6 2 14-4 18-6 3-14 1-18-5l-6-12c-72 35-161 9-210-58 12 1 35-2 57-15 19-11 30-29 33-50 20 8 43 9 62-2 19-11 30-31 33-51 20 7 41 5 60-5 29-16 37-38 39-46 36 77 15 169-52 215z m-125-78l-2-3-2 3c-8 16-20 29-35 37-6 4-12 7-18 9l-5 1 4 3c27 21 60 33 93 33 19 0 38-4 56-13 0 0-48-15-91-70l0 0z m170-82l-1-4-3 3c-5 4-11 8-17 11-13 8-29 13-44 13l-4 0 2 3c18 46 12 113 12 113 44-36 63-86 55-139z m-343-118c-51 0-93 42-93 94 0 51 42 93 93 93 52 0 94-42 94-93 0-52-42-94-94-94z m23 148c10 0 18-5 19-13 3 1 15 3 25 0-11 17-28 30-48 35 1-4 3-11 4-22z m11-26c-3-2-7-3-11-3l0 0c-2 0-4 0-4 0 0 0-18-68-40-101 7-2 14-3 21-3 31 0 58 18 71 43-1 15-8 38-37 64z m-26 3c-3 2-4 5-4 9 0 3 2 6 4 9-1 1-23 18-46 19-24-14-40-39-40-68 0-9 1-18 4-26 7 13 27 35 82 57z"/>
<glyph glyph-name="beach-volleyball" unicode="&#71;" d="M494 75c-1 0-37 38-121 33 0 0-1 0-1 0-82-5-147-35-204-38 0 0-1 0-1 0-55-3-101 6-144 28-1 0-3 0-4-1-1-1-2-2-1-3 0 0 47-53 148-49 2 0 4 0 5 1 83 5 138 35 201 40 3 0 5 1 8 1 55 3 86-7 109-16 2 0 3 0 4 1 2 1 2 2 1 3z m-111 353c0-21-18-39-39-39-22 0-39 18-39 39 0 22 17 39 39 39 21 0 39-17 39-39z m72-106c0-13-11-23-23-23-13 0-23 10-23 23 0 12 10 23 23 23 12 0 23-11 23-23z m-351-136l92 0c10 0 11 4 11 14l0 55 118-114c7-7 21-7 28 0 0 0 19 16 4 27l-106 106 55 55 78-79c7-7 19-7 26 0l2 2c7 7 7 19 0 26l-121 120c-7 8-19 8-26 0l-1-1-87-82c-3-4-9-8-9-13l0-77-64 0c-10 0-27-12-27-23l0-2c0-10 17-14 27-14z"/>
<glyph glyph-name="big-arrow-down" unicode="&#72;" d="M268 127c-3-4-6-6-11-6-5 0-8 3-11 8l-241 237c-3 1-5 4-5 10 0 4 2 7 5 11 4 4 8 6 11 6l118 0c3 0 7-2 11-6l110-110 112 110c4 4 8 6 13 6l116 0c5 0 9-3 12-8 4-2 6-5 6-10 0-5-2-9-6-11z"/>
<glyph glyph-name="big-arrow-left" unicode="&#73;" d="M129 244c-10 7-10 15 0 24l237 239c2 3 5 5 11 5 4 0 8-1 12-4 4-3 6-7 6-12l0-118c0-3-2-7-6-11l-112-110 110-112c4-4 6-8 6-13l0-116c0-5-2-9-6-12-2-4-5-6-10-6-5 0-9 2-11 6z"/>
<glyph glyph-name="big-arrow-right" unicode="&#74;" d="M385 268c9-9 8-17-2-24l-237-240c-1-4-4-6-10-6-4 0-8 2-11 6-4 3-6 7-6 12l0 116c0 5 2 9 6 11l110 112-110 112c-4 4-6 8-6 13l0 116c0 3 2 7 6 11 4 3 7 5 11 5 5 0 9-2 12-5z"/>
<glyph glyph-name="big-arrow-up" unicode="&#75;" d="M244 384c9 9 17 9 24 0l242-239c4-1 6-5 6-10 0-5-2-8-6-11-3-4-7-6-12-6l-116 0c-5 0-9 2-13 6l-112 110-112-110c-4-4-8-6-13-6l-116 0c-4 0-8 3-11 8-3 1-5 5-5 10 0 4 2 8 5 11z"/>
<glyph glyph-name="boeing-777-200" unicode="&#76;" d="M57 171l0 15 126 91-2 9-3 0c0 0-4 19 1 32l22 0c0 0 4-14 2-26l31 22 0 44c0 0 3 83 19 83 16 0 22-80 21-83 0-4 0-44 0-44l32-21c0 0-2 19 4 27l19 0c0 0 7-14 3-33l-4 0-2-10 129-90 0-13-45 20-83 28-51 0 1-39c0-10-2-23-5-35-2-11 1-17 5-20 3-4 44-36 44-36 0 0 8-7 8-12l0-7-66 22-6-16-7 17-66-25 0 9c0 0-1 7 6 12 7 5 43 35 43 35 0 0 10 5 7 18-4 14-5 29-5 38l0 40-51 0-81-32-46-20z"/>
<glyph glyph-name="boeing-777-300" unicode="&#77;" d="M44 178l0 15 134 98-2 9-3 0c0 0-4 20 1 34l23 0c0 0 5-15 3-27l32 23 0 67c0 0 4 88 21 88 17 0 23-85 22-89 0-4 0-66 0-66l34-23c0 0-2 21 4 29l21 0c0 0 7-14 3-35l-4 0-2-11 137-95 0-14-49 21-87 30-55 0 1-86c0-10-2-24-5-37-2-11 2-17 5-21 4-4 48-38 48-38 0 0 8-8 8-12l0-9-71 24-6-17-7 18-71-27 0 10c0 0 0 8 7 13 7 6 46 37 46 37 0 0 11 5 7 20-4 14-5 30-5 39l0 87-54 0-87-34-49-21z"/>
<glyph glyph-name="boeing-777-er-300" unicode="&#78;" d="M37 175l0 16 139 101-2 9-3 0c0 0-5 21 1 35l23 0c0 0 6-15 3-28l34 24 0 69c0 0 3 91 21 91 17 0 24-88 23-92 0-3 0-68 0-68l35-23c0 0-2 22 4 30l21 0c0 0 8-15 4-36l-5 0-2-12 142-98 0-14-51 22-90 31-56 0 1-89c0-10-3-25-5-38-3-12 1-18 5-23 4-4 49-39 49-39 0 0 8-7 8-12l0-9-72 25-7-18-7 19-73-28 0 10c0 0-1 8 7 14 7 5 47 37 47 37 0 0 11 6 7 21-3 15-5 31-5 41l0 90-55 0-90-35z"/>
<glyph glyph-name="boeing-777-lr-200" unicode="&#79;" d="M57 171l0 15 126 91-2 9-3 0c0 0-4 19 1 32l22 0c0 0 4-14 2-26l31 22 0 44c0 0 3 83 19 83 16 0 22-80 21-83 0-4 0-44 0-44l32-21c0 0-2 19 4 27l19 0c0 0 7-14 3-33l-4 0-2-10 129-90 0-13-45 20-83 28-51 0 1-39c0-10-2-23-5-35-2-11 1-17 5-20 3-4 44-36 44-36 0 0 8-7 8-12l0-7-66 22-6-16-7 17-66-25 0 9c0 0-1 7 6 12 7 5 43 35 43 35 0 0 10 5 7 18-4 14-5 29-5 38l0 40-51 0-81-32-46-20z"/>
<glyph glyph-name="boeing-777-lr-300" unicode="&#80;" d="M40 176l0 16 137 99-2 10-3 0c0 0-5 21 1 34l23 0c0 0 5-15 3-28l33 25 0 67c0 0 3 90 21 90 17 0 23-87 23-90-1-4 0-68 0-68l34-23c0 0-2 22 5 30l20 0c0 0 7-15 4-36l-5 0-2-11 140-97 0-15-50 22-89 31-55 0 0-88c0-10-2-24-5-37-2-12 2-18 6-22 3-5 48-39 48-39 0 0 8-8 8-12l0-9-71 25-7-18-7 18-72-27 0 10c0 0-1 8 7 13 7 6 46 38 46 38 0 0 11 5 8 20-4 15-6 31-6 40l0 89-54 0-89-35-50-22z"/>
<glyph glyph-name="breakfast" unicode="&#81;" d="M212 256c-42-3-74-40-71-83 3-42 40-74 82-71 42 3 74 40 71 83-3 42-40 74-82 71z m9-125c-5 0-10 4-10 9-1 5 3 10 9 10 15 1 27 15 26 31 0 5 4 10 9 10 6 1 10-3 11-9 1-26-19-49-45-51z m260 246c-14 34-55 55-118 62-4 1-9 1-14 1l13-40c45-5 76-19 84-38 9-20-5-57-37-98-37-45-52-94-63-129-15-50-21-66-54-71-13-1-28-1-48 1-46 5-87 28-116 65-24 29-37 64-38 101-4-2-8-2-12-2-2 0-4 0-6 0l-2 0c-8 2-14 6-19 12-1-49 15-97 46-135 36-45 87-73 143-79 22-3 41-3 56-1l1 0c59 8 72 49 86 98 11 34 23 76 56 116 43 56 57 102 42 137z m-407-131c0 0 1 0 1 0 6-1 11 1 16 5 0 0 19 19 40 26 10 3 14 3 21 2 8-1 19-3 36 3 17 6 25 14 31 20 5 5 8 8 17 11 9 3 13 2 20 1 9-1 20-2 37 4 29 10 53 34 54 35 5 4 7 11 4 18l-35 104c-2 6-7 10-13 12-6 1-12-1-16-5-1 0-20-19-41-27-9-3-14-2-21-1-8 1-19 3-36-3-17-6-25-14-31-20-4-5-8-8-17-11-9-3-13-3-20-2-9 2-19 3-36-3-30-10-54-34-55-35-5-5-6-12-4-18l35-104c2-6 7-11 13-12z m230 155l6-18c-9-6-21-14-34-18-15-5-24-4-32-3-7 1-13 2-24-2-11-3-16-8-21-13-5-6-12-12-27-17-15-6-24-4-32-3-8 1-14 2-25-2-13-4-25-13-33-19l-6 18c9 6 21 13 34 18 15 5 24 3 32 2 7-1 13-1 24 2 11 4 16 8 21 14 5 5 12 12 27 17 15 5 24 4 32 3 7-1 14-2 25 2 13 4 25 12 33 19z m-208-19c9 3 14 2 20 1 9-1 20-2 37 4 17 5 24 13 30 19 5 5 8 8 17 11 10 3 14 3 21 2 8-1 19-3 36 3 13 4 24 11 34 18l7-22c-9-7-20-14-33-18-26-9-31 4-57-5-26-9-22-22-48-31-26-9-30 4-56-5-13-4-25-11-34-18l-7 21c8 7 20 15 33 20z"/>
<glyph glyph-name="briefcase" unicode="&#82;" d="M165 396l-28 0 0 31c0 17 6 31 17 42 11 12 25 17 42 17l114 0c17 0 31-5 42-17 11-11 17-25 17-42l0-31-28 0 0 31c0 9-3 16-9 22-6 6-13 9-22 9l-114 0c-9 0-16-3-22-9-6-6-9-13-9-22z m318-23c6 0 11-2 16-7 4-4 6-10 6-17l0-78-213-50 0 23c0 8-4 12-11 12l-57 0c-8 0-12-4-12-12l0-23-212 50 0 78c0 7 2 13 7 17 4 5 9 7 16 7z m-189-181l212 49 0-196c0-6-2-12-6-16-5-4-10-7-17-7l-460 0c-7 0-12 3-16 7-5 4-7 10-7 16l0 196 214-49 0-41c0-7 4-11 11-11l57 0c8 0 12 4 12 11z"/>
<glyph glyph-name="bus" unicode="&#83;" d="M423 411l-9 18-1 2c-4 7-13 13-22 13l-270 0c-9 0-18-6-22-13l-1-2-9-18c-29-11-74-29-74-42l0-60c0-9 8-15 16-15l15 0c9 0 14 6 14 15l0 60c0 3 7 8 16 13l0-314 45 0 0 15 270 0 0-15 45 0 0 314c9-5 16-10 16-13l0-60c0-9 6-15 15-15l15 0c8 0 15 6 15 15l0 60c0 13-45 31-74 42z m-317-35c0 4 3 8 7 8l286 0c4 0 7-4 7-8l0-161c0-4-3-8-7-10 0 0-47-18-143-18-96 0-143 18-143 18-4 2-7 6-7 10l0 161z m45-248l-45 0-15 14 0 31 60-15 0-30z m150-30l-90 0 0 30 90 0 0-30z m120 44l-15-14-45 0 0 30 60 15z"/>
<glyph glyph-name="bus-traditional" unicode="&#84;" d="M42 281l410 0c2 0 3 0 5 2 1 1 2 2 2 4l-2 60c-1 31-17 55-61 55l-277 0c-57 0-84-23-84-82l0-33c0-4 3-6 7-6z m331 89c0 3 3 6 6 6l49 0c6 0 10-12 12-24 2-9 3-19-4-19l-57 0c-3 0-6 3-6 6l0 31 0 0z m-80 0c0 3 3 6 7 6l57 0c4 0 7-3 7-6l0-31c0-3-3-6-7-6l-57 0c-4 0-7 3-7 6l0 31z m-79 0c0 3 3 6 6 6l58 0c3 0 6-3 6-6l0-31c0-3-3-6-6-6l-58 0c-3 0-6 3-6 6l0 31z m-80 0c0 3 3 6 6 6l58 0c4 0 7-3 7-6l0-31c0-3-3-6-7-6l-58 0c-3 0-6 3-6 6z m-57 6l41 0c4 0 7-3 7-6l0-31c0-3-3-6-7-6l-54 0c-20 0 0 43 13 43z m383-159l-1 48c0 3-3 6-6 6l-412 0c-3 0-6-3-6-7l0-121-2 0c-3 0-6-3-6-6 0-3 3-6 6-6l100 0 0 13c0 25 20 45 44 45 24 0 44-20 44-45l0-13 158 0 0 13c0 25 20 45 44 45 13 0 24-6 32-14 6-7 9-18 9-24 1-3 3-6 6-6 4 0 8 0 11 1 8 0 8 8 8 14 5 62-27 39-29 57z m-255 0c0-4-3-6-7-6l-58 0c-3 0-6 2-6 6l0 30c0 4 3 7 6 7l58 0c4 0 7-3 7-7z m79 0c0-4-3-6-6-6l-58 0c-3 0-6 2-6 6l0 30c0 4 3 7 6 7l58 0c3 0 6-3 6-7z m80 0c0-4-3-6-7-6l-57 0c-4 0-7 2-7 6l0 30c0 4 3 7 7 7l57 0c4 0 7-3 7-7l0-30z m81 11c0-3-2-6-6-6l-55 0c-3 0-6 3-6 6l0 28c0 3 3 5 6 5l55 0c4 0 6-2 6-5z m-268-48c-19 0-35-16-35-35 0-20 16-35 35-35 20 0 35 15 35 35 0 19-15 35-35 35z m0-57c-12 0-22 10-22 22 0 12 10 22 22 22 12 0 22-10 22-22 0-12-10-22-22-22z m246 57c-19 0-35-16-35-35 0-20 16-35 35-35 20 0 36 15 36 35 0 19-16 35-36 35z m0-57c-12 0-21 10-21 22 0 12 9 22 21 22 12 0 22-10 22-22 0-12-10-22-22-22z"/>
<glyph glyph-name="business-suitcase" unicode="&#85;" d="M346 394c0 27-19 49-43 49l-102 0c-24 0-43-22-43-49l0-10-33 0 0-315 257 0 0 315-36 0 0 10 0 0z m-25-10l-138 0 0 10c0 14 8 25 18 25l102 0c10 0 19-11 19-25l0-10z m-301-25l0-266c0-13 11-24 25-24l56 0 0 315-56 0c-14 0-25-11-25-25z m447 25l-61 0 0-315 61 0c14 0 25 11 25 24l0 266c0 14-11 25-25 25z"/>
<glyph glyph-name="cabin-crew" unicode="&#86;" d="M358 249l-125 0 0-131 0 0c0-20-16-36-36-36-20 0-37 16-37 36l0 0 0 131-6 0c-25 0-46-21-46-46l0-137c0-25 21-46 46-46l204 0c25 0 46 21 46 46l0 137c0 25-21 46-46 46z m-102 243c-29 0-53-12-59-29l118 0c-6 17-30 29-59 29z m-69-117l138 0c19 0 35 6 35 27l0 23c0 16-10 28-35 28l-138 0c-24 0-35-12-35-28l0-23c0-21 16-27 35-27z m46-112c7-2 15-3 23-3 47 0 85 38 85 85 0 6-1 13-2 19l-106 0z"/>
<glyph glyph-name="cabin-crew-hat" unicode="&#87;" d="M414 294c-114 109-283 32-283 32 33 2 148-21 186-26 39-5 97-6 97-6z m-198-34c-10 0-18-9-18-20 0-10 8-19 18-19 10 0 18 9 18 19 0 11-8 20-18 20z m-111 21c-1-1-2-1-4-4l0-1-1-1c-17-26-30-55-30-67 2 0 4 0 8 0 8 0 20 1 33 2 29 3 58 8 77 11-4 6-6 12-6 19 0 10 4 19 10 25-26 6-64 14-87 16z m365 18c-16 7-44 14-67 18 7-5 12-9 15-11 1 0 13 0 13 0 17 0 25-2 29-6 2-2 3-5 3-8-1-9-9-11-37-11-40 0-115 6-186 20-40 8-82 12-126 12-35 0-57-2-57-2l-3 0c-11 0-19-3-24-8-8-8-8-18-8-19-5-65-6-73-3-100 2-13 7-20 30-20 10 0 22 1 38 4 39 6 183 10 281 10 25 0 57 0 73-2 2 0 5 0 8 0 30 0 35 19 36 22 0 0 6 23 8 40 2 15 7 47-23 61z m-254-94c-5 0-9 1-13 3-15-3-53-10-90-14-16-1-27-2-35-2-16 0-19 2-19 2-19 17 28 90 28 90 6 12 16 12 18 12l0 0c31-1 92-16 111-20 19 0 34-16 34-36 0-19-15-35-34-35z"/>
<glyph glyph-name="calculator" unicode="&#88;" d="M430 402c0 15-5 27-15 38-11 11-23 16-36 16l-240 0c-14 0-26-5-36-16-10-11-15-23-15-38l0-6c0-15 5-28 15-39 10-10 22-15 36-15l240 0c14 0 26 5 36 16 10 11 15 23 15 38z m-11-141c0 3-2 5-5 5l-62 0c-3 0-5-2-5-5l0-196c0-3 2-5 5-5l62 0c3 0 5 2 5 5z m-119 0c0 3-2 5-6 5l-61 0c-4 0-6-2-6-5l0-66c0-3 2-5 6-5l61 0c4 0 6 2 6 5z m0-129c0 3-2 5-6 5l-61 0c-4 0-6-2-6-5l0-67c0-3 2-5 6-5l61 0c4 0 6 2 6 5z m-120 129c0 3-2 5-5 5l-62 0c-3 0-5-2-5-5l0-66c0-3 2-5 5-5l62 0c3 0 5 2 5 5z m0-129c0 3-2 5-5 5l-62 0c-3 0-5-2-5-5l0-67c0-3 2-5 5-5l62 0c3 0 5 2 5 5z m237 380c18 0 34-7 48-21 14-14 21-31 21-50l0-370c0-19-7-36-20-50-13-14-29-21-47-21l-318 0c-19 0-34 7-47 20-13 14-20 31-20 51l0 370c0 19 7 36 20 50 13 14 28 21 47 21z"/>
<glyph glyph-name="calendar" unicode="&#89;" d="M188 145l50 0 0-50-50 0z m-69 67l50 0 0-50-50 0z m69 0l50 0 0-50-50 0z m176 136c14 0 26 11 26 25l0 78c0 14-12 25-26 25-14 0-25-11-25-25l0-78c0-14 11-25 25-25z m122 74l-82 0 0-49c0-21-18-39-40-39-22 0-39 18-39 39l0 49-138 0 0-49c0-21-17-39-39-39-22 0-40 18-40 39l0 49-82 0c-5 0-9-4-9-9l0-368c0-5 4-9 9-9l361 0c7 0 14 3 20 8l82 95c5 4 6 9 6 15l0 259c0 5-4 9-9 9l0 0z m-19-254c0-8-4-14-14-14l-40 0c-15 0-23-8-23-23l0-53c-1-9-5-14-14-14l-326 0c-3 0-5 2-5 5l0 237c0 3 2 5 5 5l412 0c3 0 5-2 5-5z m-279 112l50 0 0-50-50 0z m-40 68c14 0 25 11 25 25l0 78c0 14-11 25-25 25-14 0-26-11-26-25l0-78c0-14 12-25 26-25z m-29-203l50 0 0-50-50 0z m206 67l50 0 0-50-50 0z m0 68l50 0 0-50-50 0z m0-135l50 0 0-50-50 0z m-69 0l50 0 0-50-50 0z m0 135l50 0 0-50-50 0z m0-68l50 0 0-50-50 0z"/>
<glyph glyph-name="calendar-changes" unicode="&#90;" d="M381 288c5-4 5-9 0-14l-139-142c-3-5-9-7-18-7l-10 0c-10 0-16 2-18 7l-65 67c-6 4-6 9 0 14l25 27c5 4 10 4 14 0l42-43c1-2 3-3 7-3 3 0 5 1 7 3l115 117c4 4 9 4 15 0z m50-232l0 358-28 0 0-16c0-7-3-13-7-18-5-5-11-7-17-7-6 0-12 2-16 7-5 5-7 11-7 18l0 16-79 0 0-16c0-7-3-13-7-18-5-5-11-7-17-7-6 0-12 2-16 7-5 5-7 11-7 18l0 16-79 0 0-16c0-7-3-13-7-18-5-5-11-7-17-7-6 0-12 2-16 7-5 5-7 11-7 18l0 16-29 0 0-358 360 0z m4 412c13 0 25-5 35-15 10-10 15-22 15-35l0-365c0-13-5-25-15-36-10-10-22-15-35-15l-358 0c-15 0-27 5-37 14-10 10-14 22-14 37l0 365c0 14 4 26 14 35 10 10 22 15 37 15l27 0 0 18c0 7 2 13 7 18 4 5 10 8 16 8 6 0 12-3 17-8 4-5 7-11 7-18l0-18 81 0 0 18c0 9 2 15 7 19 4 4 10 6 16 6 6 0 11-2 16-6 4-4 7-10 7-19l0-18 83 0 0 18c0 7 2 13 7 18 4 5 10 8 17 8 6 0 11-3 16-8 4-5 7-11 7-18l0-18z"/>
<glyph glyph-name="calendar-inverted" unicode="&#48;" d="M146 459c0 9-3 16-9 22-6 6-12 9-20 9-8 0-15-3-21-9-6-6-8-13-8-22l0-19 58 0 0 19z m301-33c-9 9-20 14-32 14l-15 0 0 19c0 9-3 16-9 22-5 6-12 9-20 9-8 0-15-3-21-9-5-6-8-13-8-22l0-19-69 0 0 19c0 9-3 16-9 22-5 6-12 9-20 9-8 0-15-3-21-9-5-6-8-13-8-22l0-19-53 0-16-1 0-20c0-8-3-15-9-21-6-7-13-10-21-10-7 0-14 3-20 10-6 6-8 13-8 21l0 20c-10-2-18-6-25-12-9-9-13-20-13-32l0-326c0-13 4-24 13-33 9-8 20-12 33-12l319 0c12 0 23 4 32 13 9 10 13 20 13 32l0 326c0 12-4 22-13 31z m-232 13l58 0 0-20c0-8-3-15-9-21-6-7-13-10-21-10-7 0-14 3-20 10-5 6-8 13-8 21l0 20z m177-164l-152-155c-3-5-9-7-19-7l-11 0c-10 0-17 2-20 7l-71 73c-6 5-6 10 0 16l27 29c6 5 11 5 16 0l46-47c1-2 4-3 7-3 4 0 6 1 8 3l125 128c5 4 11 4 17 0l27-28c6-5 6-10 0-16z m8 144c0-8-3-15-9-21-5-7-12-10-21-10-7 0-14 3-20 10-5 6-8 13-8 21l0 20 58 0 0-20z"/>
<glyph glyph-name="calendar-month" unicode="&#49;" d="M502 362l0-342c0-6-2-11-6-16-5-4-10-6-15-6l-442 0c-6 0-11 2-15 7-5 5-7 10-7 15l0 342z m-380-257l-63 0 0-63 63 0z m0 85l-63 0 0-63 63 0z m0 87l-63 0 0-64 63 0z m85-172l-63 0 0-63 63 0z m0 85l-63 0 0-63 63 0z m0 87l-63 0 0-64 63 0z m84-172l-64 0 0-63 64 0z m0 85l-64 0 0-63 64 0z m0 87l-64 0 0-64 64 0z m83-172l-63 0 0-63 63 0z m0 85l-63 0 0-63 63 0z m0 87l-63 0 0-64 63 0z m85-172l-63 0 0-63 63 0z m0 85l-63 0 0-63 63 0z m0 87l-63 0 0-64 63 0z m42 108l-484 0 0 64c0 5 2 10 7 14 4 5 9 7 15 7l42 0 0 20c0 7 2 12 6 16 4 4 9 6 14 6l21 0c6 0 11-2 16-7 4-4 6-9 6-15l0-21 232 0 0 21c0 6 2 11 6 15 4 5 9 7 15 7l22 0c6 0 11-2 16-7 4-4 6-9 6-15l0-21 41 0c5 0 9-2 13-6 4-4 6-9 6-14z"/>
<glyph glyph-name="cancel-booking" unicode="&#50;" d="M432 347l-176 0 0-328 243 0 0 271z m35-296l-179 0 0 264 132 0 2-1-1-58 46 0z m-159 116l139 0 0-32-139 0z m0-62l139 0 0-32-139 0z m0 123l139 0 0-31-139 0z m0 62l59 0 0-32-59 0z m-148 101l55 55c3 3 3 9 0 12l-32 33c-4 3-10 3-13 0l-55-55-55 55c-3 3-9 3-12 0l-33-33c-3-3-3-9 0-12l55-55-55-55c-3-3-3-9 0-13l33-32c3-4 9-4 12 0l55 55 55-55c3-4 9-4 13 0l32 32c3 4 3 10 0 13z"/>
<glyph glyph-name="car-hire" unicode="&#51;" d="M492 346c-4 3-9 5-14 4l-40-7c-9 26-19 51-31 76-2 6-7 7-12 8-47 6-87 8-134 9l-10 0c-47-1-87-3-134-9-5-1-11-2-12-8-12-25-22-50-31-76l-40 7c-5 1-10-1-14-4-3-3-5-8-5-12l0-16c0-8 5-15 13-16l26-5c-5-12-7-26-7-40 0 0-1-27 1-40 0 0 0 0 0 0-5-1-9-3-9-7-1-1-1-2 0-3 0-17 5-30 10-44l0-78c0-5 3-9 8-9l58 0c5 0 9 4 9 9l0 54 264 0 0-54c0-5 4-9 8-9l59 0c4 0 8 4 8 9l0 78c4 14 9 27 10 44 0 1 0 1 0 2-1 5-5 7-9 8 0 0 0 0 0 0 1 13 1 40 1 40 0 14-2 28-7 40l26 5c8 1 13 8 13 16l0 16c0 4-2 9-5 12z m-91-19c0 0 0-1-1-1l0 0c-52 6-97 9-144 9-47 0-93-3-144-9-1 0-1 1-2 1 0 1 0 1 0 2 9 27 19 50 28 69 1 2 3 4 5 4 40 4 77 6 113 6 36 0 73-2 113-6 2 0 4-2 5-4 8-18 19-42 28-69 0-1 0-1-1-2z m-274-60l7-42-63 0c-5 0-8 4-8 9l0 28c0 5 3 9 8 9l55 0c1-1 1-3 1-4z m44-38l-1 2-7 42 0 0c-1 4 1 7 4 8 25 8 56 12 88 12 32 0 64-4 88-12 4-1 5-4 5-8l0 0-1-1 0-1-6-39-1-2 0-2-1-4c-1-3-3-6-7-6l-154 0c-3 0-6 3-7 6l0 4z m277 5c0-5-3-9-8-9l-64 0 8 42c0 1 0 3 0 4l56 0c5 0 8-4 8-9z"/>
<glyph glyph-name="casino" unicode="&#52;" d="M231 324l-158 0c-29 0-53-24-53-53l0-159c0-29 24-53 53-53l158 0c30 0 53 24 53 53l0 159c0 29-23 53-53 53z m-149-235c-18 0-32 14-32 32 0 17 14 32 32 32 17 0 31-15 31-32 0-18-14-32-31-32z m0 141c-18 0-32 14-32 32 0 17 14 32 32 32 17 0 31-15 31-32 0-18-14-32-31-32z m70-70c-17 0-32 14-32 31 0 18 15 32 32 32 18 0 32-14 32-32 0-17-14-31-32-31z m71-71c-18 0-32 14-32 32 0 17 14 32 32 32 17 0 31-15 31-32 0-18-14-32-31-32z m0 141c-18 0-32 14-32 32 0 17 14 32 32 32 17 0 31-15 31-32 0-18-14-32-31-32z m262 111l-113 112c-20 21-54 21-74 0l-106-105 51 0c37 0 66-35 66-67l0-48c5 9 15 14 26 14 18 0 32-14 32-31 0-18-14-32-32-32-11 0-21 6-26 14l0-52c20-12 46-9 63 8l113 112c20 21 20 55 0 75l0 0z m-150 19c-18 0-32 14-32 32 0 17 15 32 32 32 18 0 32-15 32-32 0-18-14-32-32-32z m88-88c-17 0-32 14-32 32 0 17 15 32 32 32 18 0 32-15 32-32 0-18-14-32-32-32z"/>
<glyph glyph-name="catering" unicode="&#53;" d="M135 408c25-71 59-133 86-202l70 0c28 71 65 130 86 207-53 40-196 44-242-5z m66-66c-19 5-33 35-21 56 10-2 17-8 22-15 8-13 8-31-1-41z m-182-126c52-14 96-34 151-45 57 64-30 155-60 212-53-33-91-81-91-167z m378 167c-17-67-120-152-50-212 52 12 96 32 146 45-2 86-35 141-96 167z m-368-197c2-72 55-141 126-111-1 28-12 58 5 76-44 11-85 25-131 35z m328-111c69-29 126 37 126 111-45-12-94-20-131-40 20-14 3-46 5-71z"/>
<glyph glyph-name="champagne" unicode="&#54;" d="M264 62l0 121c14 33 46 111 57 173 14 83-11 133-11 133l-106 0c0 0-26-50-11-133 10-60 40-134 55-169l0-125c-42-1-75-9-75-19 0-11 37-20 83-20 46 0 83 9 83 20 0 10-33 18-75 19z"/>
<glyph glyph-name="change-booking" unicode="&#55;" d="M127 425l0-341 252 0 0 281-70 60-182 0z m33-307l0 274 137 0 2-2-1-59 48 0 0-213-186 0z m21 120l144 0 0-33-144 0z m0-64l144 0 0-33-144 0z m0 128l144 0 0-33-144 0z m0 64l61 0 0-33-61 0z m-99-305l0 166 30 0c3 0 4 3 2 6l-46 63c-2 3-5 2-7-1l-46-62c-2-3-1-6 2-6l30 0 0-196c0-3 2-6 6-6l196 0-28 36z m413 224l-30 0 0 196c0 3-3 6-6 6l-195 0 28-36 137 0 0-166-29 0c-3 0-4-2-2-4l46-62c2-3 5-3 7 0l46 62c2 2 1 4-2 4z"/>
<glyph glyph-name="chat" unicode="&#56;" d="M462 217l0 174c0 14-2 25-5 32-4 7-12 11-24 11l-346 0c-12 0-22-4-30-12-9-8-13-18-13-31l0-174c0-14 2-25 6-32 3-7 11-11 23-11l216 0 73-43 0 43 73 0c19 0 29 14 29 43z m-14 261c17 0 31-6 42-17 11-11 16-25 16-42l0-231c0-16-6-30-17-41-11-11-25-17-41-17l-43 0 0-102-130 102-217 0c-16 0-30 6-41 17-11 11-17 25-17 41l0 231c0 17 6 31 17 42 11 11 24 17 41 17z"/>
<glyph glyph-name="chauffeaur-drive" unicode="&#57;" d="M202 335l-7 30c-1 7-7 12-14 12l-83 0c-7 0-13-5-14-12l-7-30-15 0 0-12 9 0-3-5 0-72 18 0 0 12 107 0 0-12 18 0 0 72-3 5 9 0 0 12z m-107 28c1 1 2 2 3 2l83 0c1 0 2-1 3-2l6-28-101 0z m3-69l-18 0-6 6 0 12 24-6z m65-24l-47 0 0 12 47 0z m42 30l-6-6-18 0 0 12 24 6 0-12z m-66 135c-70 0-126-57-126-126 0-70 56-126 126-126 69 0 126 56 126 126 0 69-57 126-126 126z m0-230c-58 0-104 47-104 104 0 57 46 104 104 104 57 0 104-47 104-104 0-57-47-104-104-104z m295-11l-123 0c-36 0-65-29-65-65l0-52 111 0 12 44-14 36 21 22 23-22-14-36 12-44 102 0 0 52c0 36-29 65-65 65z m-116 93c-2-6-3-11-3-17 0-33 27-59 59-59 33 0 59 26 59 59 0 6-1 12-3 18-12-8-32-17-57-17-24 0-43 9-55 16z m55-4c34 0 57 17 63 23l2 2 19 25-33 21-48 11-49-9-38-23 22-26c0 0 23-24 62-24l0 0z"/>
<glyph glyph-name="check" unicode="&#33;" d="M194 77c-11 0-21 4-28 11l-166 164 56 55 138-135 260 263 56-56-289-291c-7-7-16-11-27-11z"/>
<glyph glyph-name="check-in-area" unicode="&#34;" d="M436 157l-7 0 0-138 7 0c15 0 26 12 26 26l0 86c0 14-11 26-26 26z m-154-26l0-86c0-14 12-26 26-26l11 0 0 138-11 0c-14 0-26-12-26-26z m120 44c0 5-3 9-7 9l-42 0c-4 0-7-4-7-9l0-18-13 0 0-138 82 0 0 138-13 0 0 18z m-10-18l-35 0 0 8c0 3 2 5 4 5l26 0c3 0 5-2 5-5l0-8z m-199 260c0-20-16-37-36-37-20 0-36 17-36 37 0 20 16 36 36 36 20 0 36-16 36-36z m213 48c0-20-16-36-36-36-20 0-36 16-36 36 0 20 16 36 36 36 20 0 36-16 36-36z m53-202l0 110c0 26-21 47-47 47l-87 0c-25 0-46-21-46-47l0-110-33 0 0 62c0 25-21 46-47 46l-87 0c-25 0-46-21-46-46l0-62-44 0 0-21 44 0 0-30c0-8 7-15 15-15 9 0 16 7 16 15l0 30 11 0c0-80 0-199 0-210 0-12 9-21 21-21 12 0 21 9 21 21l0 163 11 0 0-163c0-12 10-21 22-21 11 0 21 9 21 21l0 210 10 0 0-30c0-8 8-15 16-15 9 0 16 7 16 15l0 30 244 0 0 21-31 0z m-362 0l0 51 11 0c0 0 0-21 0-51z m107 0l0 51 10 0 0-51z m223 99l0-99-10 0 0 99z m-117 0l11 0c0 0 0-65 0-99l-11 0z"/>
<glyph glyph-name="check-in-failure" unicode="&#35;" d="M496 290l-15 0 0 86c0 14-8 15-14 15l-114 0c-6 0-13-1-13-17l0-84-89 0 0 51c0 0 17-20 27-23 10-3 26-1 40 22 15 23 12 34 5 39l0 0c-7 5-16 2-25-13-10-16-15-19-15-19 0 0-15 17-25 32-11 15-22 14-22 14l-71 0c0 0-50-16-77-68-8-15-13-26-15-35l-51 0 0-10 48 0c-1-5-1-9-1-11l-26 0 0-13 6 0 0-27-14 0c-7 0-13-6-13-14l0-141c0-6 3-10 7-12 1-8 4-14 7-14 4 0 7 5 8 12l71 0c1-7 4-12 7-12 4 0 7 6 8 13 4 3 8 7 8 12l0 142c0 8-7 14-14 14l-12 0 0 27 6 0 0 13-22 0c0 3 1 6 2 11l55 0 0-211 1 0c-1-1-1-3-1-4 0-12 10-22 22-22 12 0 22 10 22 22 0 1 0 3 0 4l0 0 0 169 10 0 0-170 1 0c0-1 0-2 0-3 0-12 10-22 22-22 12 0 22 10 22 22 0 1-1 3-1 4l0 211 245 0c2 0 4 2 4 5 0 3-2 5-4 5z m-393-34l0-27-46 0 0 27 15 0c3-3 6-4 10-4 3 0 7 1 9 4z m-1 34c3 9 8 19 15 29 18 25 36 33 36 33l0-62z m255 0l0 66 6 0 0-57c0-3 2-6 4-9z m107 0l-9 0c2 3 3 6 3 9l0 57 6 0z m-261 115c21 0 39 18 39 39 0 21-18 39-39 39-21 0-39-18-39-39 0-21 18-39 39-39z m208 0c22 0 39 18 39 39 0 21-17 39-39 39-21 0-39-18-39-39 0-21 18-39 39-39z m-107 44l-23-64 13-5c9 23 35 13 35 13l14 43z"/>
<glyph glyph-name="check-in-online" unicode="&#36;" d="M457 125c-4 4-11 4-15 0l-81-80c-4-4-4-11 0-15l22-22 96 95z m-27 11l-15 44c0 2-1 3-2 4l-45 45 0 245c0 16-14 30-31 30l-273 0c-17 0-31-13-31-30l0-350c0-17 14-30 31-30l171 0c0-5 3-9 7-10l101-35c4-1 8 0 11 3l73 73c3 3 4 7 3 11z m-351 3l0 320 243 0 0-240-30-17-25 25c-16 16-34 12-45 1-11-11-15-29 1-45 12-12 29-30 44-44l-188 0z m121-40c-9 0-17 8-17 17 0 10 8 18 17 18 10 0 18-8 18-18 0-9-8-17-18-17z m144-28l-88 30 0 8 0 0 41 5c4 1 8 4 9 7 1 4-1 9-4 12l-72 72c-7 7-1 9 2 12 4 4 6 9 13 3l37-38c4-3 9-4 13-2l59 33 42-42 12-35-64-65z"/>
<glyph glyph-name="checked-baggage" unicode="&#37;" d="M481 435l-57 57c-1 1-3 1-4 0l-83-83c-1-1-2-4-2-5l0-55c0-2 1-3 3-3l55 0c2 0 4 1 5 2l83 83c1 1 1 3 0 4z m-107-68c-5-5-13-5-17 0-5 5-5 13 0 18 4 5 12 5 17 0 5-5 5-13 0-18z m24-55l-100 0 0 38c0 10-8 19-19 19l-75 0c-10 0-18-9-18-19l0-38-67 0-39 0 0-1c-28-3-50-26-50-55l0-182c0-30 25-55 55-55l313 0c30 0 55 25 55 55l0 182c0 31-25 56-55 56l0 0z m-57-29l0-235-199 0 0 235z m-136 65l72 0 0-36-72 0z m-146-274l0 182c0 15 12 27 26 27l28 0 0-235-28 0c-14 0-26 12-26 26z m365 0c0-14-12-26-26-26l-28 0 0 235 28 0c14 0 26-12 26-27z"/>
<glyph glyph-name="chevron-down" unicode="&#38;" d="M15 361l210-210 31-31 31 31 210 210-31 39-210-210-210 210z"/>
<glyph glyph-name="chevron-left" unicode="&#39;" d="M353 497l-241-241 31-31 210-210 39 31-210 210 210 210z"/>
<glyph glyph-name="chevron-right" unicode="&#40;" d="M155 15l210 210 31 31-31 31-210 210-39-31 210-210-210-210z"/>
<glyph glyph-name="chevron-up" unicode="&#41;" d="M497 159l-210 210-31 31-31-31-210-210 31-39 210 210 210-210z"/>
<glyph glyph-name="child-female-customer" unicode="&#42;" d="M362 220l-212 0c-62 0-113-51-113-113l0-89 438 0 0 89c0 62-51 113-113 113z m-317 74l41-64 29 56 51 2c22-24 54-40 90-40 36 0 68 16 90 40l50-2 29-56 40 64-62 3-26 51c1 7 2 15 2 23 0 68-55 123-123 123-68 0-123-55-123-123 0-7 1-15 2-22l-27-52-63-3z"/>
<glyph glyph-name="child-male-customer" unicode="&#43;" d="M347 196l-182 0c-53 0-97-43-97-96l0-77 376 0 0 77c0 53-44 96-97 96z m-194 147c0-5 0-10 1-15-1 0-2 1-3 1-11 0-20-11-20-23 0-13 9-23 20-23 5 0 10 3 14 6 6-12 14-23 24-33 15-21 41-35 69-35 26 0 49 11 65 29 12 10 22 22 29 36 3-2 7-3 10-3 11 0 20 10 20 23 0 11-7 21-17 22 1 5 1 10 1 15 0 3 0 6 0 9l29 9c0 0-23 128-76 83-5 27-23 45-23 45l-18-8c13 0 26-20 34-35-23 20-123 96-184-90l25-5c0-3 0-5 0-8z"/>
<glyph glyph-name="children-s-product" unicode="&#44;" d="M455 269c-35 23-86 38-113 27-5 3-9 6-14 9 25 20 41 49 41 82 0 9-1 18-3 26 13 8 22 22 22 38 0 24-22 45-49 45-14 0-26-6-35-14-15 7-32 11-50 11-19 0-36-4-51-11-9 8-21 14-35 14-27 0-49-21-49-45 0-16 9-30 22-38-2-8-3-17-3-26 0-33 16-62 41-82-2-1-5-3-7-4-28 9-74 0-109-16-45-21-52-51-37-77 13-23 41-35 80-21 0-14 3-27 7-39-2-1-3-2-5-3-29-16-33-57-11-90 23-34 65-48 93-32 13 8 21 20 24 35 13-3 26-5 39-5 14 0 27 2 40 5 3-15 11-27 24-35 28-16 70-2 93 32 22 33 18 74-11 90-2 1-3 2-5 3 3 9 5 19 6 29 37-19 66-11 83 11 18 23 15 54-28 81z m-201-197c-48 0-87 39-87 87 0 47 39 86 87 86 47 0 86-39 86-86 0-48-39-87-86-87z m73 318c2-11-7-22-19-22-9 0-1-13-1-31 0-30-24-55-53-55-30 0-54 25-54 55 0 22 15 31 4 31-12 0-23 6-24 17-2 11 7 21 19 23 12 1 24-6 24-18 0-7 18 1 31 1 12 0 30-8 30 0 0 9 8 16 19 17 12 1 23-7 24-18l0 0z m-97-24c0 9 47 9 47 0 0-9-11-16-23-16-13 0-24 7-24 16z"/>
<glyph glyph-name="cigar-lounge" unicode="&#45;" d="M171 81l-58 58 16 15 58-57z m-23-23l-58 58 16 15 57-57z m326 384c-14 15-38 16-54 3l0 1-283-283 58-58 279 279c0 0 0 0 0 1 0 0 1 0 1 0l3 3-1 0c13 16 12 39-3 54l0 0z m-416-273c-13 13-16 47-1 64 17 17 21 21 22 21l9 11-13 1c-1 0-18 0-31 20-12 20 3 45 3 45 2 3 1 7-2 9-3 2-7 1-9-2-1-1-20-32-3-59 9-14 20-20 28-24-3-3-8-7-13-13-21-23-17-64 1-83l24-24c3-2 7-2 10 0 2 3 2 7 0 10l-25 24z m1 196c23 5 50 3 56-22 6-22-11-33-11-33l-10-6c0 0 16-7 21-16 5-8 6-21-2-29-5-5-10-11-16-17-6-6-12-12-17-18-15-14-12-34-1-46 13-13 20-18 20-18 3-2 6-2 9 0 0 1 0 1 0 1 3 3 2 7-1 9 0 0-6 5-18 18-7 6-8 18 0 27 6 6 12 12 18 18 5 6 11 12 15 16 12 12 14 31 4 46-2 5-5 8-7 10 7 9 14 23 9 42-7 27-35 39-72 31-4-1-6-5-5-8 1-4 5-6 8-5z"/>
<glyph glyph-name="city-break" unicode="&#46;" d="M464 105l0 129-52-49 0-80-32 0 0 157-21 0 0 135-13 0 0 85-17 0 0-149-18 0 0-150-16 0 0-78-28 0 0 45-37 0 0 49-42 0 0-6-43 0 0 59-75 0 0-147-48 0 0-83 468 0 0 83z"/>
<glyph glyph-name="clock" unicode="&#47;" d="M388 264c5 0 10-2 14-7 4-5 6-10 6-15 0-6-2-11-7-15-4-4-9-6-15-6l-135 0c-6 0-11 2-15 7-4 4-6 9-6 14l0 159c0 6 2 11 7 15 4 4 9 6 14 6 6 0 11-2 15-7 5-4 7-9 7-14l0-137z m-133-208c54 0 102 19 142 58 40 38 59 85 59 141 0 55-19 102-59 142-40 40-87 59-142 59-56 0-103-19-143-59-39-40-58-88-58-142 0-55 19-102 58-141 40-39 88-58 143-58z m0 454c69 0 129-25 179-74 25-26 44-53 57-82 13-30 19-62 19-97 1-69-24-130-75-181-50-49-110-74-180-74-71 0-131 24-181 73-49 49-74 109-74 180 0 70 25 130 74 180 51 50 111 75 181 75z"/>
<glyph glyph-name="clock-fare" unicode="&#58;" d="M503 301l-40 2-10-1c-22 99-110 174-215 174-121 0-220-99-220-220 0-121 99-220 220-220 86 0 161 50 197 122l-37 0c-33-54-92-90-160-90-104 0-188 84-188 188 0 104 84 188 188 188 88 0 162-61 182-142l-5-1-39 0c-5 0-6-2-4-6l63-91c2-4 7-4 9 0l63 91c2 4 1 6-4 6z m-278-156l0 89c-3 2-6 4-9 7-10 10-12 26-10 38l-38 38c-4 4-3 10 0 14l13 13c4 4 11 4 15 0l38-38c11 2 27 1 38-10 15-15 15-40 0-55-3-2-5-4-8-6l0-90c0-5-4-10-10-10l-19 0c-5 0-10 5-10 10z"/>
<glyph glyph-name="clock-time" unicode="&#59;" d="M43 256c0-59 20-109 62-150 41-42 91-62 151-62 59 0 109 20 150 62 42 41 62 91 62 150 0 58-21 109-63 150-41 42-91 63-149 63-59 0-110-21-151-63-42-41-62-91-62-150z m392 180c50-51 75-111 75-180 0-70-25-131-75-181-49-50-109-75-179-75-71 0-131 25-181 75-50 50-75 110-75 181 0 70 25 130 75 180 50 51 111 76 181 76 70 0 129-25 179-76z m-105-158c3 0 6-1 7-4 2-2 2-4 2-7l0-20c0-7-4-11-11-11l-38 0c-9-15-21-22-36-22-11 0-21 4-30 13-9 9-13 19-13 31 0 14 7 26 21 36l0 80c0 2 1 5 4 7 2 2 4 3 7 3l22 0c3 0 5-1 7-3 3-2 4-5 4-7l0-80c9-5 14-10 16-16z"/>
<glyph glyph-name="close" unicode="&#60;" d="M461 116c4-3 5-10 1-20-4-10-11-19-20-28-22-22-38-28-48-18l-139 138-139-138c-3-5-10-5-20-1-10 4-19 10-28 19-22 22-28 38-18 48l138 139-138 139c-5 3-5 10-1 20 4 10 10 20 19 28 20 21 36 27 48 19l139-139 139 139c3 4 10 5 20 1 10-4 20-11 28-20 21-21 27-37 19-48l-139-139z"/>
<glyph glyph-name="clothing" unicode="&#61;" d="M353 450l-44 0c0 0-18-48-60-49-42 1-46 49-46 49l-44 0-150-127 67-81 49 42 0-222 262 0 0 222 49-42 67 81z m-8-231l-20-34-47 29 1-55-39 0 2 55-48-29-19 34 49 27-49 26 19 35 48-30-2 56 39 0-1-56 47 30 20-35-49-26z"/>
<glyph glyph-name="clothing-hanger" unicode="&#62;" d="M491 156c-13 24-7 24-56 40-48 16-107 48-130 75-12 14-25 20-34 23-1 0 0 1-1 1-3 11 2 22 4 24 14 10 30 34 18 54-11 20-25 26-35 27-25 3-44-16-47-18-6-6-6-16 0-22 6-6 16-6 22 0 4 3 14 10 21 9 4-1 8-4 12-11 0-3-5-10-10-14-11-8-20-30-16-51-9-3-21-9-32-22-23-27-82-59-130-75-49-16-43-16-56-40-12-23-2-41-2-41l237 110 237-110c0 0 10 18-2 41l0 0z m-235 118l0 1 0 0z m12-118l0 0-12 0-12 0 0 0-98-1-62-31 55 0 0-12 27 0 0 12 180 0 0-12 27 0 0 12 55 0-62 31z"/>
<glyph glyph-name="cloudy" unicode="&#63;" d="M440 97l-372 0c-35 0-56 33-56 65 0 31 22 57 51 63 0 1 0 2 0 3 0 57 46 106 100 106 3 0 6 0 9 0 20 49 66 81 119 81 67 0 122-53 128-120 45-9 81-52 81-102 0-38-22-73-57-94z m-363 103c-21 0-38-17-38-38 0-19 11-38 29-38l364 0c26 16 41 42 41 69 0 40-31 75-67 76l-13 1 0 14c-1 58-46 104-102 104-45 0-84-29-98-73l-3-12-12 3c-5 1-10 2-15 2-39 0-73-38-73-80 0-2 0-5 1-14l0-14-14 0 0 0z"/>
<glyph glyph-name="cold" unicode="&#64;" d="M270 79c0 4 2 5 5 2l29-29c4-3 10-4 14-1l9 5c4 3 5 7 2 10l-54 53c-3 4-5 10-5 15l0 90c0 5 3 7 7 4l78-45c4-2 8-8 9-12l20-73c1-4 5-6 9-4l10 6c4 2 6 8 5 12l-10 40c-2 4 1 6 5 4l41-24c4-2 10-2 14 0 4 2 7 7 7 11 0 5-4 10-8 12l-41 24c-4 2-3 5 1 6l40 11c4 1 8 6 8 11l0 11c0 4-4 7-8 6l-73-19c-4-2-11-1-15 2l-79 45c-4 2-4 6 0 8l79 45c4 3 11 4 15 2l73-19c4-1 8 2 8 6l0 11c0 5-4 10-8 11l-40 10c-4 2-5 5-1 7l41 24c4 2 8 7 8 12 0 4-3 9-7 11-4 2-10 2-14 0l-41-24c-4-2-7 0-5 4l10 40c1 4-1 10-5 12l-10 6c-4 2-8 0-9-4l-20-73c-1-4-5-10-9-12l-78-45c-4-3-7-1-7 4l0 90c0 5 2 11 5 15l54 53c3 3 2 7-2 10l-9 5c-4 3-10 2-14-1l-29-29c-3-4-5-2-5 2l0 48c0 4-4 10-7 12-4 2-10 2-14 0-3-2-7-8-7-12l0-48c0-4-2-5-5-2l-29 29c-4 3-10 4-14 1l-9-5c-4-3-5-7-2-10l54-53c3-4 5-10 5-15l0-90c0-5-3-7-7-4l-78 45c-4 2-8 8-10 12l-19 73c-1 4-5 6-9 4l-10-6c-4-2-6-8-5-12l10-40c2-4-1-6-5-4l-41 24c-4 2-10 3-14 0-4-2-7-7-7-11 0-5 4-10 8-12l41-24c4-2 3-5-1-6l-40-11c-4-1-8-6-8-11l0-11c0-4 4-7 8-6l73 19c4 2 11 1 15-2l79-45c4-2 4-6 0-8l-79-45c-4-3-11-4-15-2l-73 19c-4 1-8-2-8-6l0-11c0-5 4-10 8-11l40-10c4-2 5-5 1-7l-41-24c-4-2-8-7-8-12 0-4 3-9 7-11 4-2 10-2 14 0l41 24c4 2 7 0 5-4l-10-40c-1-4 1-10 5-12l10-6c4-2 8 0 9 4l20 73c1 4 5 10 9 12l78 45c4 3 7 1 7-4l0-90c0-5-2-11-5-14l-54-54c-3-3-2-7 2-10l9-5c4-3 10-2 14 1l29 29c3 4 5 2 5-2l0-48c0-4 4-10 7-12 4-2 10-2 14 0 3 2 7 8 7 12z"/>
<glyph glyph-name="collapse" unicode="&#91;" d="M0 132l252 252 253-252z"/>
<glyph glyph-name="conference-room" unicode="&#93;" d="M152 184l178 141c-36 8-64 36-72 72l-146-173c-11-11-11-29 0-40 11-11 29-11 40 0z m198 162c16 0 32 5 44 15-24 2-52 15-76 39-15 15-26 33-33 50-5-10-7-21-7-32 0-40 32-72 72-72z m59 31c8 11 13 25 13 41 0 39-33 72-72 72-20 0-37-8-50-21 6-18 17-37 34-53 23-24 51-37 75-39l0 0z m77-314c-2 5-52 124-162 117-78-5-121-46-160-82-14-14-28-27-43-37-24-17-47-11-59 1-9 9-14 23-4 37 26 37 39 52 39 52 5 6 5 14-1 19-6 5-15 5-20-1 0-1-13-16-41-54-16-23-13-52 7-72 12-12 29-21 49-21 15 0 30 5 46 16 17 11 31 25 47 40 36 34 74 70 142 74 90 6 134-98 135-99 3-7 11-11 18-8 7 3 10 11 7 18l0 0z"/>
<glyph glyph-name="contact" unicode="&#94;" d="M165 332c0-30-24-55-55-55-30 0-55 25-55 55 0 30 25 55 55 55 31 0 55-25 55-55z m88-88c35 0 63 29 63 64 0 35-28 64-63 64-36 0-64-29-64-64 0-35 28-64 64-64z m251-43c0 33-24 61-53 61l-99 0c-21 0-39-15-48-36l-96 0c-9 21-27 36-48 36l-99 0c-29 0-53-27-53-61l0-48 125 0 0-53 239 0 0 53 132 0 0 48z m-47 131c0-30-25-55-55-55-31 0-55 25-55 55 0 30 24 55 55 55 30 0 55-25 55-55z"/>
<glyph glyph-name="continental-breakfast" unicode="&#95;" d="M448 389c1 2 1 4 1 6 0 4-1 8-3 11-56 84-142 94-211 75l-3 7c-4 9-15 14-25 11-44-16-85-42-118-76-34-33-60-74-76-118-3-10 2-21 11-25l7-3c-6-20-8-40-8-59 0-44 14-106 83-152 5-3 11-4 17-2 43-41 87-51 117-52 38-1 74 12 96 35 10 10 16 23 16 36l0 1c-1 13-6 26-15 35-21 20-43 18-57 17-12-1-18-2-27 9 1 3 2 7 2 12 0 10-3 22-7 35 9 4 30 16 43 29 13 13 25 34 29 43 22-7 37-8 47-5 11-9 10-15 9-27-1-14-3-36 17-57 9-9 22-14 35-14 14-1 27 5 37 15 22 21 35 56 35 92l0 0c0 31-10 76-52 121z m-42 4l-51-95c-5 0-16 1-37 10l-66 136c38 9 105 13 154-51z m-343-175c0 14 1 28 5 42l136-66c9-21 11-32 11-37l0 0-96-51c-46 35-56 80-56 112z m221-122c13 1 17 1 25-6 2-2 2-6 2-7 0-3-1-5-3-8-15-14-41-23-67-23-21 1-50 7-80 31l64 34c21-24 43-23 59-21z m-22 154c-7-7-19-15-28-20l-170 76c0 0 0 0 0 0l-6 3c14 31 34 61 59 86 25 25 55 45 86 59l79-176c-5-9-13-21-20-28z m198 18c0-25-9-50-23-64-3-2-6-3-8-3-2 0-5 0-7 2-7 8-7 13-6 25 2 16 3 38-21 59l34 64c25-32 31-62 31-83l0 0z"/>
<glyph glyph-name="corporate-dress-code" unicode="&#96;" d="M192 447c0-26-21-47-46-47-25 0-46 21-46 47 0 27 21 48 46 48 25 0 46-21 46-48z m6-55l-34 0c-1 0-2-1-4-1l-1 0-7-12 7-84-12-8 0-1 0 0 0 0 0 1-12 8 7 84-7 12c-1 1-1 1-2 1l-33 0c-23 0-47-18-47-48 0-20-1-134-1-135 0-10 8-19 18-19l0 0c10 0 18 8 18 19 0 4 1 100 1 130 3 0 8 0 9-8l0-288c0-13 10-23 22-23 12 0 22 10 22 23l0 146c1 1 1 2 1 3 1 2 3 4 6 4 2 0 4-2 6-4 0-1 0-2 0-3l0-146c0-13 10-23 23-23 12 0 22 10 22 23l0 287c0 9 6 9 9 8 0-29 1-125 1-129 0-11 8-19 18-19l0 0c10 0 18 9 18 19 0 1-2 115-2 135 0 30-23 48-46 48z m254-33l-1 2c-1 18-5 34-35 34l-14 0c-2-15-14-25-27-25-14 0-25 10-28 25l-16 0c-29 0-34-16-35-34l-1-2c-1-16-8-119-8-123 0-8 5-14 13-15l0 0c7 0 13 6 14 13 0 1 6 106 8 122l10-78-30-168 35 0 0-79c0-7 6-14 14-14 7 0 13 7 13 14l0 79 19 0 0-79c0-7 6-14 13-14 8 0 14 7 14 14l0 79 35 0-30 168 10 78c2-16 8-121 8-122 1-7 7-13 14-13l1 0c7 1 13 7 12 15 0 4-7 107-8 123z m-31 88c0-26-20-47-46-47-25 0-45 21-45 47 0 27 20 48 45 48 26 0 46-21 46-48z"/>
<glyph glyph-name="cot" unicode="&#123;" d="M461 442l0-56-410 0 0 56-37 0 0-372 37 0 0 37 410 0 0-37 37 0 0 372z m-372-242l-38 0 0 149 38 0z m74 0l-37 0 0 149 37 0z m74 0l-37 0 0 149 37 0z m75 0l-37 0 0 149 37 0z m74 0l-37 0 0 149 37 0z m37 0l0 149 38 0 0-149z"/>
<glyph glyph-name="credit-card" unicode="&#124;" d="M463 413l-414 0c-17 0-31-14-31-31l0-252c0-17 14-31 31-31l414 0c17 0 31 14 31 31l0 252c0 17-14 31-31 31z m-212-267l-184 0 0 28 184 0z m189 54l-371 0 0 27 371 0z"/>
<glyph glyph-name="cruise" unicode="&#125;" d="M411 378l-44 19c0 0 0 1 0 1l-30 60c-3 5-9 8-14 8l-29 0 0 10c0 5-4 10-9 10l-58 0c-5 0-9-5-9-10l0-10-29 0c-5 0-11-3-14-8l-30-60c0 0 0 0 0-1l-44-19c-9-4-17-16-17-26l0-72 172 72 172-72 0 72c0 10-8 22-17 26z m-308-69l0 43c0 2 3 8 6 9l99 42c1 1 3 1 5 2l11 2c3 1 8 1 13 2l0-38c0-2 0-4 1-6l-135-56z m306 0l-135 56c1 2 1 4 1 6l0 38c5-1 9-1 13-2l13-3c1 0 2-1 3-1l99-42c3-1 6-7 6-9l0-43 0 0z m-76-283c10 0 23 8 28 17l108 167c6 9 2 20-7 24l-188 78c-10 4-26 4-36 0l-187-78c-10-4-14-15-8-24l108-167c5-9 18-17 28-17z"/>
<glyph glyph-name="cuisine" unicode="&#126;" d="M264 92c-90 0-164 73-164 163 0 91 74 164 164 164 90 0 164-73 164-164-1-90-74-163-164-163z m0 292c-71 0-128-58-128-129 0-70 57-128 128-128 71 0 128 58 128 128 0 71-57 129-128 129z m-183-47l0 64 0 1c0 3 0 6-5 6-2 0-5-2-5-6l0-1-1-46c0-3-2-6-6-6-5 0-6 4-6 6l-1 47 0 0c0 4-1 6-4 6-3 0-4-3-4-5l0-2-2-46c0-3-1-6-6-6-4 0-5 4-5 6l-1 47 0 0c0 4-2 6-5 6-5 0-5-3-5-5l0-65c0-15 4-27 17-38 0 0 2-14 1-34-1-20-13-134-1-152 3-6 17-6 21-1 9 16-2 133-2 153 0 20 2 34 2 34 0 0 18 17 18 37l0 0z m406-208l0 278c0 14-12 21-23 2-10-14-22-76-20-108 2-32 24-34 24-46 0-38-7-98-8-116-2-29 26-44 27-10l0 0z"/>
<glyph glyph-name="culinary" unicode="&#92;" d="M355 437c-6 0-11 0-17-2-15 31-47 51-82 51-35 0-67-20-82-51-6 2-11 2-17 2-51 0-92-41-92-91 0-37 23-71 57-85l28-222c1-7 7-13 15-13l182 0c8 0 14 6 15 13l28 222c34 14 57 48 57 85 0 50-41 91-92 91z m-177-381l-4 32 164 0-4-32z m194 231c-6-1-10-6-11-12l-20-157-170 0-20 157c-1 6-5 11-11 12-26 8-44 32-44 59 0 33 27 61 61 61 7 0 14-2 21-4 4-2 8-1 12 0 4 2 7 6 8 10 8 25 31 43 58 43 27 0 50-18 58-43 1-4 4-8 8-10 4-1 8-2 12 0 7 2 14 4 21 4 34 0 61-28 61-61 0-27-18-51-44-59z m-178 1c-8-1-14-9-13-17l13-108c1-8 7-13 15-13 1 0 1 0 2 0 8 1 14 8 13 17l-13 108c-1 8-8 14-17 13z m123 0c-9 1-16-5-17-13l-13-108c-1-9 5-16 13-17 1 0 1 0 2 0 7 0 14 5 15 13l13 108c1 8-5 16-13 17z"/>
<glyph glyph-name="cvv" unicode="&#57344;" d="M493 134l-58 53c12 16 19 36 19 58 0 57-46 103-103 103-57 0-103-46-103-103 0-56 46-102 103-102 20 0 39 6 55 16l60-54c4-4 9-6 14-6 5 0 10 3 14 7 8 8 7 21-1 28z m-142 179c37 0 68-30 68-68 0-37-31-68-68-68-37 0-68 31-68 68 0 38 31 68 68 68z m-33-92l-11 0 0 35-9 0 0 7 20 4z m48 0l-33 0 0 7 15 15c2 3 3 5 4 6 1 2 2 3 2 5 0 1-1 3-2 4-1 1-2 2-4 2-2 0-3-1-4-3-1-1-1-3-1-5l-11 0c0 5 1 8 4 11 3 3 7 5 12 5 5 0 9-1 12-4 3-2 4-6 4-10 0-3 0-6-2-8-1-2-4-6-8-10l-7-7 19 0 0-8z m15 27l5 0c2 0 3 1 4 2 2 1 2 2 2 4 0 2 0 3-1 4-1 1-3 2-4 2-2 0-3-1-4-2-1 0-2-2-2-3l-11 0c0 4 2 7 5 9 3 3 7 4 11 4 5 0 9-1 12-4 3-2 5-5 5-9 0-3-1-5-2-6-1-2-3-3-5-5 2 0 4-2 6-4 1-1 2-4 2-6 0-5-2-8-5-11-3-2-8-3-13-3-4 0-8 1-11 3-4 3-5 6-5 10l10 0c0-1 1-2 2-3 1-1 3-2 4-2 2 0 4 1 5 2 1 1 2 2 2 4 0 2-1 4-2 5-1 1-3 1-5 1l-5 0 0 8z m-293-7l3 8 9 0-7-12 7-13-9 0-3 8-4-8-8 0 7 13-7 12 9 0z m24 0l4 8 8 0-7-12 8-13-9 0-4 8-3-8-9 0 8 13-8 12 9 0z m25 0l3 8 9 0-8-12 8-13-9 0-3 8-4-8-8 0 7 13-7 12 9 0z m36 0l3 8 9 0-7-12 7-13-8 0-4 8-3-8-9 0 7 13-7 12 9 0z m24 0l4 8 8 0-7-12 8-13-9 0-3 8-4-8-9 0 8 13-7 12 8 0z m25 0l3 8 9 0-7-12 7-13-9 0-3 8-3-8-9 0 7 13-7 12 9 0z m252 132l0 24c0 17-14 30-30 30l-25 0c0 0 0 0-1 0l-351 0c0 0 0 0 0 0l-25 0c-17 0-30-13-30-30l0-22c0-1 0-2 0-3l0-182 0 0 0-42c0-16 13-30 30-30l24 0c0 0 1 0 1 0l351 0-22 20c-14-6-29-9-45-9-24 0-46 7-65 20l-219 0c-14 0-25 11-25 24l0 133 210 0c12 19 28 34 48 44l-258 0 0 22c0 13 11 25 25 25l351 0c14 0 25-12 25-25l0-22-40 0c38-19 65-59 65-105 0-16-4-32-10-47l16-15 0 189c0 0 0 1 0 1z"/>
<glyph glyph-name="debit-card" unicode="&#57345;" d="M465 413l-418 0c-17 0-31-14-31-30l0-251c0-17 14-30 31-30l418 0c17 0 31 13 31 30l0 251c0 16-14 30-31 30z m-321-205l-29 0 0-13 29 0 0-19-29 0 0-13 29 0 0-18-78 0 0 18 30 0 0 13-30 0 0 19 30 0 0 13-30 0 0 18 78 0z"/>
<glyph glyph-name="delete" unicode="&#57346;" d="M359 191c3-2 3-6 1-12-3-6-6-12-12-17-13-13-23-17-28-11l-65 64-64-64c-2-3-6-3-12-1-6 3-12 6-17 12-13 13-17 23-11 29l64 64-64 65c-3 1-3 5-1 11 3 6 6 12 12 17 12 12 21 16 29 11l64-64 65 64c1 3 5 3 11 1 6-3 12-6 17-12 12-12 16-22 11-28l-64-65z m-308 64c0-57 19-105 59-145 40-40 88-59 145-59 56 0 104 20 144 60 40 40 60 89 60 146 0 56-20 104-60 144-40 40-88 60-144 60-56 0-105-20-145-60-40-41-59-90-59-146z m204 255c69 0 129-25 179-74 25-26 44-53 57-82 13-29 19-61 19-97 1-70-24-130-75-181-50-49-110-74-180-74-70 0-130 24-181 73-49 50-74 110-74 180 0 71 25 131 74 181 50 49 110 74 181 74z"/>
<glyph glyph-name="delete-bold" unicode="&#57347;" d="M503 102c6-7 7-17 1-30-6-13-16-25-29-37-14-13-28-23-40-28-13-5-22-4-29 2l-151 152-152-152c-4-5-10-7-18-6-8 2-16 5-24 11-9 6-17 13-26 22-8 8-15 17-21 26-6 9-9 17-11 24-2 8 0 14 6 18l151 151-151 152c-8 6-9 16-2 29 6 14 15 27 28 39 12 13 25 22 39 28 13 7 23 6 29-2l154-151 151 151c6 8 16 9 30 2 14-6 27-15 39-28 12-12 21-25 28-39 6-13 6-23-2-29l-152-154z"/>
<glyph glyph-name="delete-light" unicode="&#57348;" d="M496 89c3-4 6-8 9-13 3-5 5-11 6-17 1-7 0-14-2-21-2-8-6-15-13-21-15-12-26-17-33-15-6 3-13 7-21 15l-186 186-185-186c-4-4-8-8-11-11-4-3-7-5-11-5-4-1-8 0-13 2-5 3-11 7-19 14-8 6-12 13-14 21-2 7-3 14-2 21 1 6 3 12 6 17 3 5 6 9 10 13l177 177-177 177c-4 4-8 7-11 11-3 3-5 6-5 10-1 4 0 8 2 13 2 5 7 12 14 20 6 6 13 11 21 13 7 2 14 2 21 1 6-1 12-3 17-6 5-3 9-6 13-8l168-168 167 168c3 2 7 5 12 8 6 3 12 5 18 6 7 1 14 1 21-1 7-2 14-7 21-13 12-16 17-27 15-33-2-7-7-14-15-21l-177-177z"/>
<glyph glyph-name="destination-served" unicode="&#57349;" d="M256 230c-44 0-79 36-79 79 0 44 35 80 79 80 44 0 79-36 79-80 0-43-35-79-79-79z m0 261c-99 0-180-81-180-180 0-124 180-290 180-290 0 0 180 156 180 290 0 99-81 180-180 180z"/>
<glyph glyph-name="destinations" unicode="&#57350;" d="M422 422c-44 44-103 69-166 69-63 0-122-25-166-69-44-44-69-103-69-166 0-63 25-122 69-166 44-44 103-69 166-69 63 0 122 25 166 69 44 44 69 103 69 166 0 63-25 122-69 166z m-206 30c-11-9-21-20-30-31-16-20-29-41-39-63l-67 0c30 49 79 83 136 94z m-151-125l71 0c-6-19-9-37-10-57l-73 0c1 20 5 39 12 57z m-12-85l73 0c1-20 4-39 10-57l-71 0c-7 18-11 37-12 57z m27-88l67 0c10-22 23-43 39-63 9-11 19-22 30-31-57 11-106 45-136 94z m161-76c-16 15-40 40-58 76l58 0z m0 107l-72 0c-6 18-10 37-11 57l83 0 0-57z m0 85l-83 0c1 20 5 39 11 57l72 0 0-57z m0 88l-58 0c18 36 42 61 58 76z m218-88l-73 0c-1 20-4 39-10 57l71 0c7-18 11-37 12-57z m-27 88l-67 0c-10 22-23 43-39 63-9 11-19 22-30 31 57-11 106-45 136-94z m-161 76c16-15 40-40 58-76l-58 0z m0-107l72 0c6-18 10-37 11-57l-83 0z m0-85l83 0c-1-20-5-39-11-57l-72 0z m0-164l0 76 58 0c-18-36-42-61-58-76z m25-18c11 9 21 20 30 31 16 20 29 41 39 63l67 0c-30-49-79-83-136-94z m151 125l-71 0c6 18 9 37 10 57l73 0c-1-20-5-39-12-57z"/>
<glyph glyph-name="disabled-facilities" unicode="&#57351;" d="M445 119c0 0 0 0 0 0l-75 123c-4 8-12 13-21 13l-110 0 0 25 75 0c11 0 20 8 20 19 0 11-9 20-20 20l-75 0 0 38c0 24-20 44-45 44-24 0-44-20-44-44l0 0-1-106c0-37 25-59 69-57l124 0 60-100 0 0c0-1 0-1 0-1 7-12 23-15 35-8 11 7 15 22 8 34z m-226-70c-68 0-123 55-123 123 0 36 15 68 39 91l0 41c-43-28-72-76-72-132 0-86 70-155 156-155 68 0 125 43 147 103l-24 40c-7-62-59-111-123-111l0 0z m18 403c0-23-19-43-43-43-24 0-43 20-43 43 0 24 19 43 43 43 24 0 43-19 43-43z"/>
<glyph glyph-name="diving-equipment" unicode="&#57352;" d="M169 413l0 0c-2 15-19 29-37 29-19 0-35-14-37-29l0 0-60-238 0-74c0 0 27-30 97-30 69 0 96 30 96 30l0 74-59 238z m-37-102c-17 0-30 11-30 28 0 0 0 3 0 3 0 1 1 4 1 6 0 0 12 52 12 52 0 9 8 16 17 16 9 0 16-7 16-16 0 0 0 0 0 0l12-51c1-2 1-6 1-7 0 0 1-3 1-3 0-17-14-28-30-28z m128 137l0 0c-10 11-33 13-47 2-15-11-20-33-13-46l0 0 91-228 43-59c0 0 40-9 96 32 56 41 61 81 61 81l-43 59z m29-104c-13-10-30-9-40 4 0 1-1 3-1 3-1 2-3 4-3 6 0 0-21 49-21 49-5 7-4 18 4 23 7 5 17 4 23-4 0 0 0 0 0 0l39-34c2-1 4-4 6-5l1-3c0 0 0 1 0 0 10-13 6-30-8-39l0 0z"/>
<glyph glyph-name="document-paper" unicode="&#57353;" d="M60 0l0 512 237 0 0-147 161 0 0-365z m346 320l-154 0 0 83-141 0 0-352 295 0z m-263-206l232 0 0-33-232 0z m0 65l232 0 0-32-232 0z m0 63l232 0 0-32-232 0z m0 109l78 0 0-33-78 0z m187 33l0 128 128-128z"/>
<glyph glyph-name="double-big-arrow-left" unicode="&#57354;" d="M510 379c0-4-2-8-4-11l-105-108 104-111c3-6 5-10 5-13l0-115c0-5-2-8-5-12-4-4-8-6-11-6-5 0-8 2-11 6l-222 238c-7 8-7 16 0 24l224 236c3 3 7 5 11 5 3 0 6-1 9-4 3-3 5-7 5-12z m-259 128c4-4 6-8 6-11l0-115c0-4-2-9-6-13l-103-108 103-111c4-4 6-8 6-13l0-115c0-5-2-9-6-12-6-9-12-9-20 0l-223 238c-6 8-6 16 0 24l223 236c3 3 7 5 11 5 3 0 6-2 9-5z"/>
<glyph glyph-name="double-big-arrow-right" unicode="&#57355;" d="M503 271c6-7 6-16 0-26l-221-238c-7-7-14-7-22 0-3 5-5 10-5 13l0 113c0 4 2 8 5 13l104 111-104 110c-3 5-5 10-5 13l0 114c0 4 2 8 5 13 5 3 9 5 11 5 3 0 6-2 11-5z m-254 0c7-7 7-15 0-23l-220-237c-4-4-7-6-11-6-4 0-7 2-11 6-3 3-5 7-5 12l0 114c0 5 1 9 4 11l103 111-102 110c-3 5-5 10-5 13l0 114c0 2 2 6 5 11 2 3 6 5 11 5 4 0 7-2 11-5z"/>
<glyph glyph-name="drinks" unicode="&#57356;" d="M355 304c6-1 12-2 19-2 51 0 93 42 93 93 0 52-42 93-93 93-40 0-75-25-88-60l105 0c0 0 26-1 26-32 0-16-62-92-62-92l0 0z m15 61c21 25 0 28 0 28l-315 0c0 0-22-3 0-28l142-165 0-135-75-32 0-9 180 0 0 9-75 32 0 135z"/>
<glyph glyph-name="driver" unicode="&#57357;" d="M161 406l-47 52 56 36 88 18 87-20 59-33-51-54-3-4 0-1c-25-22-56-34-92-34-18 0-34 3-49 7-15 5-29 14-41 26l-1 1z m251-203c22 0 41-8 56-24 16-16 23-35 23-57l0-120-198 0-20 68 25 62-39 39-39-39 25-62-17-69-210 0 0 121c0 22 7 41 23 57 15 16 34 24 56 24z m-255 180c29-22 62-33 100-33 36 0 69 10 98 31 7-17 11-32 10-46 0-14-4-28-10-41-5-13-13-25-23-34-10-9-22-17-35-22-13-6-27-8-41-8-15 0-29 2-42 8-14 5-25 13-35 22-10 9-18 21-24 34-6 13-9 27-10 41-1 16 3 32 12 48z"/>
<glyph glyph-name="duty-free" unicode="&#57358;" d="M413 309c1 1 1 2 1 4l0 45c0 12-10 22-22 22l-21 0 0 39 14 0 0 23-14 0 0 10c0 13-10 23-23 23l-20 0c-12 0-22-10-22-23l0-1c-28 9-92 23-146-3-16-8-30-19-41-32-33 3-70-24-90-67-23-51-13-105 23-122 35-16 83 12 106 63 20 44 15 90-9 112 8 7 16 13 25 17 51 25 117 4 132-1l0-38-19 0c-13 0-23-10-23-22l0-45c0-2 1-3 1-4-49-27-82-79-82-138 0-57 30-106 75-134l162 0c45 28 76 77 76 134 0 59-34 111-83 138l0 0z"/>
<glyph glyph-name="duty-free-bag" unicode="&#57359;" d="M338 398c0 18-4 51-25 73-14 15-33 22-57 22-27 0-49-8-64-24-21-23-24-55-24-71l-69 0 0-379 314 0 0 379-74 0z m-158-68c-9 0-16 7-16 17 0 9 7 16 16 16 9 0 16-7 16-16 0-10-7-17-16-17z m33 121c10 11 24 16 43 16 16 0 27-4 36-14 15-15 18-41 19-55l-115 0c0 12 2 37 17 53z m112-121c-9 0-16 7-16 17 0 9 7 16 16 16 9 0 17-7 17-16 0-10-8-17-17-17z"/>
<glyph glyph-name="edit" unicode="&#57360;" d="M501 403c7-8 11-16 11-25-1-9-4-17-11-24l-24-23c-7-7-15-11-24-10-9 0-17 4-23 10l-98 98c-6 6-10 14-9 23 0 10 3 18 9 24l23 24c7 7 16 10 25 10 9 0 17-3 24-10z m-302-311l-102 104-4-3c-9-16-18-38-27-64l-5-13 58-58 13 5c15 5 27 10 38 15 10 4 18 8 25 12l2 2z m203 214c7-7 10-15 10-25-1-9-4-17-10-23l-12-13-169-169-6-5c-13-13-60-32-140-57l-5 0c-3-1-6-2-8-3-2-1-4-2-7-2-5-3-9-4-12-2-22-4-34-5-38-2-5 6-5 18 1 38l4 13c0 1 1 2 1 3 1 1 1 2 1 3l1 2c1 1 1 2 1 3 0 1 0 3 1 4 0 1 0 2 0 3l0 2c13 41 25 73 35 96 9 23 17 37 22 44l5 6 169 169 13 12c7 6 15 10 24 10 10 0 18-4 24-10z"/>
<glyph glyph-name="email" unicode="&#57361;" d="M510 85l-510 0 0 350 510 0z m-67 40l-105 107-84-85-84 85-105-107z m-403 239l0-211 104 105z m20 31l195-194 195 194z m305-136l104-105 0 210z"/>
<glyph glyph-name="email-text-on-board" unicode="&#57362;" d="M151 271l-24 0 0 24c0 9-7 16-15 16-9 0-16-7-16-16l0-24-23 0c-9 0-16-6-16-15 0-9 7-15 16-15l23 0 0-24c0-9 7-16 16-16 8 0 15 7 15 16l0 24 24 0c8 0 15 6 15 15 0 9-7 15-15 15z m238 98l-266 0c-62 0-113-50-113-113 0-63 51-113 113-113l266 0c62 0 113 50 113 113 0 63-51 113-113 113z m-277-187c-41 0-74 33-74 74 0 41 33 74 74 74 41 0 74-33 74-74 0-41-33-74-74-74z m230 52c-12 0-23 11-23 24 0 12 11 23 23 23 13 0 24-11 24-23 0-13-11-24-24-24z m49-50c-13 0-23 10-23 23 0 13 10 23 23 23 13 0 23-10 23-23 0-13-10-23-23-23z m0 98c-13 0-23 10-23 23 0 13 10 23 23 23 13 0 23-10 23-23 0-13-10-23-23-23z m49-48c-13 0-23 11-23 24 0 12 10 23 23 23 13 0 23-11 23-23 0-13-10-24-23-24z"/>
<glyph glyph-name="engine" unicode="&#57363;" d="M256 504c-137 0-248-111-248-248 0-137 111-248 248-248 137 0 248 111 248 248 0 137-111 248-248 248z m135-344l40 14c-6-14-14-27-24-39l0 0-107 87c7 10 11 21 11 33 0 30-25 55-55 55-30 0-55-25-55-55 0-30 25-55 55-55 18 0 34 9 44 22l64-94 43 6c-29-36-71-61-119-69l-38 134-1-115 39-19c-11-2-21-3-32-3-7 0-14 0-20 1-21 2-40 8-58 16l55 124-73-82 17-42c-16 7-32 17-46 29l94 100-95-56 1-44c-13 11-25 24-34 38l121 68-112-25-10-42c-8 11-15 24-20 38l128 47-110-5-18-42c-6 14-10 29-12 44l134 24-109 15-25-37c-1 8-2 16-2 25 0 8 1 15 1 22l138-6-105 36-33-29c2 15 6 30 11 44l135-34-99 59-35-23c6 16 14 31 24 45l116-74-73 86-42-12c11 16 25 30 41 42l80-112-34 105-45 7c32 24 71 38 114 38 10 0 20-1 29-2l-24-137 52 103-26 33c47-7 88-31 117-66l-95-102 99 58-4 44c29-34 46-77 46-125 0-29-7-56-18-81l-121 68z m-188-65l33-32 4 138z m123 340l-43-130 65 89z m43-24l-70-118 81 75z m62-75l-120-68 110 24z m17-56l-136-17 108-20z m-136-27l98-53 37 25z m-83 52l0 111-39 22z m12 144l-3-140 35 109z m134-345l-89 104 43-101z m-42-25l-65 122 22-109z"/>
<glyph glyph-name="escalator" unicode="&#57364;" d="M468 156c0 9-4 13-13 13l-154 0c-5 0-8 2-9 5l-161 219c-5 4-9 5-10 5l-72 0c-9 0-13-4-13-14l0-20c0-8 4-13 13-13l41 0c5 0 9-1 11-5l161-219c3-3 7-5 10-5l183 0c9 0 13 5 13 14z m-174 163c-10 0-14-4-12-14l0-20c1-8 5-13 13-13l161 0c9 0 13 5 13 13l0 20c0 10-4 14-13 14z m161-113c13 0 25-5 35-15 9-10 14-21 14-35l0-20c0-14-5-27-14-36-10-10-22-15-35-15l-183 0c-8 0-15 2-22 5-7 4-13 9-18 15l-153 209-30 0c-13 0-25 5-34 15-10 9-15 21-15 35l0 20c0 15 5 27 15 37 9 9 21 14 34 14l72 0c8 0 15-1 22-5 8-5 14-10 18-15l82-114 0 5c0 14 5 26 15 36 9 10 20 15 35 15l162 0c13 0 24-5 34-15 10-10 15-22 15-36l0-19c0-14-5-26-15-36-8-10-19-15-34-15l-163 0 22-30z"/>
<glyph glyph-name="eticket" unicode="&#57365;" d="M338 504l-265 0 0-496 366 0 0 411z m-228-459l0 422 215 0-1-97 78 0 0-325z m39 180l215 0 0-37-215 0z m0-96l215 0 0-36-215 0z m0 191l215 0 0-37-215 0z m0 96l91 0 0-37-91 0z"/>
<glyph glyph-name="evoucher" unicode="&#57366;" d="M431 409l-422 0 0-306 494 0 0 222z m41-275l-432 0 0 244 350 0 0-65 82 0 0 0 0-179 0 0z m-369 104l-16 0c-3 0-5-2-5-4l0-17c0-3 2-4 5-4l16 0c3 0 4 1 4 4l0 17c0 2-1 4-4 4z m0-51l-16 0c-3 0-5-1-5-4l0-17c0-2 2-4 5-4l16 0c3 0 4 2 4 4l0 17c0 3-1 4-4 4z m87 126l136 0c2 0 4 2 4 4l0 17c0 2-2 4-4 4l-136 0c-2 0-4-2-4-4l0-17c0-2 2-4 4-4z m-87-25l-16 0c-3 0-5-2-5-4l0-17c0-2 2-4 5-4l16 0c3 0 4 2 4 4l0 17c0 2-1 4-4 4z m306-50l-219 0c-2 0-4-2-4-4l0-17c0-3 2-4 4-4l219 0c2 0 4 1 4 4l0 17c0 2-2 4-4 4z m0 50l-219 0c-2 0-4-2-4-4l0-17c0-2 2-4 4-4l219 0c2 0 4 2 4 4l0 17c0 2-2 4-4 4z m-306 50l-16 0c-3 0-5-2-5-4l0-17c0-2 2-4 5-4l16 0c3 0 4 2 4 4l0 17c0 2-1 4-4 4z m306-151l-219 0c-2 0-4-1-4-4l0-17c0-2 2-4 4-4l219 0c2 0 4 2 4 4l0 17c0 3-2 4-4 4z"/>
<glyph glyph-name="evoucher-inverted" unicode="&#57367;" d="M387 281c0 3-1 4-4 4l-217 0c-3 0-5-1-5-4l0-17c0-2 2-4 5-4l217 0c3 0 4 2 4 4z m0-51c0 3-1 4-4 4l-217 0c-3 0-5-1-5-4l0-17c0-3 2-5 5-5l217 0c3 0 4 2 4 5z m0-53c0 3-1 5-4 5l-217 0c-3 0-5-2-5-5l0-16c0-4 2-5 5-5l217 0c3 0 4 1 4 5z m-303 157c0 2-2 4-4 4l-17 0c-3 0-4-2-4-4l0-18c0-3 1-4 4-4l17 0c2 0 4 1 4 4z m0-53c0 3-2 4-4 4l-17 0c-3 0-4-1-4-4l0-17c0-2 1-4 4-4l17 0c2 0 4 2 4 4z m0-51c0 3-2 4-4 4l-17 0c-3 0-4-1-4-4l0-17c0-3 1-5 4-5l17 0c2 0 4 2 4 5z m0-53c0 3-2 5-4 5l-17 0c-3 0-4-2-4-5l0-16c0-4 1-5 4-5l17 0c2 0 4 1 4 5z m77 139c0-3 2-4 5-4l134 0c3 0 4 1 4 4l0 18c0 2-1 4-4 4l-134 0c-3 0-5-2-5-4z m252-13c0-5 2-8 7-8l99 0 0-184c0-5-2-7-7-7l-505 0c-5 0-7 2-7 7l0 288c0 5 2 7 7 7l406 0z m23 7c-6 0-9 3-9 9l0 87 92-96z"/>
<glyph glyph-name="excess-baggage" unicode="&#57368;" d="M455 329l0 0-94 0 0 36c0 9-8 17-17 17l-71 0c-10 0-17-8-17-17l0-36-63 0-37 0 0-1c-26-2-47-24-47-51l0-171c0-29 23-52 52-52l294 0c28 0 52 23 52 52l0 171c0 28-23 52-52 52z m-268-248l-26 0c-13 0-24 11-24 25l0 171c0 13 11 24 24 24l26 0z m87 282l68 0 0-34-68 0z m128-282l-188 0 0 220 188 0z m77 25c0-14-11-25-24-25l-26 0 0 220 26 0c13 0 24-11 24-24z m-337 267l0 14c0 4-3 7-7 7l-48 0 0 47c0 4-3 7-7 7l-13 0c-4 0-7-3-7-7l0-47-48 0c-4 0-7-3-7-7l0-14c0-4 3-7 7-7l48 0 0-47c0-4 3-7 7-7l13 0c4 0 7 3 7 7l0 47 48 0c4 0 7 3 7 7z"/>
<glyph glyph-name="exclamation" unicode="&#57369;" d="M208 0l0 98 100 0 0-98z m22 132l-25 259 0 121 106 0 0-121-25-259z"/>
<glyph glyph-name="expand" unicode="&#57370;" d="M504 384l-252-252-252 252z"/>
<glyph glyph-name="explore" unicode="&#57371;" d="M256 16c-132 0-240 108-240 240 0 132 108 240 240 240 132 0 240-108 240-240 0-132-108-240-240-240z m0 445c-113 0-205-92-205-205 0-113 92-205 205-205 113 0 205 92 205 205 0 113-92 205-205 205z m41-234l54 120c2 4 0 6-4 4l-120-54c-4-2-10-8-12-12l-54-120c-2-4 0-6 4-4l120 54c4 2 10 8 12 12z m-56 14c-8 8-8 22 0 30 8 8 22 8 30 0 8-8 8-21 0-30-8-8-21-8-30 0z"/>
<glyph glyph-name="explore-reverse" unicode="&#57372;" d="M272 272c8-9 8-23 0-32-9-8-23-8-32 0-8 9-8 23 0 32 9 8 23 8 32 0z m224-16c0-133-107-240-240-240-133 0-240 107-240 240 0 133 107 240 240 240 133 0 240-107 240-240z m-142 103l-129-59c-5-2-11-8-13-13l-59-129c-2-5 0-7 5-5l129 59c5 2 11 8 13 13l59 129c2 5 0 7-5 5z"/>
<glyph glyph-name="external-link" unicode="&#57373;" d="M342 412l-109-108c-3-3-3-8 0-11l56-57c3-3 8-3 11 0l109 109 46-47c3-2 6-1 6 3l24 181c0 4-3 7-6 6l-182-23c-4 0-5-3-2-6z m90-127l0-157c0-26-22-48-48-48l-255 0c-27 0-48 22-48 48l0 255c0 27 21 48 48 48l145 0-44 46-116 0c-44 0-79-35-79-79l0-284c0-44 35-79 79-79l284 0c44 0 79 35 79 79l0 124z"/>
<glyph glyph-name="facebook" unicode="&#57374;" d="M464 512l-416 0c-27 0-48-22-48-48l0-416c0-26 21-48 48-48l2 0 0 1 223 0 0 193-67 0 0 76 67 0 0 57c0 65 40 101 99 101 28 0 52-2 59-3l0-68-41 0c-32 0-38-15-38-38l0-49 76 0-10-76-66 0 0-193 110 0 0-1 2 0c27 0 48 22 48 48l0 416c0 26-21 48-48 48z"/>
<glyph glyph-name="farelock-6-hours" unicode="&#57375;" d="M279 321c-1 5-5 9-12 12l0 60c0 6-3 9-8 9l-15 0c-5 0-8-3-8-9l0-60c-11-7-16-16-16-27 0-18 14-32 32-32 12 0 21 5 27 15l29 0c5 0 8 3 8 9l0 15c0 6-3 8-8 8l-29 0z m-11-154c18 0 32-7 44-22 11-15 16-34 16-57 0-24-6-42-19-56-12-15-28-22-48-22-17 0-32 6-45 18-18 17-27 44-27 80 0 5 0 9 1 14 1 31 10 56 26 76 15 21 35 32 60 32 10 0 21-3 31-9l0-26c-11 11-21 17-32 17-13 0-23-7-31-23-7-13-11-29-11-48 5 11 13 18 22 23 4 1 8 2 13 3z m-6-137c9 0 17 6 23 16 6 11 9 25 9 41 0 16-3 29-10 41-6 11-13 17-22 17-9 0-16-6-23-17-6-12-9-25-9-41 0-16 3-30 9-41 7-10 14-16 23-16z m124 410c-2 2-4 3-6 5-2 2-4 3-5 5-23 19-48 33-76 39-3 1-5 2-7 2-1 0-3 1-4 1-24 5-48 5-72 0-37-7-70-24-99-52-37-37-55-82-55-134 0-65 32-123 83-157 2-1 4-3 6-4 1-1 2-1 4-2 2 10 4 19 8 28-9 6-17 13-25 21-15 15-27 31-35 49 0 0 0 0 0 0-9 20-13 42-13 65 0 44 15 82 47 114 20 20 43 33 67 41 6 1 11 2 16 4 10 1 21 2 32 2 15 0 30-2 44-6 2 0 5-1 7-2 3-1 6-2 9-3 6-2 11-5 15-7 4-2 7-4 10-6 2-1 3-2 5-4 8-5 16-12 24-19 16-16 28-34 35-53 8-18 12-39 12-61 0-45-16-83-47-114-6-6-12-11-19-16 4-9 7-18 9-28 10 7 20 15 29 24 12 12 22 25 30 38 0 0 0 0 0 0 1 1 1 2 2 4 1 2 2 4 4 6 2 4 4 9 6 13 0 0 0 1 0 1 10 23 15 47 15 72 0 52-19 97-56 134z"/>
<glyph glyph-name="farelock-no-time" unicode="&#57376;" d="M289 275c-1 5-7 10-15 15l0 74c0 8-4 11-10 11l-19 0c-7 0-10-3-10-11l0-74c-14-10-21-21-21-35 0-23 19-40 40-40 16 0 27 7 35 20l36 0c6 0 9 3 9 10l0 19c0 7-3 11-9 11l-36 0z m172-135c2 3 3 5 5 8 2 5 5 11 8 17 0 0 0 0 0 1 12 28 18 58 18 89 0 65-24 121-70 168-3 2-5 4-7 6-2 2-5 4-7 6-28 25-60 41-95 50-3 1-6 1-8 2-2 0-3 1-5 1-30 6-60 6-90 0-47-8-88-30-123-65-47-47-69-102-69-168 0-80 40-153 103-196 2-1 5-3 7-4 2-2 4-3 7-4 35-21 75-32 119-32 66 0 121 23 168 70 14 14 27 30 37 47 0 0 0-1 0-1 1 2 1 3 2 5z m-64-27c-39-39-86-59-143-59-56 0-103 20-142 59-19 18-33 39-43 61 0 0 0 0 0 0-11 25-17 52-17 81 0 55 20 103 60 143 24 25 52 42 83 51 7 2 14 3 20 5 13 2 26 3 39 3 20 0 38-2 56-7 3-1 6-2 8-3 5-1 9-3 12-4 7-3 13-6 19-9 4-2 8-5 12-7 2-2 4-3 7-5 10-7 20-15 29-24 20-20 35-42 45-66 9-23 14-49 14-76 0-57-20-104-59-143z"/>
<glyph glyph-name="fares" unicode="&#57377;" d="M139 376c10 9 14 20 13 31-2 11-6 21-14 28-8 7-17 12-27 13-11 2-21-2-30-12-8-8-12-18-12-30 0-11 4-21 12-30 8-9 18-14 29-14 11 0 21 5 29 14z m358-161c2-1 3-4 3-7 0-3-1-6-3-7l-190-199c-4-5-9-5-14 0l-277 289c-5 5-7 11-7 18l0 192c0 7 3 11 11 11l183 0c6 0 12-2 18-7z"/>
<glyph glyph-name="filetype-pdf" unicode="&#57378;" d="M446 270l-380 0c-15 0-29-13-29-28l0-132c0-16 14-28 29-28l380 0c15 0 29 12 29 28l0 132c0 15-14 28-29 28z m9-160c0-5-4-9-9-9l-380 0c-5 0-9 4-9 9l0 132c0 5 4 9 9 9l380 0c5 0 9-4 9-9z m-32 302l-83 81c-3 2-8 3-12 3l-211 0c-11 0-23-4-23-14l0-231 29 0 0 216 180 0 0-70c1-12 11-22 23-24l72 0 0-123 29 0 0 149c0 4-1 9-4 13z m-24-368l-276 0 0 57-28 0 0-61c1-12 10-22 23-24l294 0c11 0 15 13 15 24l0 61-28 0 0-57z m-242 135l8 0c4-1 9 1 13 3 4 3 6 7 6 12 0 4-2 8-5 11-3 3-7 4-12 3l-8 0 0-28z m-22 43l29 2c11 0 21-2 30-8 6-5 10-13 10-22 1-8-2-16-9-22-8-7-20-11-31-11l-7 0 0-32-22 0 0 94 0-1z m105-79l8 0c20 0 32 11 32 33 1 8-2 17-8 23-6 6-14 9-23 8l-9 0z m-22 79l29 2c14 1 27-3 39-11 11-9 17-22 16-36 1-15-5-29-16-39-13-9-28-13-45-12l-23 3z m100 2l59 0 0-18-37 0 0-22 34 0 0-18-34 0 0-37-22 0z"/>
<glyph glyph-name="filter" unicode="&#57379;" d="M1 468c-1 5-1 9 0 12 1 4 4 6 10 6l484 0c6 0 9-1 10-5 2-3 2-7 0-11l-62-113c-1-4-4-6-10-6l-361 0c-1 0-4 2-9 4z m399-153c5 0 8-2 10-7 4-3 4-7 0-11l-54-98c-2-4-5-7-10-7l-188 0c-4 0-8 3-10 7l-54 98c-1 4-1 8 0 11 2 5 6 7 10 7z m-77-164c4-4 4-7 0-11l-60-111c-1-3-4-5-9-5-4 0-8 2-11 5l-62 112c-2 5-2 9 0 12 3 4 6 6 10 6l122 0c6 0 9-3 10-8z"/>
<glyph glyph-name="finance" unicode="&#57380;" d="M145 272c29-20 50-26 50-26l16 20-8 22 24 1 18 24 12 16 18 23-6 24 23-1 15 20c0 0-11 19-39 41-27 23-59 26-59 26l-15-21 5-21-21 1-29-39-14-19 6-20-21 0-16-21c0 0 12-30 41-50z m331-70l-130 98c-1 1-51-65-51-65 0-1 1-1 1-1l130-98c20-15 47-12 61 6 14 18 9 45-11 60l0 0z m-193 41l-47 36 50 65 47-35z m58-125c-7 20-32 17-32 17 0 0 13 34-36 34l-171 0c-49 0-36-34-36-34 0 0-25 3-32-17-6-21-4-13-14-36-9-24 3-32 22-32l291 0c18 0 31 8 22 32-10 23-8 15-14 36z"/>
<glyph glyph-name="finance-money" unicode="&#57381;" d="M255 410l57 0c0 0 36 69 38 81 3 12-35 12-43-3-7-14-21-23-21-23l-5 14c-3 10-15 13-21 14l0 0c0 0-1 0-3 0-1 0-2 0-2 0l0 0c-7-1-18-4-21-14l-5-14c0 0-14 9-22 23-7 15-45 15-42 3 2-12 38-81 38-81l52 0z m42-73l32 0 0 48-146 0 0-48 32 0c0 0-103-92-106-177-2-80 53-141 141-146l0-1c2 0 4 0 6 0 2 0 4 0 6 0l0 1c88 5 143 66 141 146-3 85-106 177-106 177z m-2-236c-7-5-16-9-26-11l0-31-28 0 0 29c-9 0-17 1-24 3-9 2-17 5-25 8l0 36 4 0c7-6 16-11 25-15 9-3 18-5 26-5 3 0 5 0 9 1 4 0 6 1 9 2 2 1 4 3 6 5 2 2 3 5 3 8 0 4-1 7-4 9-3 3-7 4-11 5-5 2-11 3-17 4-5 2-11 3-16 5-12 4-20 9-25 16-5 7-8 16-8 27 0 14 6 25 18 34 9 6 19 10 30 12l0 31 28 0 0-31c5-1 9-1 14-1 9-2 17-5 24-8l0-34-3 0c-6 4-13 8-21 12-8 3-16 5-25 5-3 0-6-1-9-1-3-1-5-1-8-3-3-1-5-2-6-5-2-2-3-4-3-7 0-4 1-7 4-9 3-2 8-4 16-6 5-1 10-2 15-4 4-1 9-2 15-4 10-4 18-9 23-15 5-7 8-15 8-26 0-15-6-27-18-36z"/>
<glyph glyph-name="fire-hose" unicode="&#57382;" d="M410 125l0 168c0 22-16 41-38 47l0 12 39 0 0-7 95-19 0 72-95-22 0-7-39 0 0 13-30 0 0-13c0 0-13-3-20-7-17-8-31-21-37-32-3-4-3-11 2-13 5-3 11 2 14 6 8 8 28 27 41 27l0-10c-22-6-38-25-38-47l0-168c0-6 5-11 12-11l83 0c6 0 11 5 11 11l0 0z m-173 227l15 2 0-22-15 3-1 0-79-3 0 23 79-3z m-102 9l20 0 0-35-20 0z m-4-112c1 0 2 0 3 0 13 0 24-5 25-26 0-20-16-39-42-39-26 0-41 20-40 46 0 27 24 54 57 54 33 0 60-21 60-61 0-40-27-71-74-72-47-1-77 42-76 79 0 36 28 92 97 89 70-2 95-56 96-96 0-48-44-105-112-107-64-1-119 47-119 112 0 66 52 123 116 127l10 0 0-22-9-1c-53-3-95-49-95-103 0-54 44-94 97-93 54 1 92 49 91 88 0 33-24 76-78 76-53 0-76-40-76-70 0-30 23-64 59-62 35 3 55 24 55 57 0 32-27 40-44 40-17 0-37-16-37-35 0-19 8-27 21-27 13 0 23 6 23 19 0 8-4 11-8 10l0 17z"/>
<glyph glyph-name="first-class-private-suite" unicode="&#57383;" d="M459 442l-172 0c-12 0-23-6-31-14-8 8-19 14-31 14l-172 0c-24 0-43-20-43-43l0-286c0-23 19-43 43-43l172 0c12 0 23 6 31 14 8-8 19-14 31-14l172 0c24 0 43 20 43 43l0 286c0 23-19 43-43 43z m-215-329c0-5-2-10-6-13-3-4-8-6-13-6l-172 0c-5 0-10 2-13 6-4 3-6 8-6 13l0 286c0 5 2 10 6 13 3 4 8 6 13 6l172 0c5 0 10-2 13-6 4-3 6-8 6-13l0-286z m234 0c0-5-2-10-6-13-3-4-8-6-13-6l-172 0c-5 0-10 2-13 6-4 3-6 8-6 13l0 286c0 5 2 10 6 13 3 4 8 6 13 6l172 0c5 0 10-2 13-6 4-3 6-8 6-13z m-199 171l0-43c12 0 22 9 22 21 0 12-10 22-22 22z m-70-22c0-12 10-21 22-21l0 43c-12 0-22-10-22-22z m98 113c-1-2-1-4-1-6l0-7 133 0 0 7c0 2 0 4-1 6z m-1-27l133 0 0-13-133 0z m0-36c0-1 0-2 0-4l133 0c0 2 0 3 0 4l0 9-133 0z m-101 57c0 2 0 4-1 6l-132 0c0-2 0-4 0-6l0-7 133 0z m-133-21l133 0 0-13-133 0z m0-36c0-1 0-2 0-4l133 0c0 2 0 3 0 4l0 9-133 0z"/>
<glyph glyph-name="fitness" unicode="&#57384;" d="M343 261l-122-78-43 68 121 78z m-294 13c-7 10-4 25 7 31l15 10c11 7 25 4 32-6l140-218c7-11 3-25-7-32l-16-10c-10-6-24-3-31 7l-140 218 0 0z m229 147c-7 11-4 25 7 31l15 11c11 6 25 3 32-7l140-218c7-10 3-25-7-31l-16-10c-10-7-24-4-31 6z m-242-186l-8-5c-11-6-14-21-7-31l79-123c7-11 21-14 32-7l7 5-103 161z m344 222l-8-5 104-162 8 5c11 7 14 21 7 31l-79 124c-7 10-21 13-32 7z"/>
<glyph glyph-name="fleet" unicode="&#57385;" d="M189 170l3-4-52-23c-9-5-17-9-24-12-7-3-13-7-18-10l6-11 21-22c2-2 7-8 13-18l38 4c4 0 9-1 13-4l5-5-41-18 3-7 7-9-1 0-8 5-7 4-18-42-5 7c-1 5-2 10-2 15l3 38-18 12-21 24-8 5c-4-4-10-17-19-39-2-5-6-13-10-24-4-10-10-23-16-38l-3 4c-4 3-5 7-4 14l5 38 6 42 3 39c1 6-1 10-5 13l-20 24c-4 5-6 9-6 12 0 4 0 7 1 8 3 3 10 0 20-8 8-6 15-13 21-21 6-5 10-7 13-6l36 4 76 11z m-94 99l-6 6 13 81-4 4-1-2c-6 3-9 7-11 13l7 7c3-1 5-3 7-5 2-1 3-3 4-4l3 20-23 23-24 38c2 3 7 2 13-2 6-3 12-7 17-12l8-7 22-24 18 4c-5 5-8 9-9 12l7 8c6-1 10-5 13-11l0-4 4-4 77 15 6-5-24-10-40-19-18-20 29-31c3-3 5-5 7-8 2-2 3-4 4-7 4-3 7-5 9-5l29 4c4 0 6-1 7-2l4-4-33-16 4-9-9 4-14-35-4 4-2 7 4 29c2 3 0 6-4 9-4 3-8 6-10 8-2 3-3 4-4 5l-31 32-18-18-18-41z m387 221c6 0 10-1 13-4l3-3-52-24c-9-5-17-9-24-12-7-3-13-6-18-9l4-11 21-22c2-2 7-8 13-18l38 4c4 0 9-1 13-4l5-4-41-18 3-9 11-5-2 0-7 5-7 4-18-42-6 7c-1 5-2 10-2 15l4 38-18 13-22 23-9 6c-2-1-8-15-20-40-2-5-6-13-10-24-4-10-9-23-15-38l-4 4c-3 3-4 8-3 14l5 40-7 6c-3 1-5 4-6 7l6 5c4-1 8-4 11-9l3 31-7 4c-2 3-4 6-5 9l5 5c4-1 7-2 9-5l2 25c0 5-1 10-5 13l-4 3c-3 3-6 6-10 10-4 4-6 7-8 10-2 3-4 7-5 11-1 5-1 8-1 9 2 2 9 0 20-7 4-3 8-6 12-11 4-5 8-8 10-11 5-5 9-6 13-5l23 1c0 1-1 4-5 9l5 6 9-6c1-1 2-3 2-4 1-1 2-2 2-3l29 6-1 2c-3 3-5 6-6 9l5 5 7-5c4-3 6-7 6-10l0-1z m-203-255l20-22 15 4-6 5 4 4 7-7 20 5-5 6 3 3 7-7 18 5 4 0 4-1c2-1 1-2-2-2l-44-20-9-9 11-11c2-1 3-3 5-6 2-2 3-4 4-7l6-7 16 4c3 1 6-1 9-4l-18-9 4-5 1-6-5 4-9-18c-2 2-4 5-4 9l4 16-5 4c-6 3-10 6-13 10l-11 11-11-11-20-45c-1-3-2-3-2 0l0 11 6 18-7 7 3 4 6-5 5 21-11 8 4 3 5-5 4 14-20 22c0-1 0 0-1 1-1 2-2 4-4 6-1 3-2 5-3 7 0 2 0 3 1 4z"/>
<glyph glyph-name="flight-cancelled" unicode="&#57386;" d="M481 147l-99 76-46 37c0 0-8 3-8 20 0 17 1 29-3 49-4 21-10 31-15 31-6 0-13-13-17-29-3-16-1-50-1-50 0 0 1-11-8-20l-48-38-52-38-49-38c0 0-12-8-12-19l1-10c0 0 68 29 97 40 28 10 52 22 66 22l5-16-1-50c0 0 2-15 6-34l-46-38c0 0-11-9-14-18l-1-13 66 26 5-13 2-13 1-1 1 14 4 13 69-27-2 11c0 0-4 12-11 19l-48 39c0 0 5 24 5 36l0 49 7 16c0 0 25-4 72-25 47-22 86-36 86-36l0 9c0 0-2 11-12 19z m-304 245l59 59c4 3 4 10 0 13l-34 35c-4 4-10 4-14 0l-59-59-59 59c-4 4-10 4-14 0l-34-35c-4-3-4-10 0-13l59-59-59-59c-4-4-4-10 0-14l34-34c4-4 10-4 14 0l59 58 59-58c4-4 10-4 14 0l34 34c4 4 4 10 0 14z"/>
<glyph glyph-name="flight-connection" unicode="&#57387;" d="M166 373l-29 0 0 85 185 0 0-29-156 0z m214-319l-152 0 0 30 122 0 0 80 30 0z m-101 103l-75 57-35 28c0 0-5 2-5 15 0 12 1 22-2 37-3 15-8 23-12 23-4 0-10-10-12-22-3-12-1-38-1-38 0 0 0-7-7-14l-36-29-39-29-36-28c0 0-9-6-9-15l0-7c0 0 52 22 73 30 22 8 40 16 50 16l4-11-1-38c0 0 2-12 5-26l-35-28c0 0-8-7-11-14l-1-10 50 20 4-10 1-10 1 0 1 10 3 10 52-20-2 8c0 0-2 9-8 14l-36 29c0 0 4 19 4 28l0 37 5 11c0 0 18-3 54-19 36-16 65-26 65-26l0 6c0 0-2 9-9 15z m215 137l-75 57-35 28c0 0-6 2-6 15 0 13 1 22-2 37-3 15-7 23-12 23-4 0-9-10-12-22-2-12-1-37-1-37 0 0 1-8-6-15l-36-29-39-29-36-28c0 0-10-6-10-14l1-8c0 0 51 22 73 30 21 8 39 17 49 17l4-12 0-38c0 0 1-11 4-25l-34-29c0 0-9-7-11-14l-1-10 50 20 4-9 1-11 1 0 0 10 4 10 52-20-2 8c0 0-3 9-9 14l-35 30c0 0 4 18 4 27l0 37 4 12c0 0 19-3 55-19 35-17 64-27 64-27l0 7c0 0-2 8-9 14z"/>
<glyph glyph-name="flight-delayed" unicode="&#57388;" d="M458 388l-26 26c-4 4-10 4-13 0l-28-27c7-6 14-12 21-19 7-6 13-13 19-21l27 28 0 0c4 3 4 9 0 13z m-179 55l0 46c0 5-4 10-9 10l-56 0c-5 0-10-5-10-10l0-46c10 1 28 2 38 2 9 0 28-1 37-2z m-38-49c-105 0-190-85-190-191 0-105 85-190 190-190 105 0 191 85 191 190 0 106-86 191-191 191z m19-223l0-16c0-5-4-10-9-10l-19 0c-5 0-9 5-9 10l0 16c-11 7-19 19-19 32 0 14 8 26 19 32l0 68c0 5 4 10 9 10l19 0c5 0 9-5 9-10l0-68c11-6 19-18 19-32 0-13-8-25-19-32z"/>
<glyph glyph-name="flight-diverted" unicode="&#57389;" d="M180 116l0 280c28 2 50 25 50 54 0 29-24 53-54 53-29 0-53-24-53-53 0-26 18-48 43-53l0-282c-1 0-1 0-2 0l-10 20-13-6 10-20c-17-9-28-26-28-47 0-29 24-53 53-53 30 0 54 24 54 53 0 29-22 52-50 54z m-116 167l13 6 13-25-13-7z m64-96l13-26-13-6-13 25z m-38 45l12 6 13-26-13-6z m-66 147l-6-99 90 44z m461-123l-72 55-33 27c0 0-6 2-6 15 0 12 1 21-2 35-3 15-7 22-11 22-4 0-9-9-12-21-2-12-1-36-1-36 0 0 1-8-6-14l-35-28-38-28-34-27c0 0-9-6-9-14l0-7c0 0 50 21 71 29 20 7 38 16 47 16l4-12 0-36c0 0 1-11 4-25l-33-27c0 0-8-7-11-14l-1-9 48 19 4-9 1-10 1-1 1 10 3 10 50-19-2 8c0 0-2 8-8 13l-34 28c0 0 4 18 4 27l0 35 4 12c0 0 18-3 52-19 35-15 63-26 63-26l0 7c0 0-2 8-9 14z"/>
<glyph glyph-name="flight-landing" unicode="&#57390;" d="M49 101l414 0 0-20-414 0z m16 82c-3 9 32 41 41 44l130 47 91 123c5 9 24 23 30 20 5-4 5-13 0-22l-47-95 70 25 33 61c3 6 28 17 33 13 5-3-10-51-13-57l-25-41c-1-1-3-3-6-4-1-2-3-4-6-5l-293-114c-9-4-34-5-38 5z"/>
<glyph glyph-name="flight-status" unicode="&#57391;" d="M6 256c0-138 112-250 250-250 138 0 250 112 250 250 0 138-112 250-250 250-138 0-250-112-250-250z m342 125c5 4 13 4 17 0l17-17c5-5 5-13 0-18l-80-80c1-3 2-7 2-11 0-27-22-49-49-49-18 0-34 12-42 24l-68 0c-7 0-12 6-12 13l0 23c0 7 5 13 12 13l68 0c8 13 24 25 42 25 5 0 9-1 14-2z"/>
<glyph glyph-name="flight-stopover" unicode="&#57392;" d="M128 369l0-13 14 0 0 12c34 2 60 30 60 64 0 35-28 64-64 64-35 0-64-29-64-64 0-32 24-59 54-63z m10 100c21 0 37-17 37-37 0-21-16-37-37-37-20 0-37 16-37 37 0 20 17 37 37 37z m0-352c-28 0-50-22-50-50 0-28 22-51 50-51 28 0 51 23 51 51 0 28-23 50-51 50z m-10 49l14 0 0-27-14 0z m0 109l14 0 0-27-14 0z m0 54l14 0 0-27-14 0z m0-108l14 0 0-27-14 0z m302 29l-68 52-32 25c0 0-5 3-5 14 0 12 1 20-2 34-2 13-6 21-10 21-4 0-9-9-11-20-3-11-1-34-1-34 0 0 0-8-6-14l-33-26-36-26-33-26c0 0-8-6-8-13l0-7c0 0 48 20 67 27 19 7 36 15 45 15l4-10-1-35c0 0 2-10 4-23l-31-26c0 0-8-6-10-12l-1-9 45 18 4-9 1-9 1-1 1 10 3 9 47-19-2 8c0 0-2 8-8 13l-32 26c0 0 3 17 3 25l0 34 5 10c0 0 17-2 49-17 32-15 59-24 59-24l0 6c0 0-2 8-8 13z"/>
<glyph glyph-name="flight-take-off" unicode="&#57393;" d="M58 145l415 0 0-20-415 0z m410 229c-4 9-51 10-60 6l-129-51-150 33c-9 3-33 1-35-5-1-6 5-13 15-16l97-41-69-27-65 25c-6 2-31-7-33-13-2-5 41-32 47-34l46-14c2-1 5 0 7 0 3 0 5 0 8 1l296 107c8 3 28 19 25 29z"/>
<glyph glyph-name="fly-drive" unicode="&#57394;" d="M75 385l-21-6-43 68 19 4c2 1 4 0 6-1l67-42c3-2 7-4 11-6 6-1 13-3 19-3 1 0 1 0 2 0 1 0 1 0 1-1l0 0 289 67 7 1 7 1 7 1 7 1 8 0 7 0 6 0 3-1 3-1 2-1 2-1 5-3 2 0 2 0 4-2 2-1 1-1 1-1 0-1 0-1 0 0-1-1-1-2-3-3-2-2-2-1-4-3-4-3-4-2-4-2-4-2-4-2-4-2-7-3-5-2-5-1-5-2-8-2-60-14-6-2-6-2 1-8 0 0 0-1 0 0-1 0 0 0-1-1-2 0-3-1-5-1-4-1-5-1-3-1-4 0-3 0-3 0-1 2 0 0-5 0-5 0-3 0-44-10-4-1-6-1-11-1-7-1-5-1-3 0 0 0-23-5-7-2-7-1-7-1-8-1-7-1-8 0-8-1-8 0-8 0-9 0-8 0-10 0-9 1-10 0-7 1-7 1-7 1-10 0-15 1-6 0-2 0-1 1-1 0-1 1 0 2-8 1 6 1 5 2 1 0 1 1 6 1 6 3 9 2 8 2 0 1z m349-136c-3 3-7 4-11 3l-30-5c-7 20-15 39-24 58-1 4-6 5-10 6-35 5-66 6-102 7l-7 0c-37-1-67-2-103-7-4-1-8-2-9-6-9-19-17-38-24-58l-30 5c-4 1-8 0-11-3-3-2-4-6-4-9l0-12c0-7 4-12 10-13l20-3c-4-10-5-20-6-31 0 0 0-21 1-30 0 0 0-1 0-1-3 0-6-2-7-5 0-1 0-2 0-3 0-12 4-23 8-33l0-60c0-3 3-6 6-6l45 0c3 0 6 3 6 6l0 42 202 0 0-42c0-3 3-6 7-6l44 0c4 0 7 3 7 6l0 60c3 11 7 21 7 33 0 1 0 2 0 3 0 3-3 5-7 5 0 0 0 1 1 1 1 9 0 30 0 30 0 11-2 21-5 31l20 3c6 1 10 6 10 13l0 12c0 3-2 7-4 9z m-69-14c-1-1-1-1-1-1l-1 0c-39 5-74 7-110 7-35 0-70-2-110-7 0 0-1 0-1 1 0 0 0 0 0 1 7 21 14 38 21 53 1 1 2 3 4 3 31 3 59 4 86 5 28-1 56-2 87-5 1 0 3-2 3-3 7-14 15-32 22-53 0-1 0-1 0-1z m-210-46l5-33-48 0c-3 0-6 3-6 7l0 22c0 4 3 7 6 7l42 0c0-1 1-2 1-3l0 0z m33-29l0 1-6 31 0 0 0 1 0 1c0 2 1 5 4 5 18 6 42 9 67 9 24 0 49-3 67-9 3 0 4-3 4-5l0-1-1-1-5-30 0-2 0-1-1-3c0-3-3-5-5-5l-118 0c-3 0-5 2-5 5l-1 3z m213 3c0-4-3-7-7-7l-49 0 6 33c0 1 0 2 0 3l43 0c4 0 7-3 7-7z"/>
<glyph glyph-name="food-and-beverage" unicode="&#57395;" d="M243 339l0 0c-13-27 35 21 24 69-10 47-30 31-16 82 0 0-49-15-28-70 21-55 32-55 20-81z m-43-8c-9-18 24 15 17 47-8 33-21 22-11 58 0 0-34-11-20-49 15-38 22-38 14-56z m231-56l0 0c-19 24-54 31-85 19 0 20-8 18-8 18l-226 0c0 0-9 2-9-21 0-23-1-155-1-155l49-40 148 0 49 40c0 0 0 7 0 17 21-3 44 2 63 17 35 27 44 74 20 105z m-40-79c-14-11-30-14-43-10-1 23-1 50-1 72 21 14 46 13 59-3 13-17 6-43-15-59z m-158-118l0 0-4 0-4 0 0 0-145-2-12-5 30-49 131 1 132-1 30 49-13 5z"/>
<glyph glyph-name="food-beverage" unicode="&#57396;" d="M269 413c-80 0-145-65-145-146 0-80 65-145 145-145 81 0 146 65 146 145 0 81-65 146-146 146z m0-233c-48 0-87 39-87 87 0 49 39 88 87 88 49 0 88-39 88-88 0-48-39-87-88-87z m189 278c0 0-15-10-18-38-2-26-2-117-2-131 0-9 14-27 21-35l0-192c0-22 28-25 28 0l0 370c0 26-3 50-29 26z m-356-16l0 0c0 0 0 1 0 1 0 5-3 9-8 9-5 0-9-4-9-9 0 0 0-1 0-1l0 0 0-105-11 0 0 105c0 0 1 0 1 1 0 5-5 10-11 10-5 0-10-5-10-10 0-1 0-1 0-1l0 0 0-105-11 0 0 105-1 0c0 0 1 1 1 1 0 5-4 9-9 9-5 0-9-4-9-9 0 0 0-1 0-1l0-92 0 0c0-21 1-48 19-66 18-18 0-180 0-215 0-36 30-29 30 0l0 182c3 16 6 29 10 33 16 19 19 45 19 66l-1 0 0 92z"/>
<glyph glyph-name="fridge" unicode="&#57397;" d="M177 241l52 0c8 0 15 6 15 15 0 8-7 14-15 14l-52 0c-8 0-15-6-15-14 0-9 7-15 15-15z m52 116l-52 0c-8 0-15-7-15-15 0-8 7-15 15-15l52 0c8 0 15 7 15 15 0 8-7 15-15 15z m109 130l-164 0c-25 0-55-25-55-56l0-340c0-21 12-39 28-48l0 0c0-10 8-18 18-18l52 0c7 0 13 5 15 11l48 0c2-6 8-11 15-11l52 0c10 0 18 8 18 18l0 0c16 9 28 27 28 48l0 340c0 31-25 56-55 56z m26-390c0-16-13-29-29-29l-159 0c-16 0-29 13-29 29l0 188 217 0 0-188z m0 217l-217 0 0 115c0 16 13 29 29 29l159 0c16 0 29-13 29-29l0-115z"/>
<glyph glyph-name="fuel" unicode="&#57398;" d="M36 244l337 0c9 0 17 7 17 15l0 72c0 8-8 15-17 15l-33 0 0 7 8 0 0 9-46 0 0-9 8 0 0-7-89 0 0 7 9 0 0 9-47 0 0-9 9 0 0-7-88 0 0 7 8 0 0 9-46 0 0-9 8 0 0-7-38 0c-9 0-16-7-16-15l0-72c0-8 7-15 16-15z m19-24c-13 0-24-11-24-25 0-13 11-24 24-24 14 0 25 11 25 24 0 14-11 25-25 25z m0-37c-6 0-12 5-12 12 0 7 6 13 12 13 7 0 13-6 13-13 0-7-6-12-13-12z m70 37c-13 0-24-11-24-25 0-13 11-24 24-24 14 0 25 11 25 24 0 14-11 25-25 25z m0-37c-7 0-12 5-12 12 0 7 5 13 12 13 7 0 13-6 13-13 0-7-6-12-13-12z m121 37c-13 0-24-11-24-25 0-13 11-24 24-24 14 0 25 11 25 24 0 14-11 25-25 25z m0-37c-6 0-12 5-12 12 0 7 6 13 12 13 7 0 13-6 13-13 0-7-6-12-13-12z m71 37c-14 0-25-11-25-25 0-13 11-24 25-24 14 0 25 11 25 24 0 14-11 25-25 25z m0-37c-7 0-12 5-12 12 0 7 5 13 12 13 7 0 12-6 12-13 0-7-5-12-12-12z m-306 21l15 0c4 12 16 22 29 22 14 0 26-10 30-22l11 0c4 12 15 22 29 22 14 0 26-10 29-22l43 0 0 28-186 0z m414 16c-13 0-24-11-24-25 0-13 11-24 24-24 14 0 25 11 25 24 0 14-11 25-25 25z m0-37c-6 0-12 5-12 12 0 7 6 13 12 13 7 0 13-6 13-13 0-7-6-12-13-12z m70 20l0 12-6 0 0 11 6 0 0 43-34 40-60 0 0-77-197 0 0-28 13 0c4 12 15 22 29 22 14 0 26-10 29-22l13 0c4 12 15 22 29 22 14 0 25-10 29-22l50 0c4 12 16 22 29 22 14 0 26-10 29-22l7 0 0-15 40 0 0 14z m-80 65l0 33 42 0 23-33-66 0z"/>
<glyph glyph-name="fuel-gas" unicode="&#57399;" d="M256 487c0 0-151-163-151-321 0-147 156-141 156-141 0 0 146 8 146 130 0 145-151 332-151 332z m1-410c-2-9-10-15-19-15-2 0-4 0-5 0-4 1-80 22-88 119-9 90 64 184 68 188 7 9 19 11 28 4 9-7 11-20 4-29-1-1-67-85-60-160 6-67 56-82 58-82 11-3 17-14 14-25z"/>
<glyph glyph-name="games" unicode="&#57400;" d="M151 271l-24 0 0 24c0 9-7 16-15 16-9 0-16-7-16-16l0-24-23 0c-9 0-16-6-16-15 0-9 7-15 16-15l23 0 0-24c0-9 7-16 16-16 8 0 15 7 15 16l0 24 24 0c8 0 15 6 15 15 0 9-7 15-15 15z m238 98l-266 0c-62 0-113-50-113-113 0-63 51-113 113-113l266 0c62 0 113 50 113 113 0 63-51 113-113 113z m-277-187c-41 0-74 33-74 74 0 41 33 74 74 74 41 0 74-33 74-74 0-41-33-74-74-74z m230 52c-12 0-23 11-23 24 0 12 11 23 23 23 13 0 24-11 24-23 0-13-11-24-24-24z m49-50c-13 0-23 10-23 23 0 13 10 23 23 23 13 0 23-10 23-23 0-13-10-23-23-23z m0 98c-13 0-23 10-23 23 0 13 10 23 23 23 13 0 23-10 23-23 0-13-10-23-23-23z m49-48c-13 0-23 11-23 24 0 12 10 23 23 23 13 0 23-11 23-23 0-13-10-24-23-24z"/>
<glyph glyph-name="garmet-holder" unicode="&#57401;" d="M483 165c-7 8-208 121-212 125l0 19c0 6-2 24-25 33-10 3-16 14-16 25 0 15 12 27 27 27 15 0 27-12 27-27 0-8 7-15 16-15 9 0 16 7 16 15 0 33-26 59-59 59-33 0-59-26-59-59 0-24 15-45 36-54 7-3 7-7 7-10l0-13c-4-4-204-117-212-125-9-9-14-20-14-33 0-25 20-46 45-46l392 0c25 0 45 21 45 46 1 13-5 24-14 33l0 0z m-31-46l-392 0c-7 0-12 6-12 13 0 3 1 7 5 10 10 5 204 119 204 119 0 0 192-114 202-119 4-3 5-7 5-10 0-7-5-13-12-13z"/>
<glyph glyph-name="gate" unicode="&#57402;" d="M429 498l-346 0c-38 0-69-31-69-69l0-346c0-38 31-69 69-69l346 0c38 0 69 31 69 69l0 346c0 38-31 69-69 69z m31-415c0-17-14-31-31-31l-346 0c-17 0-31 14-31 31l0 346c0 17 14 31 31 31l346 0c17 0 31-14 31-31z m-166 142l0-47c-4-4-10-6-17-7-15 0-29 6-44 19-17 16-26 38-26 64 0 24 5 45 13 63 11 24 28 36 49 36 23 0 38-9 46-28l0 32c-11 7-27 11-50 11-30 0-55-12-74-35-18-21-27-48-27-79 0-31 9-56 27-75 18-19 43-28 74-28 7 0 15 1 25 3 18 3 32 9 41 17l0 103-44 0c4-10 7-27 7-49z"/>
<glyph glyph-name="generic-plane" unicode="&#57403;" d="M481 206l-129 99-60 49c0 0-10 4-10 26 0 21 1 37-4 63-5 26-12 40-20 40-7 0-17-17-21-38-4-21-2-65-2-65 0 0 1-13-11-25l-62-49-68-51-62-49c0 0-16-10-16-24l1-13c0 0 89 38 126 52 37 13 68 28 86 28l6-20 0-65c0 0 2-20 7-44l-60-50c0 0-14-12-18-23l-2-17 86 34 7-16 2-18 2-1 1 18 6 17 89-35-4 14c0 0-4 16-14 25l-61 50c0 0 6 32 6 47l0 64 9 20c0 0 32-5 93-33 62-27 112-46 112-46l0 12c0 0-3 15-15 24z"/>
<glyph glyph-name="globe-travel" unicode="&#57404;" d="M287 476l0 0c-119 0-216-96-219-214 0 1 0 2 0 3-8-7-15-13-22-20 0-8 1-16 2-24 6 7 13 13 20 20 0 1 0 1 0 2 2-37 13-71 31-100-9 0-18 1-26 2-23 4-38 12-43 25-6 14 1 32 18 51-1 8-2 16-2 24-32-31-47-61-38-84 8-23 37-35 78-38 8-1 18-1 27-1 40-52 103-86 174-86 3 0 5 1 8 1l-11 110-13-3 0-64c-5 6-12 14-21 25l-29-15c4-5 8-10 11-14-30 10-58 27-79 49 13 2 27 4 41 7 7-12 14-23 21-33l-1 34c-7-1-11 6-13 9-1 3-3 15 2 18l-28 39 23 2c-5 14-9 29-11 44l45 0-22 32-24 0c1 17 5 33 10 49l75 0 0-49-5 0 37-36 0 4 84 0c-1-4-2-8-2-11 7-2 14-7 16-12 3-8 10-27-12-39-15-8-31-14-40-16l14 0c-8-15-16-29-24-41l-7-66-32-23c115 7 207 102 207 219 0 121-99 220-220 220z m-174-150l50 0c-5-16-8-32-9-49l-53 0c1 17 6 33 12 49z m-5-128c-4 15-7 31-8 47l56 0c2-16 5-32 9-47z m69-31c2-6 4-11 7-16-17-3-33-5-48-7-5 7-10 15-14 23z m-2 190l-46 0c23 35 56 62 96 76-17-19-36-45-50-76z m96 0l-61 0c21 37 47 65 61 78z m203-80l-54 0c-1 17-4 33-9 49l51 0c6-16 10-32 12-49z m-171 158c14-13 41-41 61-78l-61 0z m0-158l0 49 75 0c5-16 9-32 10-49z m96 80c-14 31-33 57-50 76 40-14 74-41 96-76z m-57-281c17 20 39 52 55 91l55 0c-23-43-63-76-110-91z m67 122c4 15 8 31 9 47l57 0c-1-16-4-32-9-47z m-142-3l-2 3-38 0 14-13z m-53-46l0 0c1-2 5-3 11-2l1-41 16 9 4 36 50 13 8-106 16 12 13 106 48 20c1 0 1 0 2 0 6 3 9 10 7 16-2 7-9 10-16 8l-51-16-77 73-20 0 60-87-46-22-26 25-18-3 24-32c-4-3-7-6-6-9z"/>
<glyph glyph-name="golf-clubs" unicode="&#57405;" d="M405 493l-42-1c-15-1-30-14-32-29-1-2-1-4-1-5l-51-131-44 18 26 66c1 1 3 3 4 4 8 13 6 33-4 44l-30 30c-11 11-24 8-30-6l-8-21c-6-14 0-33 13-41l20-13c6-4 13-6 20-5l-22-54-5 2c-10 4-23-1-27-12l-103-261c-5-10 1-23 11-27l84-33c10-4 23 1 27 12l103 261c4 11-1 23-11 27l-14 5 47 118c4-5 10-9 18-10l23-4c15-3 32 7 38 21l8 20c6 15-2 26-18 25l0 0z"/>
<glyph glyph-name="googleplus" unicode="&#57406;" d="M464 512l-416 0c-27 0-48-22-48-48l0-416c0-26 21-48 48-48l416 0c27 0 48 22 48 48l0 416c0 26-21 48-48 48z m-174-336c-32-44-95-57-145-38-49 19-84 71-80 124 1 66 61 123 126 121 32 1 61-13 85-32-10-11-21-23-32-33-29 20-70 26-99 3-41-29-43-96-3-127 38-35 111-17 122 36-24 1-48 0-73 1 0 14 0 29 0 43 41 0 81 0 121 0 3-34-2-70-22-98l0 0 0 0z m174 62c-13 0-25 0-37 0 0-12 0-24 0-36-12 0-24 0-36 0 0 12 0 24 0 36-12 0-24 0-36 0 0 12 0 24 0 36 12 0 24 0 36 0 0 12 0 24 0 37 12 0 24 0 36 0 0-13 0-25 0-37 12 0 24 0 37 0 0-12 0-24 0-36z"/>
<glyph glyph-name="hair-salon" unicode="&#57407;" d="M401 497c-28 0-52-24-52-53 0-16 8-32 21-41l-25-69 1-1c2-3 3-5 5-7 5-4 11-8 18-9l3 0 1 3c0 1 0 2 1 3 0 1 0 3 1 4l23 65c1 0 2 0 3 0 29 0 53 24 53 52 0 29-24 53-53 53l0 0z m20-72c-11-11-29-11-39 0-6 5-9 12-9 19 0 16 13 28 28 28 8 0 15-2 20-8 5-5 8-12 8-20 0-7-3-14-8-19z m-95-99l-28 78c12 10 19 25 19 40 0 29-24 53-52 53-29 0-53-24-53-53 0-30 27-55 58-51l27-74c2-6 3-13 4-19l9-264c0 0 4-21 23-21 20 0 26 20 26 20l9 268-3 0c-13 2-34 12-39 23z m-42 99c-10-11-29-11-39 0-6 5-8 12-8 20l0 2c0 6 3 13 8 17 4 5 9 7 15 8l4 0 8-1c5-1 9-3 12-7l2-2c3-3 4-6 6-10 0-2 0-4 0-6l1-1c0-8-3-15-9-20z m50-165c-8 0-15 7-15 15 0 8 7 14 15 14 7 0 14-6 14-14 0-8-7-15-14-15z m-172 225l-74 0c-19 0-30-11-30-24l1-376c0-20 10-31 24-31l75 0c13 0 24 11 24 24l0 22-77 0 0 31 77 0 0 30-77 0 0 31 77 0 0 31-77 0 0 31 77 0 0 31-77 0 0 30 77 0 0 31-77 0 0 31 77 0 0 31-77 0 0 31 77 0 0 22c0 13-11 24-20 24z"/>
<glyph glyph-name="hairdryer" unicode="&#57408;" d="M487 381c-6 45-34 83-76 98-31 11-63 14-96 12-36-3-72-11-107-19-4-1-57-9-91-17l0-147c58-28 162-68 197-68l-4-183c0 0-1-47 35-45l58-1c0 0 25 0 21 51 0 0-14 179-14 179 0 0 39 25 41 27 27 27 40 77 36 113l0 0z m-419 60l-48-12 0-71 48-22 0 105z"/>
<glyph glyph-name="hand-baggage" unicode="&#57409;" d="M439 493l-5 4-21-31 5-3-91-138c-3 5-7 9-12 12l-74 49c-18 13-43 8-56-11l-144-217c-12-18-7-44 12-56l13-9c18-12 35-18 37-14l3 4c18 28 56 35 84 17l4-3c3-2 12 6 23 20l0 0 6 8 236 355-20 13z m-252-464c-11-17-34-21-51-10-17 11-21 34-10 50 11 17 34 22 51 11 16-12 21-34 10-51z"/>
<glyph glyph-name="headsets-noise-cancellation" unicode="&#57410;" d="M192 239c0 0 6-17 6-46 0-28-6-45-6-45 0-3-2-6-5-6l-29 0c-3 0-4 3-4 6l0 91c0 3 1 5 4 5l29 0c3 0 5-2 5-5z m162 5l-29 0c-3 0-5-2-5-5 0 0-6-17-6-46 0-28 6-45 6-45 0-3 2-6 5-6l29 0c3 0 4 3 4 6l0 91c0 3-1 5-4 5z m-98 164c-72 0-136-64-136-135l0-68c0-3 3-6 6-6l11 0c3 0 6 3 6 6l0 68c0 59 54 101 113 101 59 0 113-42 113-101l0-68c0-3 3-6 6-6l11 0c3 0 6 3 6 6l0 68c0 71-64 135-136 135z m-211-304l-8 127-12-32-21 0 0 11 14 0 27 72 4-81 14 89 10-70 11 80 19-90 8 0 0-11-17 0-8 39-13-94-10 75z m423 0l-19 115-10-75-13 94-8-39-17 0 0 11 8 0 19 90 11-80 10 70 14-89 4 81 27-72 14 0 0-11-21 0-12 32z"/>
<glyph glyph-name="heating" unicode="&#57411;" d="M438 128c-1 0-1 1-2 1l-31 0 0 311 31 0c6 0 11 4 11 12l0 17c0 8-5 13-11 13l-31 0c0 8-7 15-15 15l-14 0c-7 0-14-7-14-15l-42 0c0 8-7 15-14 15l-15 0c-7 0-14-7-14-15l-42 0c0 8-7 15-14 15l-14 0c-8 0-15-7-15-15l-42 0c0 8-7 15-14 15l-14 0c-8 0-15-7-15-15l-28 0c-6 0-14-5-14-13l0-17c0-8 8-12 14-12l28 0 0-311-29 0c-7 0-13-5-13-11l0-90c0-6 6-13 13-13l18 0c7 0 11 7 11 13l0 58 298 0 0-58c0-6 5-13 13-13l17 0c8 0 12 7 12 13l0 90c0 5-4 9-9 10l0 0z m-288 312l42 0 0-311-42 0z m85 0l42 0 0-311-42 0z m85 0l42 0 0-311-42 0z"/>
<glyph glyph-name="high-chair" unicode="&#57412;" d="M379 381l-28 0 0 2c0 2 0 3 0 4l0 1c0 0 0 0 0 0-3 59-43 106-92 106-50 0-90-47-93-106 0 0 0 0 0 0l0-1c0-1 0-2 0-4l0-2-33 0c-4 0-8-5-8-10l0-12c0-6 4-10 8-10l33 0 0-200 0 0 0-125c0-3 7-6 15-6 9 0 15 3 15 6l0 125 0 0 0 90 125 0 0-90 0 0 0-125c0-3 7-6 15-6 8 0 15 3 15 6l0 125 0 0 0 200 28 0c4 0 8 4 8 10l0 12c0 6-4 10-8 10z m-120 83c34 0 62-36 62-81l0-2-125 0 0 2c0 45 28 81 63 81z m-63-115l53 0 0-66-53 0z m73-66l0 66 52 0 0-66z"/>
<glyph glyph-name="historical" unicode="&#57413;" d="M494 29c0-5-4-10-10-10l-456 0c-6 0-10 5-10 10l0 20c0 6 4 10 10 10l456 0c6 0 10-4 10-10z m-476 261c0 5 3 13 8 16l222 184c5 4 12 3 16 0l222-183c5-4 8-12 8-17 0-6-4-13-10-13l-49 0 0-158 29 0c6 0 10-5 10-10l0-20c0-5-4-10-10-10l-416 0c-6 0-10 5-10 10l0 20c0 5 4 10 10 10l29 0 0 158-49 0c-6 0-10 7-10 13z m139-13l-40 0 0-158 40 0 0 158z m79 0l-40 0 0-158 40 0z m80 0l-40 0 0-158 40 0z m79 0l-40 0 0-158 40 0z"/>
<glyph glyph-name="hold-payment" unicode="&#57414;" d="M241 11l-5 0c-35 1-67 15-92 39-25 25-39 59-39 94l0 237c0 16 13 29 28 29 12 0 23-8 27-18l0 51c0 17 14 31 30 31 14 0 25-8 30-20l0 18c0 17 13 30 30 31 17-1 31-14 31-31l0-23c4 11 13 18 24 20l0 1 5 0c17 0 31-14 31-31l0-210 15 43c8 24 32 41 58 41 5 0 10-1 16-3 2 0 5-2 6-5 1-2 2-5 1-8l-70-198c-20-52-70-87-125-88l0 0z m-107 383c-8 0-13-6-13-12l0-236c0-33 12-63 34-85 22-21 51-34 81-34l5 0c51 1 97 34 113 82l1 1 65 186c-21 4-42-9-49-30l-17-46c-1-6-7-11-14-11-8 0-15 7-15 15l0 215c0 8-6 15-15 15l0 0c-8 0-15-7-15-15l0-165c0-8-7-14-15-14-8 0-14 6-14 14l0 198c0 8-7 15-16 15-8 0-15-7-15-15l0-195c0-8-6-15-14-15-9 0-15 7-15 15l0 167c0 8-7 15-15 15-9 0-16-7-16-15l0-175c0-8-6-15-14-15-8 0-15 7-15 15l0 113c0 7-6 12-12 12z m107-335l-13 0 0 12-2 0c-17 0-31 3-42 10l0 19c9-11 21-17 36-17 3 0 6 0 8 0l0 65c-29 14-43 33-44 55 0 10 5 19 15 26 8 5 18 9 29 10l0 10 13 0 0-10c13-1 25-5 35-12l0-19c-5 6-10 10-13 13-7 4-13 6-22 7l0-57c30-17 45-34 45-51 0-12-4-23-13-32-9-8-19-14-32-17l0-12z m-13 168c-13-2-20-9-20-20 0-9 7-18 20-27z m13-141c15 7 22 17 21 29-1 7-5 13-10 18-2 2-6 4-11 7l0-54z"/>
<glyph glyph-name="home" unicode="&#57415;" d="M499 312c0 0 2-2 8-6 0-3 0-5-1-6l-33-47c-2-4-5-4-10-1l-16 11 0-235c0-5-3-8-8-8l-129 0c-5 0-8 3-8 8l0 174-96 0 0-172c0-5-3-8-8-8l-130 0c-5 0-8 3-8 8l0 233-14-10c-1-1-3-1-6-1-3 0-5 1-6 3l-33 47c-1 1-1 2-1 5 0 2 0 4 1 5l244 171c2 3 5 3 8 0l115-79 0 73c0 6 3 9 9 9l56 0c6 0 9-3 9-9l0-124z"/>
<glyph glyph-name="hot" unicode="&#57416;" d="M382 355l52 52c-8 9-18 19-27 27l-52-52c10-8 19-17 27-27z m-287-99c0 7 1 13 2 19l-73 0c-1-6-1-12-1-19 0-7 0-13 1-20l73 0c-1 7-2 13-2 20z m62 126l-52 52c-9-8-19-18-27-28l52-51c8 10 17 19 27 27z m118 33l0 73c-6 1-12 1-19 1-7 0-13 0-19-1l0-73c6 1 12 2 19 2 7 0 13-1 19-2z m-38-318l0-73c6-1 12-1 19-1 7 0 13 0 19 1l0 73c-6-1-12-2-19-2-7 0-13 1-19 2z m118 33l52-52c9 8 19 18 27 27l-52 52c-8-10-17-19-27-27z m133 145l-72 0c0-6 1-12 1-19 0-7-1-13-1-20l72 0c1 7 1 13 1 20 0 7 0 13-1 19z m-358-118l-52-52c8-9 18-19 27-27l52 52c-10 8-19 17-27 27z m126 216c-64 0-117-53-117-117 0-64 53-117 117-117 64 0 117 53 117 117 0 64-53 117-117 117z m0-193c-42 0-76 34-76 76 0 42 34 76 76 76 42 0 76-34 76-76 0-42-34-76-76-76z"/>
<glyph glyph-name="hot-meals" unicode="&#57417;" d="M228 314c0-2 2-3 3-2 8 11 24 33 23 59-1 36-34 40-36 70 0 13 4 29 7 39 1 2-2 4-3 2-13-11-37-40-29-72 9-41 49-54 35-96z m-52-36c0-2 2-3 3-2 6 7 13 20 12 33 0 22-20 25-21 43-1 6 1 15 3 20 0 3-2 5-4 3-8-8-19-24-15-42 5-24 28-32 22-55z m305 130l-7 5c-8 5-18 5-26 0-60-41-117-108-143-155l40 0c15 21 79 77 135 112 7 4 11 11 11 19 0 7-4 15-10 19l0 0z m-35-178l-416 0c-5 0-9-4-9-9l0-52c0-5 4-9 9-9l22 0c19-35 50-71 100-95 2-1 3-4 2-6l-10-22c-2-4 1-8 5-8l178 0c4 0 7 4 5 8l-10 22c-1 2 0 5 2 6 51 24 81 60 100 95l22 0c5 0 9 4 9 9l0 52c0 5-4 9-9 9z"/>
</font>
</defs>
</svg>
