<?xml version="1.0" encoding="UTF-8"?>
<svg width="15px" height="15px" viewBox="0 0 23 23" version="1.1" xmlns="http://www.w3.org/2000/svg" xmlns:xlink="http://www.w3.org/1999/xlink">
    <!-- Generator: Sketch 48.2 (47327) - http://www.bohemiancoding.com/sketch -->
    <title>airplane-flight-svgrepo-com</title>
    <desc>Created with Sketch.</desc>
    <defs></defs>
    <g id="Desktop-HD" stroke="none" stroke-width="1" fill="none" fill-rule="evenodd" transform="translate(-70.000000, -217.000000)">
        <g id="Hotel" transform="translate(48.000000, 204.000000)" fill="#62717A" fill-rule="nonzero">
            <g id="Group-5" transform="translate(18.000000, 11.000000)">
                <g id="airplane-flight-svgrepo-com" transform="translate(15.096212, 15.829347) rotate(45.000000) translate(-15.096212, -15.829347) translate(4.596212, 5.329347)">
                    <path d="M19.386974,0.906622115 L17.2723907,1.86912211 C17.136974,1.93162211 17.011974,2.01703878 16.905724,2.12328878 L13.4598907,5.57120545 L1.59322401,4.14828878 C1.37864068,4.12328878 1.16197401,4.19620545 1.00989068,4.35037211 L0.349474009,5.01078878 C-0.000525991486,5.36078878 0.107807342,5.95245545 0.559890675,6.15453878 L9.06405734,9.96703878 L6.62239068,12.4087054 L2.35780734,12.4087054 C2.17030734,12.4087054 1.99114068,12.4837054 1.85780734,12.6149346 L1.50155734,12.9732679 C1.14739068,13.3274346 1.26405734,13.9253513 1.72239068,14.1212054 L5.32030734,15.6628721 L6.86197401,19.2607679 C7.05780734,19.7191013 7.65780734,19.8357888 8.00991151,19.4816221 L8.36822401,19.1232888 C8.50155734,18.9899554 8.57447401,18.8107888 8.57447401,18.6232888 L8.57447401,14.3587054 L11.0161407,11.9170388 L14.8286407,20.4233096 C15.030724,20.8753721 15.6223907,20.9837054 15.9723698,20.6337263 L16.6327865,19.9733096 C16.7869532,19.8191429 16.8598698,19.6045596 16.8348698,19.3899763 L15.4098698,7.52330961 L18.8577865,4.07539295 C18.9640573,3.96914295 19.0494532,3.84622628 19.1119532,3.70872628 L20.0744532,1.59414295 C20.2765782,1.15870545 19.8265573,0.706622115 19.386974,0.906622115 Z" id="Shape"></path>
                </g>
            </g>
        </g>
    </g>
</svg>