<?xml version="1.0" encoding="UTF-8" standalone="no"?>
<!DOCTYPE svg PUBLIC "-//W3C//DTD SVG 1.1//EN" "http://www.w3.org/Graphics/SVG/1.1/DTD/svg11.dtd">
<svg version="1.1" xmlns="http://www.w3.org/2000/svg" xmlns:xlink="http://www.w3.org/1999/xlink" preserveAspectRatio="xMidYMid meet" viewBox="0 0 248.25 249.84" width="248.25" height="249.84"><defs><path d="M139.06 71.8C139.86 59.35 140.38 31.54 139.91 26.38C135.97 -16.88 108.68 1.75 108.43 21.06C108.36 26.34 107.41 53.66 107.32 71.9C100.19 77.4 64.51 104.89 0.28 154.38L0 180.2L110.5 129.71L114.49 210L82.45 232.94L82.25 249.84L124.52 238.24L124.53 238.38L167.24 249.3L166.73 232.42L134.28 210.02L136.89 129.67L248.25 178.18L247.51 152.4C182.44 104.04 146.29 77.17 139.06 71.8Z" id="eVNCyhaAW"></path></defs><g><g><g><use xlink:href="#eVNCyhaAW" opacity="1" fill="#8a8a8a" fill-opacity="1"></use><g><use xlink:href="#eVNCyhaAW" opacity="1" fill-opacity="0" stroke="#000000" stroke-width="1" stroke-opacity="0"></use></g></g></g></g></svg>