<?xml version="1.0" encoding="UTF-8"?>
<svg width="15px" height="15px" viewBox="0 0 15 15" version="1.1" xmlns="http://www.w3.org/2000/svg" xmlns:xlink="http://www.w3.org/1999/xlink">
    <!-- Generator: Sketch 48.2 (47327) - http://www.bohemiancoding.com/sketch -->
    <title>Maintenance</title>
    <desc>Created with Sketch.</desc>
    <defs></defs>
    <g id="TURN-AROUND" stroke="none" stroke-width="1" fill="none" fill-rule="evenodd" transform="translate(-741.000000, -455.000000)">
        <g id="Group-23" transform="translate(494.000000, 449.000000)" fill="#62717A" fill-rule="nonzero">
            <g id="Group-24" transform="translate(176.000000, 0.000000)">
                <g id="Maintenance" transform="translate(71.000000, 6.000000)">
                    <path d="M12.5382999,0.419367314 L8.5,4.46518945 L10.5311461,6.5 L14.5813233,2.45417786 C15.1395589,1.89490245 15.1395589,0.978642727 14.5813233,0.419367314 C14.0110916,-0.139789105 13.1085316,-0.139789105 12.5382999,0.419367314 Z" id="Shape"></path>
                    <path d="M9.88300942,7.30621561 L7.80347258,5.238793 L7.46494332,4.90026766 C7.30776903,4.74309518 7.24731738,4.52547175 7.30776903,4.3199385 C7.40449167,3.95723278 7.44076266,3.57034668 7.40449167,3.17137038 C7.36822068,2.72403333 7.24731738,2.28878646 7.04178176,1.88981017 C6.84833647,1.50292406 6.57025887,1.15230853 6.24381994,0.862143954 C5.91738102,0.571979376 5.53049044,0.342265752 5.1192983,0.197183463 C4.57523343,0.00374041171 3.99489757,-0.0446203512 3.42665203,0.0400109839 C3.13660501,0.0883717468 3.0157017,0.451077469 3.23320675,0.656610711 L4.64777542,2.07116303 C5.21602095,2.63940199 5.25229194,3.60661725 4.68404641,4.17485621 C4.39387847,4.46502079 4.01907823,4.59801289 3.64427798,4.59801289 C3.26935684,4.59801289 2.89467749,4.4529306 2.60438866,4.16276602 L1.153549,2.73612352 C1.08100702,2.66358237 0.984284371,2.6273118 0.899652058,2.6273118 C0.730387431,2.6273118 0.561122804,2.74821371 0.536942143,2.94165676 C0.512761482,3.09882924 0.500671151,3.25600172 0.500671151,3.4131742 C0.46440016,5.12998128 1.90314949,6.75006684 3.63194585,6.90723932 C3.74075882,6.91932951 3.8495718,6.91932951 3.95838477,6.91932951 C4.26064303,6.91932951 4.53872063,6.88305894 4.81679824,6.81051779 C5.03454509,6.76215703 5.25217104,6.82260798 5.40922443,6.97978046 L5.73566335,7.30621561 L6.31599922,7.88654477 L7.17441268,8.74506921 L7.80310987,9.37363823 L12.4941581,14.0647531 C12.784326,14.3547968 13.1591263,14.5 13.5340474,14.5 C13.9088477,14.5 14.2836479,14.3549177 14.5738158,14.0647531 C15.1420614,13.4965142 15.1420614,12.5655695 14.5738158,11.9972096 L9.88300942,7.30621561 Z" id="Shape"></path>
                    <path d="M3.75158931,12.761498 L3.72698107,12.4539077 C3.71467695,12.2939607 3.77619755,12.1463174 3.88705767,12.0355849 L5.32651666,10.5961853 C5.36355206,10.5591514 5.42507266,10.5591514 5.46198501,10.5961853 C5.75716085,10.8913489 6.22484045,10.8913489 6.52013932,10.5961853 L7,10.1163444 L6.40940225,9.52577097 L5.94172265,9.0582337 L5.47416609,8.5905734 L4.88356834,8 L4.40370766,8.47984088 C4.10853183,8.77500455 4.10853183,9.24266485 4.40370766,9.53795155 C4.44074306,9.57486239 4.44074306,9.63638045 4.40370766,9.67341432 L2.95182152,11.1128139 C2.84120748,11.2235465 2.693435,11.2850645 2.53360448,11.2728839 L2.22600149,11.2482767 C2.10296029,11.2358501 1.99222321,11.2851875 1.90597133,11.3836164 L0.0850846271,13.6228739 C-0.0379565717,13.7705173 -0.0256524519,13.9919823 0.109692867,14.127322 L0.491120583,14.508857 L0.872548299,14.890269 C1.00789362,15.0257318 1.21706366,15.0379124 1.37701721,14.9148762 L3.61636703,13.0939416 C3.70249587,12.9952666 3.75158931,12.8845341 3.75158931,12.761498 Z" id="Shape"></path>
                </g>
            </g>
        </g>
    </g>
</svg>