<?xml version="1.0" encoding="UTF-8"?>
<svg width="15px" height="15px" viewBox="0 0 15 17" version="1.1" xmlns="http://www.w3.org/2000/svg" xmlns:xlink="http://www.w3.org/1999/xlink">
    <!-- Generator: Sketch 48.2 (47327) - http://www.bohemiancoding.com/sketch -->
    <title>PTS Icon</title>
    <desc>Created with Sketch.</desc>
    <defs></defs>
    <g id="TURN-AROUND" stroke="none" stroke-width="1" fill="none" fill-rule="evenodd" transform="translate(-1114.000000, -485.000000)">
        <g id="Group-26" transform="translate(1042.000000, 479.000000)" fill="#437A84" fill-rule="nonzero">
            <g id="Group-23">
                <g id="Group-24">
                    <g id="PTS-Icon" transform="translate(72.000000, 6.000000)">
                        <path d="M8.16657937,1.94261523 L8.16657937,1.34104102 L8.64780525,1.34104102 C9.01597044,1.34104102 9.31441763,1.04081836 9.31441763,0.670537109 C9.31441763,0.300255859 9.01593743,0 8.64780525,0 L6.35212873,0 C5.98396354,0 5.68551635,0.300222656 5.68551635,0.670503906 C5.68551635,1.04078516 5.98399655,1.34100781 6.35212873,1.34100781 L6.83335461,1.34100781 L6.83335461,1.94258203 C3.00899864,2.28304688 0,5.52257617 0,9.4562168 C0,13.6158711 3.36448783,17 7.5,17 C11.6355122,17 15,13.6158711 15,9.4562168 C14.999967,5.52257617 11.9909353,2.28304688 8.16657937,1.94261523 Z M8.16657937,15.6226016 L8.16657937,14.9544219 C8.16657937,14.5841074 7.86809917,14.283918 7.49996699,14.283918 C7.1318018,14.283918 6.83335461,14.5841406 6.83335461,14.9544219 L6.83335461,15.6226016 C3.96441917,15.3109902 1.67920696,13.0123711 1.36940418,10.1267539 L2.03370584,10.1267539 C2.40187103,10.1267539 2.70031822,9.82653125 2.70031822,9.45625 C2.70031822,9.08596875 2.40183802,8.78574609 2.03370584,8.78574609 L1.36937117,8.78574609 C1.67917395,5.9000625 3.96445218,3.60150977 6.8333216,3.28986523 L6.8333216,3.95804492 C6.8333216,4.32835937 7.1318018,4.62854883 7.49993398,4.62854883 C7.86809917,4.62854883 8.16654636,4.32832617 8.16654636,3.95804492 L8.16654636,3.28979883 C11.0354818,3.60141016 13.320694,5.9000293 13.6304968,8.78567969 L12.9661951,8.78567969 C12.5980299,8.78567969 12.2995827,9.08590234 12.2995827,9.45618359 C12.2995827,9.82646484 12.5980629,10.1266875 12.9661951,10.1266875 L13.6305628,10.1266875 C13.32076,13.0124043 11.0355148,15.3110234 8.16657937,15.6226016 Z" id="Shape"></path>
                        <path d="M8.91855114,6.18557694 L7.09333119,8.01079784 C7.0616136,8.00775476 7.02951955,8.00606067 6.99698628,8.00606067 C6.44633638,8.00606067 6,8.45245236 6,9.00303034 C6,9.55367106 6.44636775,10 6.99698628,10 C7.54760481,10 7.99397256,9.55360832 7.99397256,9.00303034 C7.99397256,8.97049761 7.99227845,8.93840409 7.98923532,8.9067184 L9.81442389,7.0814975 C10.0618587,6.83412956 10.0618587,6.43297625 9.81442389,6.18554556 C9.56714595,5.93814625 9.16598595,5.93814625 8.91855114,6.18557694 Z" id="Shape"></path>
                    </g>
                </g>
            </g>
        </g>
    </g>
</svg>