<?xml version="1.0" encoding="UTF-8"?>
<svg width="21px" height="8px" viewBox="0 0 21 8" version="1.1" xmlns="http://www.w3.org/2000/svg" xmlns:xlink="http://www.w3.org/1999/xlink">
    <!-- Generator: Sketch 49.3 (51167) - http://www.bohemiancoding.com/sketch -->
    <title>Pushback_Truck</title>
    <desc>Created with Sketch.</desc>
    <defs></defs>
        <g id="TURN-AROUND" transform="translate(-851.000000, -458.000000)">
            <g id="Group-23" transform="translate(494.000000, 449.000000)" fill="red">
                <g id="Group-9" transform="translate(337.000000, 0.000000)">
                    <g id="Pushback_Truck" transform="translate(20.000000, 9.000000)">
                        <path d="M7,8 C5.8954305,8 5,7.1045695 5,6 C5,4.8954305 5.8954305,4 7,4 C8.1045695,4 9,4.8954305 9,6 C9,7.1045695 8.1045695,8 7,8 Z M7,6.66666667 C7.36818983,6.66666667 7.66666667,6.36818983 7.66666667,6 C7.66666667,5.63181017 7.36818983,5.33333333 7,5.33333333 C6.63181017,5.33333333 6.33333333,5.63181017 6.33333333,6 C6.33333333,6.36818983 6.63181017,6.66666667 7,6.66666667 Z" id="Combined-Shape" fill="red"></path>
                        <path d="M15,8 C13.8954305,8 13,7.1045695 13,6 C13,4.8954305 13.8954305,4 15,4 C16.1045695,4 17,4.8954305 17,6 C17,7.1045695 16.1045695,8 15,8 Z M15,6.66666667 C15.3681898,6.66666667 15.6666667,6.36818983 15.6666667,6 C15.6666667,5.63181017 15.3681898,5.33333333 15,5.33333333 C14.6318102,5.33333333 14.3333333,5.63181017 14.3333333,6 C14.3333333,6.36818983 14.6318102,6.66666667 15,6.66666667 Z" id="Combined-Shape" fill="red"></path>
                        <path d="M4.80115093,7 L0,7 L0,3.56327436 L1.38221107,1 L4.10887024,1 L4.10887024,2.99752242 L18.3194646,2.99752242 L18.3194646,5.94909108 L19,6.54392298 L19,7 L17.2481754,7 L17.2481754,5.61710228 L16.2632451,3.86494476 L13.7847541,3.86494476 L12.6204037,5.50717204 L12.6204037,6.98904167 L9.32754273,6.98904167 L9.32754273,5.60614395 L8.25002928,3.86494476 L5.64597875,3.86494476 L4.80115093,5.61710228 L4.80115093,7 Z M1.56513426,1.71369462 L0.60193421,3.60608242 L3.54633995,3.60608242 L3.54633995,1.71369462 L1.56513426,1.71369462 Z" id="Combined-Shape" fill="red"></path>
                        <rect id="Rectangle-4" fill="red" x="2" y="0" width="1" height="1"></rect>
                        <polyline id="Path-4" stroke="red" stroke-linecap="round" points="18 4 20 4 20 6 18.4452182 6"></polyline>
                    </g>
                </g>
            </g>
        </g>
</svg>