<?xml version="1.0" encoding="UTF-8"?>
<svg width="23px" height="18px" viewBox="0 0 23 18" version="1.1" xmlns="http://www.w3.org/2000/svg" xmlns:xlink="http://www.w3.org/1999/xlink">
    <!-- Generator: Sketch 49.3 (51167) - http://www.bohemiancoding.com/sketch -->
    <title>List Icon</title>
    <desc>Created with Sketch.</desc>
    <defs></defs>
    <g id="Symbols" stroke="none" stroke-width="1" fill="none" fill-rule="evenodd">
        <g id="Main-Nav-Bar" transform="translate(-359.000000, -42.000000)" fill="#B9B8B7" fill-rule="nonzero">
            <g id="Group-21" transform="translate(0.000000, -113.000000)">
                <g id="Group-24" transform="translate(312.000000, 147.000000)">
                    <g id="List">
                        <g id="List-Icon" transform="translate(47.123288, 8.845528)">
                            <path d="M20.8285196,0 L7.93860373,0 C7.33949497,0 6.84931507,0.349847561 6.84931507,0.777439024 L6.84931507,2.33231707 C6.84931507,2.75990854 7.33949497,3.1097561 7.93860373,3.1097561 L20.8285196,3.1097561 C21.4276283,3.1097561 21.9178082,2.75990854 21.9178082,2.33231707 L21.9178082,0.777439024 C21.9178082,0.349847561 21.4276283,0 20.8285196,0 Z" id="Shape"></path>
                            <path d="M20.8285196,6.2195122 L7.93860373,6.2195122 C7.33949497,6.2195122 6.84931507,6.56935976 6.84931507,6.99695122 L6.84931507,8.55182927 C6.84931507,8.97942073 7.33949497,9.32926829 7.93860373,9.32926829 L20.8285196,9.32926829 C21.4276283,9.32926829 21.9178082,8.97942073 21.9178082,8.55182927 L21.9178082,6.99695122 C21.9178082,6.56935976 21.4276283,6.2195122 20.8285196,6.2195122 Z" id="Shape"></path>
                            <path d="M20.8285196,13.4756098 L7.93860373,13.4756098 C7.33949497,13.4756098 6.84931507,13.8254573 6.84931507,14.2530488 L6.84931507,15.8079268 C6.84931507,16.2355183 7.33949497,16.5853659 7.93860373,16.5853659 L20.8285196,16.5853659 C21.4276283,16.5853659 21.9178082,16.2355183 21.9178082,15.8079268 L21.9178082,14.2530488 C21.9178082,13.8254573 21.4276283,13.4756098 20.8285196,13.4756098 Z" id="Shape"></path>
                            <path d="M3.08219178,0 L1.02739726,0 C0.462328767,0 0,0.349847561 0,0.777439024 L0,2.33231707 C0,2.75990854 0.462328767,3.1097561 1.02739726,3.1097561 L3.08219178,3.1097561 C3.64726027,3.1097561 4.10958904,2.75990854 4.10958904,2.33231707 L4.10958904,0.777439024 C4.10958904,0.349847561 3.64726027,0 3.08219178,0 Z" id="Shape"></path>
                            <path d="M3.08219178,6.2195122 L1.02739726,6.2195122 C0.462328767,6.2195122 0,6.56935976 0,6.99695122 L0,8.55182927 C0,8.97942073 0.462328767,9.32926829 1.02739726,9.32926829 L3.08219178,9.32926829 C3.64726027,9.32926829 4.10958904,8.97942073 4.10958904,8.55182927 L4.10958904,6.99695122 C4.10958904,6.56935976 3.64726027,6.2195122 3.08219178,6.2195122 Z" id="Shape"></path>
                            <path d="M3.08219178,13.4756098 L1.02739726,13.4756098 C0.462328767,13.4756098 0,13.8254573 0,14.2530488 L0,15.8079268 C0,16.2355183 0.462328767,16.5853659 1.02739726,16.5853659 L3.08219178,16.5853659 C3.64726027,16.5853659 4.10958904,16.2355183 4.10958904,15.8079268 L4.10958904,14.2530488 C4.10958904,13.8254573 3.64726027,13.4756098 3.08219178,13.4756098 Z" id="Shape"></path>
                        </g>
                    </g>
                </g>
            </g>
        </g>
    </g>
</svg>