<?xml version="1.0" encoding="UTF-8"?>
<svg width="18px" height="17px" viewBox="0 0 18 17" version="1.1" xmlns="http://www.w3.org/2000/svg" xmlns:xlink="http://www.w3.org/1999/xlink">
    <!-- Generator: Sketch 49.3 (51167) - http://www.bohemiancoding.com/sketch -->
    <title>Turn Around@2x</title>
    <desc>Created with Sketch.</desc>
    <defs></defs>
    <g id="Symbols" stroke="none" stroke-width="1" fill="none" fill-rule="evenodd">
        <g id="Main-Nav-Bar" transform="translate(-646.000000, -42.000000)">
            <g id="Group-21" transform="translate(0.000000, -113.000000)">
                <g id="Group-19" transform="translate(587.000000, 152.000000)">
                    <g id="Group-15" transform="translate(45.000000, 0.000000)">
                        <g id="Turn-Around" transform="translate(14.000000, 4.000000)">
                            <path d="M11.227354,8.61608146 L10,9.1623119 L10.1996056,9.36041027 L11.8478191,11 L17.5659313,8.45212248 C17.8334174,8.33173617 18,8.02358314 18,7.69386838 C18,7.60178184 17.9871577,7.50834768 17.9603724,7.41760874 C17.8624043,7.09014 17.6103289,6.88620199 17.3406412,6.88620199 C17.2654222,6.88620199 17.1894693,6.90192408 17.115718,6.93516508 L15.3541256,7.71947294 L12.1927258,5 L10.9947255,5.53365277 L13.4875935,8.55139627 L11.9711049,9.22744628 L11.227354,8.61608146 Z" id="Fill-1" fill="#C9B896"></path>
                            <path d="M2.29620966,8.55911063 L8.10244006,10.9540251 C8.17723672,10.9848156 8.25501037,11 8.3309234,11 L8.33166764,11 C8.6048057,11 8.86045399,10.8085081 8.95943863,10.5014461 C8.98660358,10.4162449 9,10.3285129 9,10.2424681 C9,9.9324536 8.8310563,9.6422632 8.55977885,9.53006749 L6.77396204,8.79320318 L5.76550954,4.50024102 L4.55090107,4 L4.88134602,8.0120511 L3.35750359,7.38316462 L3.24028494,6.32194505 L2,5.81073753 L2.02976982,6.08152567 L2.29620966,8.55911063 Z" id="Arrival-Icon" fill="#C9B896"></path>
                            <g id="Group-16" transform="translate(3.000000, 0.000000)">
                                <polygon id="Path-16" fill="#C9B896" transform="translate(13.295607, 4.812500) rotate(-195.000000) translate(-13.295607, -4.812500) " points="12.0089352 6.125 13.2324071 3.5 14.5822785 6.125"></polygon>
                                <path d="M0,3.46463771 C1.48448917,1.15487924 3.62894189,2.91433544e-16 6.43335815,0 C9.23777442,0 11.3822271,1.16666667 12.8667163,3.5" id="Path-6" stroke="#C9B896" stroke-linecap="round"></path>
                            </g>
                            <g id="Group-16" transform="translate(7.500000, 11.500000) scale(-1, -1) translate(-7.500000, -11.500000) translate(0.000000, 8.000000)">
                                <polygon id="Path-16" fill="#C9B896" transform="translate(13.295607, 4.812500) rotate(-195.000000) translate(-13.295607, -4.812500) " points="12.0089352 6.125 13.2324071 3.5 14.5822785 6.125"></polygon>
                                <path d="M0,3.46463771 C1.48448917,1.15487924 3.62894189,2.91433544e-16 6.43335815,0 C9.23777442,0 11.3822271,1.16666667 12.8667163,3.5" id="Path-6" stroke="#C9B896" stroke-linecap="round"></path>
                            </g>
                        </g>
                    </g>
                </g>
            </g>
        </g>
    </g>
</svg>