<?xml version="1.0" encoding="UTF-8"?>
<svg width="17px" height="17px" viewBox="0 0 17 17" version="1.1" xmlns="http://www.w3.org/2000/svg" xmlns:xlink="http://www.w3.org/1999/xlink">
    <!-- Generator: Sketch 49.3 (51167) - http://www.bohemiancoding.com/sketch -->
    <title>All Green Button@2x</title>
    <desc>Created with Sketch.</desc>
    <defs>
        <linearGradient x1="50%" y1="0%" x2="50%" y2="100%" id="linearGradient-1">
            <stop stop-color="#2B8900" offset="0%"></stop>
            <stop stop-color="#025700" offset="100%"></stop>
        </linearGradient>
        <linearGradient x1="50%" y1="0%" x2="50%" y2="100%" id="linearGradient-2">
            <stop stop-color="#ACA298" offset="0%"></stop>
            <stop stop-color="#EDEAE6" offset="100%"></stop>
        </linearGradient>
    </defs>
    <g id="Symbols" stroke="none" stroke-width="1" fill="none" fill-rule="evenodd">
        <g id="Main-Nav-Bar" transform="translate(-820.000000, -89.000000)">
            <g id="Group-21" transform="translate(0.000000, -113.000000)">
                <g id="Group-27" transform="translate(821.000000, 144.000000)">
                    <g id="All-Green-Button" transform="translate(0.362025, 59.000000)">
                        <ellipse id="Oval" stroke="url(#linearGradient-2)" fill="url(#linearGradient-1)" cx="7.29113924" cy="7.5" rx="7.29113924" ry="7.5"></ellipse>
                        <path d="M7.04229896,12.9941491 C9.61663475,12.8668883 11.6658228,10.6796061 11.6658228,8 C11.6658228,5.23857625 9.48958663,3 6.80506329,3 C4.20007918,3 2.07370857,5.10788873 1.94999175,7.75596851 C1.94621356,7.67113285 1.9443038,7.58579584 1.9443038,7.5 C1.9443038,4.46243388 4.33816357,2 7.29113924,2 C10.2441149,2 12.6379747,4.46243388 12.6379747,7.5 C12.6379747,10.5375661 10.2441149,13 7.29113924,13 C7.20773265,13 7.12477211,12.9980355 7.04229896,12.9941491 Z" id="Combined-Shape" fill="#FFFFFF" opacity="0.412533967"></path>
                    </g>
                </g>
            </g>
        </g>
    </g>
</svg>