# INSTRUCTIONS {"v_precision":0,"scale":0.0146583672,"vn_precision":2,"vt_precision":2}
v -2366 428 394
v -1872 805 753
v -2555 805 975
v -2976 805 394
v -2555 805 -186
v -1872 805 36
v -2177 1416 975
v -2860 1416 753
v -2860 1416 36
v -2177 1416 -186
v -1756 1416 394
v -2366 1793 394
v -2385 1 325
v -2385 820 325
v -2324 1 360
v -2324 820 360
v -2324 1 430
v -2324 820 430
v -2385 1 464
v -2385 820 464
v -2445 1 430
v -2445 820 430
v -2445 1 360
v -2445 820 360
v 540 427 -1859
v 1034 804 -1500
v 352 804 -1278
v -70 804 -1859
v 352 804 -2439
v 1034 804 -2217
v 729 1415 -1278
v 46 1415 -1500
v 46 1415 -2217
v 729 1415 -2439
v 1150 1415 -1859
v 540 1792 -1859
v 522 0 -1928
v 522 819 -1928
v 582 0 -1893
v 582 819 -1893
v 582 0 -1823
v 582 819 -1823
v 522 0 -1789
v 522 819 -1789
v 461 0 -1823
v 461 819 -1823
v 461 0 -1893
v 461 819 -1893
v 540 427 -489
v 1034 804 -130
v 352 804 92
v -70 804 -489
v 352 804 -1069
v 1034 804 -847
v 729 1415 92
v 46 1415 -130
v 46 1415 -847
v 729 1415 -1069
v 1150 1415 -489
v 540 1792 -489
v 522 -0 -558
v 522 819 -558
v 582 -0 -523
v 582 819 -523
v 582 -0 -454
v 582 819 -454
v 522 -0 -419
v 522 819 -419
v 461 -0 -454
v 461 819 -454
v 461 -0 -523
v 461 819 -523
v -1435 427 -630
v -941 804 -271
v -1623 804 -49
v -2045 804 -630
v -1623 804 -1210
v -941 804 -988
v -1246 1415 -49
v -1928 1415 -271
v -1928 1415 -988
v -1246 1415 -1210
v -825 1415 -630
v -1435 1792 -630
v -1453 -0 -699
v -1453 819 -699
v -1393 -0 -664
v -1393 819 -664
v -1393 -0 -595
v -1393 819 -595
v -1453 -0 -560
v -1453 819 -560
v -1514 -0 -595
v -1514 819 -595
v -1514 -0 -664
v -1514 819 -664
v -820 427 -1869
v -327 804 -1510
v -1009 804 -1288
v -1430 804 -1869
v -1009 804 -2449
v -327 804 -2227
v -632 1415 -1288
v -1314 1415 -1510
v -1314 1415 -2227
v -632 1415 -2449
v -210 1415 -1869
v -820 1792 -1869
v -839 -0 -1938
v -839 819 -1938
v -779 -0 -1903
v -779 819 -1903
v -779 -0 -1833
v -779 819 -1833
v -839 -0 -1799
v -839 819 -1799
v -899 -0 -1833
v -899 819 -1833
v -899 -0 -1903
v -899 819 -1903
v -682 428 394
v -189 805 753
v -871 805 975
v -1292 805 394
v -871 805 -186
v -189 805 36
v -494 1416 975
v -1176 1416 753
v -1176 1416 36
v -494 1416 -186
v -72 1416 394
v -682 1793 394
v -701 1 325
v -701 820 325
v -640 1 360
v -640 820 360
v -640 1 430
v -640 820 430
v -701 1 464
v -701 820 464
v -761 1 430
v -761 820 430
v -761 1 360
v -761 820 360
v -667 427 1443
v -173 804 1802
v -855 804 2024
v -1277 804 1443
v -855 804 863
v -173 804 1085
v -478 1415 2024
v -1160 1415 1802
v -1160 1415 1085
v -478 1415 863
v -56 1415 1443
v -667 1792 1443
v -685 -0 1374
v -685 819 1374
v -625 -0 1409
v -625 819 1409
v -625 -0 1479
v -625 819 1479
v -685 -0 1513
v -685 819 1513
v -745 -0 1479
v -745 819 1479
v -745 -0 1409
v -745 819 1409
v 1150 427 440
v 1644 804 799
v 962 804 1021
v 540 804 440
v 962 804 -140
v 1644 804 82
v 1339 1415 1021
v 657 1415 799
v 657 1415 82
v 1339 1415 -140
v 1761 1415 440
v 1150 1792 440
v 1132 -0 371
v 1132 819 371
v 1192 -0 406
v 1192 819 406
v 1192 -0 475
v 1192 819 475
v 1132 -0 510
v 1132 819 510
v 1072 -0 475
v 1072 819 475
v 1072 -0 406
v 1072 819 406
v 540 427 1220
v 1034 804 1578
v 352 804 1800
v -70 804 1220
v 352 804 639
v 1034 804 861
v 729 1415 1800
v 46 1415 1578
v 46 1415 861
v 729 1415 639
v 1150 1415 1220
v 540 1792 1220
v 522 -0 1151
v 522 819 1151
v 582 -0 1185
v 582 819 1185
v 582 -0 1255
v 582 819 1255
v 522 -0 1290
v 522 819 1290
v 461 -0 1255
v 461 819 1255
v 461 -0 1185
v 461 819 1185
vt 1 1
vt .83 .5
vt 1 .5
vt .83 1
vt .67 .5
vt .67 1
vt .5 .5
vt .5 1
vt .33 .5
vt .25 .49
vt .04 .13
vt .46 .13
vt .33 1
vt .17 .5
vt .17 1
vt 0 .5
vt .96 .13
vt .75 .01
vt .54 .37
vt .46 .37
vt .04 .37
vt .25 .01
vt 0 1
vt .75 .49
vt .96 .37
vt .54 .13
vt 1 1
vt .83 .5
vt 1 .5
vt .83 1
vt .67 .5
vt .67 1
vt .5 .5
vt .5 1
vt .33 .5
vt .25 .49
vt .04 .13
vt .46 .37
vt .33 1
vt .17 .5
vt .17 1
vt 0 .5
vt .96 .37
vt .54 .13
vt .54 .37
vt .46 .13
vt .04 .37
vt .25 .01
vt 0 1
vt .75 .49
vt .96 .13
vt .75 .01
vt 1 1
vt .83 .5
vt 1 .5
vt .83 1
vt .67 .5
vt .67 1
vt .5 .5
vt .5 1
vt .33 .5
vt .25 .49
vt .04 .13
vt .46 .13
vt .33 1
vt .17 .5
vt .17 1
vt 0 .5
vt .96 .37
vt .54 .13
vt .54 .37
vt .46 .37
vt .04 .37
vt .25 .01
vt 0 1
vt .75 .49
vt .96 .13
vt .75 .01
vt 1 1
vt .83 .5
vt 1 .5
vt .83 1
vt .67 .5
vt .67 1
vt .5 .5
vt .5 1
vt .33 .5
vt .04 .37
vt .04 .13
vt .46 .13
vt .33 1
vt .17 .5
vt .17 1
vt 0 .5
vt .96 .13
vt .75 .01
vt .54 .37
vt .46 .37
vt .25 .49
vt .25 .01
vt 0 1
vt .75 .49
vt .96 .37
vt .54 .13
vt 1 1
vt .83 .5
vt 1 .5
vt .83 1
vt .67 .5
vt .67 1
vt .5 .5
vt .5 1
vt .33 .5
vt .04 .37
vt .04 .13
vt .46 .13
vt .33 1
vt .17 .5
vt .17 1
vt 0 .5
vt .96 .37
vt .54 .13
vt .54 .37
vt .46 .37
vt .25 .49
vt .25 .01
vt 0 1
vt .75 .49
vt .96 .13
vt .75 .01
vt 1 1
vt .83 .5
vt 1 .5
vt .83 1
vt .67 .5
vt .5 1
vt .5 .5
vt .33 .5
vt .04 .37
vt .04 .13
vt .46 .13
vt .33 1
vt .17 .5
vt .17 1
vt 0 .5
vt .96 .37
vt .54 .13
vt .54 .37
vt .67 1
vt .46 .37
vt .25 .49
vt .25 .01
vt 0 1
vt .75 .49
vt .96 .13
vt .75 .01
vt 1 1
vt .83 .5
vt 1 .5
vt .83 1
vt .67 .5
vt .67 1
vt .5 .5
vt .5 1
vt .33 .5
vt .04 .37
vt .04 .13
vt .46 .13
vt .33 1
vt .17 .5
vt .17 1
vt 0 .5
vt .96 .37
vt .54 .13
vt .54 .37
vt .46 .37
vt .25 .49
vt .25 .01
vt 0 1
vt .75 .49
vt .96 .13
vt .75 .01
vt 1 1
vt .83 .5
vt 1 .5
vt .83 1
vt .67 .5
vt .67 1
vt .5 .5
vt .5 1
vt .33 .5
vt .25 .49
vt .04 .13
vt .46 .37
vt .33 1
vt .17 .5
vt .17 1
vt 0 .5
vt .96 .13
vt .75 .01
vt .54 .37
vt .46 .13
vt .04 .37
vt .25 .01
vt 0 1
vt .75 .49
vt .96 .37
vt .54 .13
vt 1 1
vt .83 .5
vt 1 .5
vt .83 1
vt .67 .5
vt .67 1
vt .5 .5
vt .5 1
vt .33 .5
vt .04 .37
vt .04 .13
vt .46 .13
vt .33 1
vt .17 .5
vt .17 1
vt 0 .5
vt .96 .37
vt .54 .13
vt .54 .37
vt .46 .37
vt .25 .49
vt .25 .01
vt 0 1
vt .75 .49
vt .96 .13
vt .75 .01
vn .19 -.79 .58
vn .61 -.79 0
vn -.49 -.79 .36
vn -.49 -.79 -.36
vn .19 -.79 -.58
vn .98 -.19 0
vn .3 -.19 .93
vn -.79 -.19 .58
vn -.79 -.19 -.58
vn .3 -.19 -.93
vn .79 .19 .58
vn -.3 .19 .93
vn -.98 .19 0
vn -.3 .19 -.93
vn .79 .19 -.58
vn .49 .79 .36
vn -.19 .79 .58
vn -.61 .79 0
vn -.19 .79 -.58
vn .49 .79 -.36
vn .5 0 -.87
vn 1 0 0
vn .5 0 .87
vn -.5 0 .87
vn 0 1 0
vn -1 0 0
vn -.5 0 -.87
vn 0 -1 0
vn .19 -.79 .58
vn .61 -.79 0
vn -.49 -.79 .36
vn -.49 -.79 -.36
vn .19 -.79 -.58
vn .98 -.19 0
vn .3 -.19 .93
vn -.79 -.19 .58
vn -.79 -.19 -.58
vn .3 -.19 -.93
vn .79 .19 .58
vn -.3 .19 .93
vn -.98 .19 0
vn -.3 .19 -.93
vn .79 .19 -.58
vn .49 .79 .36
vn -.19 .79 .58
vn -.61 .79 0
vn -.19 .79 -.58
vn .49 .79 -.36
vn .5 0 -.87
vn 1 0 0
vn .5 0 .87
vn -.5 0 .87
vn 0 1 0
vn -1 0 0
vn -.5 0 -.87
vn 0 -1 0
vn .19 -.79 .58
vn .61 -.79 0
vn -.49 -.79 .36
vn -.49 -.79 -.36
vn .19 -.79 -.58
vn .98 -.19 0
vn .3 -.19 .93
vn -.79 -.19 .58
vn -.79 -.19 -.58
vn .3 -.19 -.93
vn .79 .19 .58
vn -.3 .19 .93
vn -.98 .19 0
vn -.3 .19 -.93
vn .79 .19 -.58
vn .49 .79 .36
vn -.19 .79 .58
vn -.61 .79 0
vn -.19 .79 -.58
vn .49 .79 -.36
vn .5 0 -.87
vn 1 0 0
vn .5 0 .87
vn -.5 0 .87
vn 0 1 0
vn -1 0 0
vn -.5 0 -.87
vn 0 -1 0
vn .19 -.79 .58
vn .61 -.79 0
vn -.49 -.79 .36
vn -.49 -.79 -.36
vn .19 -.79 -.58
vn .98 -.19 0
vn .3 -.19 .93
vn -.79 -.19 .58
vn -.79 -.19 -.58
vn .3 -.19 -.93
vn .79 .19 .58
vn -.3 .19 .93
vn -.98 .19 0
vn -.3 .19 -.93
vn .79 .19 -.58
vn .49 .79 .36
vn -.19 .79 .58
vn -.61 .79 0
vn -.19 .79 -.58
vn .49 .79 -.36
vn .5 0 -.87
vn 1 0 0
vn .5 0 .87
vn -.5 0 .87
vn 0 1 0
vn -1 0 0
vn -.5 0 -.87
vn 0 -1 0
vn .19 -.79 .58
vn .61 -.79 0
vn -.49 -.79 .36
vn -.49 -.79 -.36
vn .19 -.79 -.58
vn .98 -.19 0
vn .3 -.19 .93
vn -.79 -.19 .58
vn -.79 -.19 -.58
vn .3 -.19 -.93
vn .79 .19 .58
vn -.3 .19 .93
vn -.98 .19 0
vn -.3 .19 -.93
vn .79 .19 -.58
vn .49 .79 .36
vn -.19 .79 .58
vn -.61 .79 0
vn -.19 .79 -.58
vn .49 .79 -.36
vn .5 0 -.87
vn 1 0 0
vn .5 0 .87
vn -.5 0 .87
vn 0 1 0
vn -1 0 0
vn -.5 0 -.87
vn 0 -1 0
vn .19 -.79 .58
vn .61 -.79 0
vn -.49 -.79 .36
vn -.49 -.79 -.36
vn .19 -.79 -.58
vn .98 -.19 0
vn .3 -.19 .93
vn -.79 -.19 .58
vn -.79 -.19 -.58
vn .3 -.19 -.93
vn .79 .19 .58
vn -.3 .19 .93
vn -.98 .19 0
vn -.3 .19 -.93
vn .79 .19 -.58
vn .49 .79 .36
vn -.19 .79 .58
vn -.61 .79 0
vn -.19 .79 -.58
vn .49 .79 -.36
vn .5 0 -.87
vn 1 0 0
vn .5 0 .87
vn -.5 0 .87
vn 0 1 0
vn -1 0 0
vn -.5 0 -.87
vn 0 -1 0
vn .19 -.79 .58
vn .61 -.79 0
vn -.49 -.79 .36
vn -.49 -.79 -.36
vn .19 -.79 -.58
vn .98 -.19 0
vn .3 -.19 .93
vn -.79 -.19 .58
vn -.79 -.19 -.58
vn .3 -.19 -.93
vn .79 .19 .58
vn -.3 .19 .93
vn -.98 .19 0
vn -.3 .19 -.93
vn .79 .19 -.58
vn .49 .79 .36
vn -.19 .79 .58
vn -.61 .79 0
vn -.19 .79 -.58
vn .49 .79 -.36
vn .5 0 -.87
vn 1 0 0
vn .5 0 .87
vn -.5 0 .87
vn 0 1 0
vn -1 0 0
vn -.5 0 -.87
vn 0 -1 0
vn .19 -.79 .58
vn .61 -.79 0
vn -.49 -.79 .36
vn -.49 -.79 -.36
vn .19 -.79 -.58
vn .98 -.19 0
vn .3 -.19 .93
vn -.79 -.19 .58
vn -.79 -.19 -.58
vn .3 -.19 -.93
vn .79 .19 .58
vn -.3 .19 .93
vn -.98 .19 0
vn -.3 .19 -.93
vn .79 .19 -.58
vn .49 .79 .36
vn -.19 .79 .58
vn -.61 .79 0
vn -.19 .79 -.58
vn .49 .79 -.36
vn .5 0 -.87
vn 1 0 0
vn .5 0 .87
vn -.5 0 .87
vn 0 1 0
vn -1 0 0
vn -.5 0 -.87
vn 0 -1 0
vn .19 -.79 .58
vn .61 -.79 0
vn -.49 -.79 .36
vn -.49 -.79 -.36
vn .19 -.79 -.58
vn .98 -.19 0
vn .3 -.19 .93
vn -.79 -.19 .58
vn -.79 -.19 -.58
vn .3 -.19 -.93
vn .79 .19 .58
vn -.3 .19 .93
vn -.98 .19 0
vn -.3 .19 -.93
vn .79 .19 -.58
vn .49 .79 .36
vn -.19 .79 .58
vn -.61 .79 0
vn -.19 .79 -.58
vn .49 .79 -.36
vn .5 0 -.87
vn 1 0 0
vn .5 0 .87
vn -.5 0 .87
vn 0 1 0
vn -1 0 0
vn -.5 0 -.87
vn 0 -1 0
mtllib Low-poly-tree.mtl
o Icosphere.008_Icosphere.002
usemtl Material.003
s off
f 1//1 2//1 3//1
f 2//2 1//2 6//2
f 1//3 3//3 4//3
f 1//4 4//4 5//4
f 1//5 5//5 6//5
f 2//6 6//6 11//6
f 3//7 2//7 7//7
f 4//8 3//8 8//8
f 5//9 4//9 9//9
f 6//10 5//10 10//10
f 2//11 11//11 7//11
f 3//12 7//12 8//12
f 4//13 8//13 9//13
f 5//14 9//14 10//14
f 6//15 10//15 11//15
f 7//16 11//16 12//16
f 8//17 7//17 12//17
f 9//18 8//18 12//18
f 10//19 9//19 12//19
f 11//20 10//20 12//20
o Cylinder.008_Cylinder.002
usemtl Material.004
s off
f 14/1/21 15/2/21 13/3/21
f 16/4/22 17/5/22 15/2/22
f 18/6/23 19/7/23 17/5/23
f 20/8/24 21/9/24 19/7/24
f 14/10/25 22/11/25 18/12/25
f 22/13/26 23/14/26 21/9/26
f 24/15/27 13/16/27 23/14/27
f 17/17/28 19/18/28 23/19/28
f 14/1/21 16/4/21 15/2/21
f 16/4/22 18/6/22 17/5/22
f 18/6/23 20/8/23 19/7/23
f 20/8/24 22/13/24 21/9/24
f 18/12/25 16/20/25 14/10/25
f 14/10/25 24/21/25 22/11/25
f 22/11/25 20/22/25 18/12/25
f 22/13/26 24/15/26 23/14/26
f 24/15/27 14/23/27 13/16/27
f 23/19/28 13/24/28 15/25/28
f 15/25/28 17/17/28 23/19/28
f 19/18/28 21/26/28 23/19/28
o Icosphere.007_Icosphere.002
usemtl Material.003
s off
f 25//29 26//29 27//29
f 26//30 25//30 30//30
f 25//31 27//31 28//31
f 25//32 28//32 29//32
f 25//33 29//33 30//33
f 26//34 30//34 35//34
f 27//35 26//35 31//35
f 28//36 27//36 32//36
f 29//37 28//37 33//37
f 30//38 29//38 34//38
f 26//39 35//39 31//39
f 27//40 31//40 32//40
f 28//41 32//41 33//41
f 29//42 33//42 34//42
f 30//43 34//43 35//43
f 31//44 35//44 36//44
f 32//45 31//45 36//45
f 33//46 32//46 36//46
f 34//47 33//47 36//47
f 35//48 34//48 36//48
o Cylinder.007_Cylinder.002
usemtl Material.004
s off
f 38/27/49 39/28/49 37/29/49
f 40/30/50 41/31/50 39/28/50
f 42/32/51 43/33/51 41/31/51
f 44/34/52 45/35/52 43/33/52
f 38/36/53 46/37/53 40/38/53
f 46/39/54 47/40/54 45/35/54
f 48/41/55 37/42/55 47/40/55
f 39/43/56 45/44/56 47/45/56
f 38/27/49 40/30/49 39/28/49
f 40/30/50 42/32/50 41/31/50
f 42/32/51 44/34/51 43/33/51
f 44/34/52 46/39/52 45/35/52
f 42/46/53 40/38/53 46/37/53
f 38/36/53 48/47/53 46/37/53
f 46/37/53 44/48/53 42/46/53
f 46/39/54 48/41/54 47/40/54
f 48/41/55 38/49/55 37/42/55
f 47/45/56 37/50/56 39/43/56
f 39/43/56 41/51/56 43/52/56
f 43/52/56 45/44/56 39/43/56
o Icosphere.006_Icosphere.002
usemtl Material.003
s off
f 49//57 50//57 51//57
f 50//58 49//58 54//58
f 49//59 51//59 52//59
f 49//60 52//60 53//60
f 49//61 53//61 54//61
f 50//62 54//62 59//62
f 51//63 50//63 55//63
f 52//64 51//64 56//64
f 53//65 52//65 57//65
f 54//66 53//66 58//66
f 50//67 59//67 55//67
f 51//68 55//68 56//68
f 52//69 56//69 57//69
f 53//70 57//70 58//70
f 54//71 58//71 59//71
f 55//72 59//72 60//72
f 56//73 55//73 60//73
f 57//74 56//74 60//74
f 58//75 57//75 60//75
f 59//76 58//76 60//76
o Cylinder.006_Cylinder.002
usemtl Material.004
s off
f 62/53/77 63/54/77 61/55/77
f 64/56/78 65/57/78 63/54/78
f 66/58/79 67/59/79 65/57/79
f 68/60/80 69/61/80 67/59/80
f 62/62/81 70/63/81 66/64/81
f 70/65/82 71/66/82 69/61/82
f 72/67/83 61/68/83 71/66/83
f 63/69/84 69/70/84 71/71/84
f 62/53/77 64/56/77 63/54/77
f 64/56/78 66/58/78 65/57/78
f 66/58/79 68/60/79 67/59/79
f 68/60/80 70/65/80 69/61/80
f 66/64/81 64/72/81 62/62/81
f 62/62/81 72/73/81 70/63/81
f 70/63/81 68/74/81 66/64/81
f 70/65/82 72/67/82 71/66/82
f 72/67/83 62/75/83 61/68/83
f 71/71/84 61/76/84 63/69/84
f 63/69/84 65/77/84 67/78/84
f 67/78/84 69/70/84 63/69/84
o Icosphere.005_Icosphere.002
usemtl Material.003
s off
f 73//85 74//85 75//85
f 74//86 73//86 78//86
f 73//87 75//87 76//87
f 73//88 76//88 77//88
f 73//89 77//89 78//89
f 74//90 78//90 83//90
f 75//91 74//91 79//91
f 76//92 75//92 80//92
f 77//93 76//93 81//93
f 78//94 77//94 82//94
f 74//95 83//95 79//95
f 75//96 79//96 80//96
f 76//97 80//97 81//97
f 77//98 81//98 82//98
f 78//99 82//99 83//99
f 79//100 83//100 84//100
f 80//101 79//101 84//101
f 81//102 80//102 84//102
f 82//103 81//103 84//103
f 83//104 82//104 84//104
o Cylinder.005_Cylinder.002
usemtl Material.004
s off
f 86/79/105 87/80/105 85/81/105
f 88/82/106 89/83/106 87/80/106
f 90/84/107 91/85/107 89/83/107
f 92/86/108 93/87/108 91/85/108
f 96/88/109 94/89/109 90/90/109
f 94/91/110 95/92/110 93/87/110
f 96/93/111 85/94/111 95/92/111
f 89/95/112 91/96/112 95/97/112
f 86/79/105 88/82/105 87/80/105
f 88/82/106 90/84/106 89/83/106
f 90/84/107 92/86/107 91/85/107
f 92/86/108 94/91/108 93/87/108
f 90/90/109 88/98/109 86/99/109
f 86/99/109 96/88/109 90/90/109
f 94/89/109 92/100/109 90/90/109
f 94/91/110 96/93/110 95/92/110
f 96/93/111 86/101/111 85/94/111
f 95/97/112 85/102/112 87/103/112
f 87/103/112 89/95/112 95/97/112
f 91/96/112 93/104/112 95/97/112
o Icosphere.004_Icosphere.002
usemtl Material.003
s off
f 97//113 98//113 99//113
f 98//114 97//114 102//114
f 97//115 99//115 100//115
f 97//116 100//116 101//116
f 97//117 101//117 102//117
f 98//118 102//118 107//118
f 99//119 98//119 103//119
f 100//120 99//120 104//120
f 101//121 100//121 105//121
f 102//122 101//122 106//122
f 98//123 107//123 103//123
f 99//124 103//124 104//124
f 100//125 104//125 105//125
f 101//126 105//126 106//126
f 102//127 106//127 107//127
f 103//128 107//128 108//128
f 104//129 103//129 108//129
f 105//130 104//130 108//130
f 106//131 105//131 108//131
f 107//132 106//132 108//132
o Cylinder.004_Cylinder.002
usemtl Material.004
s off
f 110/105/133 111/106/133 109/107/133
f 112/108/134 113/109/134 111/106/134
f 114/110/135 115/111/135 113/109/135
f 116/112/136 117/113/136 115/111/136
f 120/114/137 118/115/137 114/116/137
f 118/117/138 119/118/138 117/113/138
f 120/119/139 109/120/139 119/118/139
f 111/121/140 117/122/140 119/123/140
f 110/105/133 112/108/133 111/106/133
f 112/108/134 114/110/134 113/109/134
f 114/110/135 116/112/135 115/111/135
f 116/112/136 118/117/136 117/113/136
f 114/116/137 112/124/137 110/125/137
f 110/125/137 120/114/137 114/116/137
f 118/115/137 116/126/137 114/116/137
f 118/117/138 120/119/138 119/118/138
f 120/119/139 110/127/139 109/120/139
f 119/123/140 109/128/140 111/121/140
f 111/121/140 113/129/140 115/130/140
f 115/130/140 117/122/140 111/121/140
o Icosphere.003_Icosphere.002
usemtl Material.003
s off
f 121//141 122//141 123//141
f 122//142 121//142 126//142
f 121//143 123//143 124//143
f 121//144 124//144 125//144
f 121//145 125//145 126//145
f 122//146 126//146 131//146
f 123//147 122//147 127//147
f 124//148 123//148 128//148
f 125//149 124//149 129//149
f 126//150 125//150 130//150
f 122//151 131//151 127//151
f 123//152 127//152 128//152
f 124//153 128//153 129//153
f 125//154 129//154 130//154
f 126//155 130//155 131//155
f 127//156 131//156 132//156
f 128//157 127//157 132//157
f 129//158 128//158 132//158
f 130//159 129//159 132//159
f 131//160 130//160 132//160
o Cylinder.003_Cylinder.002
usemtl Material.004
s off
f 134/131/161 135/132/161 133/133/161
f 136/134/162 137/135/162 135/132/162
f 137/135/163 140/136/163 139/137/163
f 140/136/164 141/138/164 139/137/164
f 144/139/165 142/140/165 138/141/165
f 142/142/166 143/143/166 141/138/166
f 144/144/167 133/145/167 143/143/167
f 135/146/168 141/147/168 143/148/168
f 134/131/161 136/134/161 135/132/161
f 136/134/162 138/149/162 137/135/162
f 137/135/163 138/149/163 140/136/163
f 140/136/164 142/142/164 141/138/164
f 138/141/165 136/150/165 134/151/165
f 134/151/165 144/139/165 138/141/165
f 142/140/165 140/152/165 138/141/165
f 142/142/166 144/144/166 143/143/166
f 144/144/167 134/153/167 133/145/167
f 143/148/168 133/154/168 135/146/168
f 135/146/168 137/155/168 139/156/168
f 139/156/168 141/147/168 135/146/168
o Icosphere.002
usemtl Material.003
s off
f 145//169 146//169 147//169
f 146//170 145//170 150//170
f 145//171 147//171 148//171
f 145//172 148//172 149//172
f 145//173 149//173 150//173
f 146//174 150//174 155//174
f 147//175 146//175 151//175
f 148//176 147//176 152//176
f 149//177 148//177 153//177
f 150//178 149//178 154//178
f 146//179 155//179 151//179
f 147//180 151//180 152//180
f 148//181 152//181 153//181
f 149//182 153//182 154//182
f 150//183 154//183 155//183
f 151//184 155//184 156//184
f 152//185 151//185 156//185
f 153//186 152//186 156//186
f 154//187 153//187 156//187
f 155//188 154//188 156//188
o Cylinder.002
usemtl Material.004
s off
f 158/157/189 159/158/189 157/159/189
f 160/160/190 161/161/190 159/158/190
f 162/162/191 163/163/191 161/161/191
f 164/164/192 165/165/192 163/163/192
f 168/166/193 166/167/193 162/168/193
f 166/169/194 167/170/194 165/165/194
f 168/171/195 157/172/195 167/170/195
f 159/173/196 165/174/196 167/175/196
f 158/157/189 160/160/189 159/158/189
f 160/160/190 162/162/190 161/161/190
f 162/162/191 164/164/191 163/163/191
f 164/164/192 166/169/192 165/165/192
f 162/168/193 160/176/193 158/177/193
f 158/177/193 168/166/193 162/168/193
f 166/167/193 164/178/193 162/168/193
f 166/169/194 168/171/194 167/170/194
f 168/171/195 158/179/195 157/172/195
f 167/175/196 157/180/196 159/173/196
f 159/173/196 161/181/196 163/182/196
f 163/182/196 165/174/196 159/173/196
o Icosphere.001_Icosphere.002
usemtl Material.003
s off
f 169//197 170//197 171//197
f 170//198 169//198 174//198
f 169//199 171//199 172//199
f 169//200 172//200 173//200
f 169//201 173//201 174//201
f 170//202 174//202 179//202
f 171//203 170//203 175//203
f 172//204 171//204 176//204
f 173//205 172//205 177//205
f 174//206 173//206 178//206
f 170//207 179//207 175//207
f 171//208 175//208 176//208
f 172//209 176//209 177//209
f 173//210 177//210 178//210
f 174//211 178//211 179//211
f 175//212 179//212 180//212
f 176//213 175//213 180//213
f 177//214 176//214 180//214
f 178//215 177//215 180//215
f 179//216 178//216 180//216
o Cylinder.001_Cylinder.002
usemtl Material.004
s off
f 182/183/217 183/184/217 181/185/217
f 184/186/218 185/187/218 183/184/218
f 186/188/219 187/189/219 185/187/219
f 188/190/220 189/191/220 187/189/220
f 182/192/221 190/193/221 184/194/221
f 190/195/222 191/196/222 189/191/222
f 192/197/223 181/198/223 191/196/223
f 185/199/224 187/200/224 191/201/224
f 182/183/217 184/186/217 183/184/217
f 184/186/218 186/188/218 185/187/218
f 186/188/219 188/190/219 187/189/219
f 188/190/220 190/195/220 189/191/220
f 186/202/221 184/194/221 190/193/221
f 182/192/221 192/203/221 190/193/221
f 190/193/221 188/204/221 186/202/221
f 190/195/222 192/197/222 191/196/222
f 192/197/223 182/205/223 181/198/223
f 191/201/224 181/206/224 183/207/224
f 183/207/224 185/199/224 191/201/224
f 187/200/224 189/208/224 191/201/224
o Icosphere_Icosphere.002
usemtl Material.003
s off
f 193//225 194//225 195//225
f 194//226 193//226 198//226
f 193//227 195//227 196//227
f 193//228 196//228 197//228
f 193//229 197//229 198//229
f 194//230 198//230 203//230
f 195//231 194//231 199//231
f 196//232 195//232 200//232
f 197//233 196//233 201//233
f 198//234 197//234 202//234
f 194//235 203//235 199//235
f 195//236 199//236 200//236
f 196//237 200//237 201//237
f 197//238 201//238 202//238
f 198//239 202//239 203//239
f 199//240 203//240 204//240
f 200//241 199//241 204//241
f 201//242 200//242 204//242
f 202//243 201//243 204//243
f 203//244 202//244 204//244
o Cylinder_Cylinder.002
usemtl Material.004
s off
f 206/209/245 207/210/245 205/211/245
f 208/212/246 209/213/246 207/210/246
f 210/214/247 211/215/247 209/213/247
f 212/216/248 213/217/248 211/215/248
f 216/218/249 214/219/249 210/220/249
f 214/221/250 215/222/250 213/217/250
f 216/223/251 205/224/251 215/222/251
f 207/225/252 213/226/252 215/227/252
f 206/209/245 208/212/245 207/210/245
f 208/212/246 210/214/246 209/213/246
f 210/214/247 212/216/247 211/215/247
f 212/216/248 214/221/248 213/217/248
f 210/220/249 208/228/249 206/229/249
f 206/229/249 216/218/249 210/220/249
f 214/219/249 212/230/249 210/220/249
f 214/221/250 216/223/250 215/222/250
f 216/223/251 206/231/251 205/224/251
f 215/227/252 205/232/252 207/225/252
f 207/225/252 209/233/252 211/234/252
f 211/234/252 213/226/252 207/225/252
