<?xml version="1.0" encoding="utf-8"?>
<!-- Generator: Adobe Illustrator 22.0.1, SVG Export Plug-In . SVG Version: 6.00 Build 0)  -->
<svg version="1.1" xmlns="http://www.w3.org/2000/svg" xmlns:xlink="http://www.w3.org/1999/xlink" x="0px" y="0px"
	 viewBox="0 0 322.9 274.3" style="enable-background:new 0 0 322.9 274.3;" xml:space="preserve">
<style type="text/css">
	.st0{fill:url(#SVGID_1_);stroke:#E2E2E1;stroke-miterlimit:10;}
	.st1{fill:url(#SVGID_2_);stroke:#E2E2E1;stroke-miterlimit:10;}
	.st2{fill:url(#SVGID_3_);stroke:#E2E2E1;stroke-miterlimit:10;}
	.st3{fill:url(#SVGID_4_);stroke:#E2E2E1;stroke-miterlimit:10;}
	.st4{fill:url(#SVGID_5_);stroke:#E2E2E1;stroke-miterlimit:10;}
	.st5{fill:url(#SVGID_6_);stroke:#E2E2E1;stroke-miterlimit:10;}
	.st6{fill:url(#SVGID_7_);stroke:#E2E2E1;stroke-miterlimit:10;}
	.st7{fill:url(#SVGID_8_);stroke:#E2E2E1;stroke-miterlimit:10;}
	.st8{fill:url(#SVGID_9_);stroke:#E2E2E1;stroke-miterlimit:10;}
	.st9{opacity:0.4;fill:url(#SVGID_10_);}
	.st10{fill:url(#SVGID_11_);stroke:#E2E2E1;stroke-miterlimit:10;}
	.st11{fill:#777777;}
</style>
<g id="Layer_1">
	<g>
		<linearGradient id="SVGID_1_" gradientUnits="userSpaceOnUse" x1="106.7112" y1="209.382" x2="154.7112" y2="209.382">
			<stop  offset="0" style="stop-color:#FFFFFF"/>
			<stop  offset="1" style="stop-color:#D4D4D4"/>
		</linearGradient>
		<polygon class="st0" points="146.7,189.8 106.7,223.4 110.7,229 154.7,217 		"/>
		<g>
			<linearGradient id="SVGID_2_" gradientUnits="userSpaceOnUse" x1="65.7918" y1="103.9619" x2="66.8365" y2="125.5563">
				<stop  offset="0" style="stop-color:#FFFFFF"/>
				<stop  offset="1" style="stop-color:#D4D4D4"/>
			</linearGradient>
			<path class="st1" d="M55.5,127.2l0.8-25.9c0,0,5.7-1.9,11.8-1.1s9.1,1.5,9.1,1.5l-0.8,23.9L55.5,127.2z"/>
			<linearGradient id="SVGID_3_" gradientUnits="userSpaceOnUse" x1="98.7918" y1="83.9619" x2="99.8365" y2="105.5563">
				<stop  offset="0" style="stop-color:#FFFFFF"/>
				<stop  offset="1" style="stop-color:#D4D4D4"/>
			</linearGradient>
			<path class="st2" d="M88.5,107.2l0.8-25.9c0,0,5.7-1.9,11.8-1.1c6.1,0.8,9.1,1.5,9.1,1.5l-0.8,23.9L88.5,107.2z"/>
			<linearGradient id="SVGID_4_" gradientUnits="userSpaceOnUse" x1="15.3112" y1="118.982" x2="144.1112" y2="118.982">
				<stop  offset="0" style="stop-color:#FFFFFF"/>
				<stop  offset="1" style="stop-color:#D4D4D4"/>
			</linearGradient>
			<polygon class="st3" points="143.9,77.8 15.3,149 15.3,160.2 108.9,137 144.1,137 			"/>
		</g>
		<g>
			
				<linearGradient id="SVGID_5_" gradientUnits="userSpaceOnUse" x1="-238.6635" y1="103.2365" x2="-237.6188" y2="124.8309" gradientTransform="matrix(-1 0 0 1 9.2 0)">
				<stop  offset="0" style="stop-color:#FFFFFF"/>
				<stop  offset="1" style="stop-color:#D4D4D4"/>
			</linearGradient>
			<path class="st4" d="M258.2,126.5l-0.8-25.9c0,0-5.7-1.9-11.8-1.1c-6.1,0.8-9.1,1.5-9.1,1.5l0.8,23.9L258.2,126.5z"/>
			
				<linearGradient id="SVGID_6_" gradientUnits="userSpaceOnUse" x1="-205.6635" y1="83.2365" x2="-204.6188" y2="104.8309" gradientTransform="matrix(-1 0 0 1 9.2 0)">
				<stop  offset="0" style="stop-color:#FFFFFF"/>
				<stop  offset="1" style="stop-color:#D4D4D4"/>
			</linearGradient>
			<path class="st5" d="M225.2,106.5l-0.8-25.9c0,0-5.7-1.9-11.8-1.1c-6.1,0.8-9.1,1.5-9.1,1.5l0.8,23.9L225.2,106.5z"/>
			
				<linearGradient id="SVGID_7_" gradientUnits="userSpaceOnUse" x1="-289.1441" y1="118.2566" x2="-160.3441" y2="118.2566" gradientTransform="matrix(-1 0 0 1 9.2 0)">
				<stop  offset="0" style="stop-color:#FFFFFF"/>
				<stop  offset="1" style="stop-color:#D4D4D4"/>
			</linearGradient>
			<polygon class="st6" points="169.7,77.1 298.3,148.3 298.3,159.5 204.7,136.3 169.5,136.3 			"/>
		</g>
		
			<linearGradient id="SVGID_8_" gradientUnits="userSpaceOnUse" x1="-71.3367" y1="208.7573" x2="-23.3367" y2="208.7573" gradientTransform="matrix(-1 0 0 1 133.2 0)">
			<stop  offset="0" style="stop-color:#FFFFFF"/>
			<stop  offset="1" style="stop-color:#D4D4D4"/>
		</linearGradient>
		<polygon class="st7" points="164.5,189.2 204.5,222.8 200.5,228.4 156.5,216.4 		"/>
		<linearGradient id="SVGID_9_" gradientUnits="userSpaceOnUse" x1="153.1016" y1="202.7368" x2="158.1457" y2="202.7368">
			<stop  offset="0" style="stop-color:#FFFFFF"/>
			<stop  offset="1" style="stop-color:#D4D4D4"/>
		</linearGradient>
		<path class="st8" d="M155.6,217.1L155.6,217.1c-1.4,0-2.5-1.1-2.5-2.5v-23.6c0-1.4,1.1-2.5,2.5-2.5l0,0c1.4,0,2.5,1.1,2.5,2.5
			v23.6C158.1,215.9,157,217.1,155.6,217.1z"/>
		<linearGradient id="SVGID_10_" gradientUnits="userSpaceOnUse" x1="89.9973" y1="112.133" x2="162.4476" y2="112.133">
			<stop  offset="0.1239" style="stop-color:#E0E0E0"/>
			<stop  offset="0.547" style="stop-color:#CECECE"/>
			<stop  offset="1" style="stop-color:#292929"/>
		</linearGradient>
		<polygon class="st9" points="144.2,79.9 112.7,97.8 76.2,144.3 109.4,135.9 148.6,137 		"/>
		
			<linearGradient id="SVGID_11_" gradientUnits="userSpaceOnUse" x1="417.904" y1="119.322" x2="447.5112" y2="119.322" gradientTransform="matrix(-1 0 0 1 589.4152 0)">
			<stop  offset="0" style="stop-color:#FFFFFF"/>
			<stop  offset="1" style="stop-color:#D4D4D4"/>
		</linearGradient>
		<path class="st10" d="M164.3,214.6l4-48.8c0,0,3.2-92,3.2-102.4s0.8-43.2-14.4-45.6c-15.2-2.4-15.2,32-15.2,32s2.4,107.2,4,114.4
			c1.6,7.2,5.6,56.8,5.6,56.8h12.8V214.6z"/>
		<path class="st11" d="M147.6,32.1l4.3-3.9c0,0,1.9-1,4.1-1c2.1,0,4.3,1,4.3,1l4.2,3.6l-3.5-6.9c0,0-0.2-1.9-5-1.9
			s-4.9,2.1-4.9,2.1L147.6,32.1z"/>
	</g>
</g>
<g id="Layer_2">
</g>
</svg>
